<svg id="bg" xmlns="http://www.w3.org/2000/svg" xmlns:xlink="http://www.w3.org/1999/xlink" width="354" height="275" viewBox="0 0 354 275">
  <defs>
    <linearGradient id="linear-gradient" x1="-0.678" y1="-0.783" x2="1" y2="1.019" gradientUnits="objectBoundingBox">
      <stop offset="0" stop-color="#ecf0f5"/>
      <stop offset="1" stop-color="#fff"/>
    </linearGradient>
    <filter id="background-color" x="-30" y="172" width="414" height="71" filterUnits="userSpaceOnUse">
      <feOffset dy="4" input="SourceAlpha"/>
      <feGaussianBlur stdDeviation="10" result="blur"/>
      <feFlood flood-opacity="0.161"/>
      <feComposite operator="in" in2="blur"/>
      <feComposite in="SourceGraphic"/>
    </filter>
    <filter id="background-color-2" x="-30" y="-26" width="414" height="335" filterUnits="userSpaceOnUse">
      <feOffset dy="4" input="SourceAlpha"/>
      <feGaussianBlur stdDeviation="10" result="blur-2"/>
      <feFlood flood-opacity="0.161"/>
      <feComposite operator="in" in2="blur-2"/>
      <feComposite in="SourceGraphic"/>
    </filter>
    <linearGradient id="linear-gradient-3" x1="0.175" y1="0.5" x2="0.878" y2="0.5" gradientUnits="objectBoundingBox">
      <stop offset="0" stop-color="#3c80f7"/>
      <stop offset="1" stop-color="#1058d1"/>
    </linearGradient>
    <linearGradient id="linear-gradient-4" x1="0.5" x2="0.5" y2="1" gradientUnits="objectBoundingBox">
      <stop offset="0" stop-color="#e83f94"/>
      <stop offset="1" stop-color="#f54e5e"/>
    </linearGradient>
    <linearGradient id="linear-gradient-5" x1="1" y1="1" x2="0.059" y2="-0.614" gradientUnits="objectBoundingBox">
      <stop offset="0" stop-color="#ff5858" stop-opacity="0.102"/>
      <stop offset="1" stop-color="#fff" stop-opacity="0.102"/>
    </linearGradient>
    <clipPath id="clip-path">
      <g transform="matrix(1, 0, 0, 1, 0, 0)" filter="url(#background-color-2)">
        <rect id="background-color-3" data-name="background-color" width="354" height="275" rx="8" fill="url(#linear-gradient)"/>
      </g>
    </clipPath>
    <clipPath id="clip-path-2">
      <g transform="matrix(1, 0, 0, 1, 0, 0)" filter="url(#background-color)">
        <path id="background-color-4" data-name="background-color" d="M0,0H354a0,0,0,0,1,0,0V3a8,8,0,0,1-8,8H8A8,8,0,0,1,0,3V0A0,0,0,0,1,0,0Z" transform="translate(0 198)" fill="url(#linear-gradient)"/>
      </g>
    </clipPath>
    <clipPath id="clip-path-3">
      <rect id="background-color-5" data-name="background-color" width="46" height="160" rx="8" fill="url(#linear-gradient-3)"/>
    </clipPath>
    <clipPath id="clip-path-4">
      <rect id="background-color-6" data-name="background-color" width="354" height="209" rx="8" transform="translate(270 645)" opacity="0.9" fill="url(#linear-gradient-4)"/>
    </clipPath>
  </defs>
  <rect id="background-color-7" data-name="background-color" width="354" height="209" rx="8" fill="#fff"/>
  <rect id="background-color-8" data-name="background-color" width="354" height="209" rx="8" fill="url(#linear-gradient-5)"/>
  <g id="Mask_Group_136" data-name="Mask Group 136" clip-path="url(#clip-path)">
    <g id="bottom_bar_style" clip-path="url(#clip-path-2)">
      <path id="background-color-9" data-name="background-color" d="M4,0H4A0,0,0,0,1,4,0V354a0,0,0,0,1,0,0H4a4,4,0,0,1-4-4V4A4,4,0,0,1,4,0Z" transform="translate(0 209) rotate(-90)" fill="#ff5858" opacity="0.2"/>
    </g>
    <g id="Group_49934" data-name="Group 49934" transform="translate(-305.526 71.394)">
      <g id="Group_49904" data-name="Group 49904" transform="translate(397.28 76.747)">
        <path id="Path_128485" data-name="Path 128485" d="M424.84,96.887c-.007-.176-.013-.356-.026-.533,0-.079-.013-.161-.02-.243,0-.034,0-.069-.007-.106-.007-.06-.01-.124-.016-.186-.019-.175-.037-.355-.059-.537s-.051-.366-.078-.553l0-.018,0,0c-.028-.176-.056-.354-.089-.534s-.076-.382-.118-.573c-.015-.068-.034-.137-.049-.2-.008-.038-.017-.075-.026-.111-.021-.087-.039-.171-.061-.259-.05-.2-.1-.389-.151-.584-.039-.137-.079-.274-.124-.41a.685.685,0,0,0-.027-.1c-.007-.026-.014-.05-.022-.074-.055-.19-.117-.38-.181-.568s-.128-.376-.2-.561c-.01-.033-.024-.067-.036-.1s-.022-.056-.032-.082c-.044-.121-.089-.239-.134-.359-.067-.177-.142-.356-.214-.533-.053-.126-.106-.254-.163-.378-.008-.02-.019-.041-.027-.062s-.025-.055-.036-.082c-.077-.179-.161-.355-.242-.533q-.137-.291-.28-.579c-.014-.029-.029-.055-.043-.083s-.036-.063-.049-.1c-.083-.16-.164-.321-.25-.483-.106-.2-.22-.392-.329-.588-.046-.08-.09-.16-.135-.241-.026-.043-.05-.089-.075-.134-.1-.168-.211-.33-.314-.5-.143-.228-.282-.46-.431-.686-.027-.037-.048-.075-.073-.113-.219-.329-.447-.653-.679-.971l-.007-.008-.008-.01c-.159-.218-.321-.43-.485-.638-.139-.178-.279-.35-.422-.523s-.282-.332-.425-.494-.281-.319-.424-.472c-.023-.025-.045-.047-.066-.068s-.053-.056-.08-.084c-.1-.108-.2-.215-.3-.319-.152-.156-.307-.308-.462-.458-.048-.049-.1-.092-.148-.138-.032-.031-.065-.059-.1-.09-.079-.073-.157-.149-.236-.221-.161-.145-.323-.285-.485-.423-.074-.063-.152-.123-.228-.185l-.089-.072c-.058-.046-.114-.094-.172-.142-.16-.125-.318-.247-.482-.368-.123-.091-.249-.177-.375-.265a.113.113,0,0,0-.026-.021c-.027-.018-.051-.036-.075-.054-.157-.1-.309-.207-.466-.306s-.308-.192-.464-.282l-.106-.063c-.12-.068-.235-.131-.351-.194-.151-.082-.3-.161-.448-.235-.105-.053-.206-.1-.309-.146l-.038-.018-.1-.045q-.22-.1-.437-.185c-.15-.058-.3-.113-.444-.166-.026-.01-.05-.016-.073-.025s-.047-.016-.068-.021c-.1-.035-.2-.07-.3-.1-.152-.048-.3-.087-.453-.126-.071-.017-.143-.032-.218-.048-.032-.006-.064-.015-.1-.021s-.089-.022-.133-.031c-.162-.032-.324-.056-.481-.079-.1-.013-.188-.02-.281-.029-.038,0-.078-.01-.116-.011l-.09-.01c-.173-.013-.345-.019-.513-.016-.071,0-.137.007-.205.009s-.135,0-.2.01-.109,0-.163.007a6.119,6.119,0,0,0-.629.091h0c-.091.019-.178.052-.267.074-.165.043-.337.08-.5.137-.018.006-.034.015-.054.022l-.139.058a5.5,5.5,0,0,0-.695.328l-4.956,2.881a5.18,5.18,0,0,1,.73-.346l.083-.036a5.889,5.889,0,0,1,.678-.2c.053-.013.1-.031.156-.042a6.442,6.442,0,0,1,.82-.1c.052,0,.106-.007.163-.008a7.068,7.068,0,0,1,.841.016c.031,0,.063.007.094.011a8.23,8.23,0,0,1,.92.141c.028.006.058.012.086.02a9.786,9.786,0,0,1,.972.271.538.538,0,0,0,.06.019c.338.117.685.257,1.033.415.031.014.058.029.089.041.355.167.713.352,1.077.56s.731.444,1.089.692c.03.02.057.041.086.062q.49.343.963.726l.148.118q.462.379.91.795c.039.037.078.072.116.111q.47.44.918.916c.019.021.038.042.057.06.316.336.623.687.923,1.048a.684.684,0,0,1,.046.055c.3.357.585.725.863,1.1.024.036.048.068.071.1.24.33.475.668.7,1.009.156.236.3.476.449.717.117.189.239.377.352.571.061.107.12.214.179.319.185.33.368.661.539.995.02.042.041.081.06.122.213.419.41.841.6,1.267.011.024.023.048.032.071.183.421.356.848.513,1.275.007.02.017.042.023.061.161.435.307.874.439,1.313.01.029.019.06.028.088.126.42.236.837.333,1.255.011.039.018.076.027.117.1.437.187.87.256,1.3l0,.007q.1.652.156,1.294c0,.035,0,.072.011.11q.051.638.049,1.264c0,.42-.022.819-.057,1.208,0,.032-.006.062-.01.094-.035.36-.085.7-.151,1.035-.008.042-.017.083-.027.124-.065.32-.143.624-.234.918l-.051.152c-.1.281-.2.547-.314.8-.008.022-.019.046-.029.067a6.783,6.783,0,0,1-.443.8c-.018.032-.043.059-.063.09-.136.2-.279.388-.429.568-.054.061-.111.12-.164.179-.136.146-.274.277-.417.4-.059.052-.115.1-.176.152a5.1,5.1,0,0,1-.634.441l4.955-2.877a5.446,5.446,0,0,0,.636-.444c.059-.048.115-.1.171-.15a5.375,5.375,0,0,0,.421-.4c.055-.06.109-.118.163-.179a6.233,6.233,0,0,0,.428-.567c.021-.033.047-.058.066-.093a.118.118,0,0,0,.014-.02,6.967,6.967,0,0,0,.415-.752l.013-.029c.01-.023.022-.05.032-.074.076-.17.152-.34.218-.519.033-.087.061-.182.09-.273.019-.053.037-.105.052-.16s.034-.093.049-.143c.053-.184.1-.371.148-.561.014-.07.028-.145.042-.214a1.133,1.133,0,0,0,.022-.119c.015-.068.03-.135.045-.2.03-.172.053-.345.076-.525.014-.1.022-.2.032-.3,0-.035.007-.067.012-.1s.01-.08.012-.121c.013-.172.026-.342.032-.519s.011-.352.012-.53V97.38C424.847,97.215,424.844,97.051,424.84,96.887Z" transform="translate(-397.95 -76.927)" fill="#d25400"/>
        <g id="Group_49903" data-name="Group 49903" transform="translate(0 2.88)">
          <path id="Path_128486" data-name="Path 128486" d="M408.927,81.336c6.06,3.5,10.954,11.987,10.933,18.949s-4.945,9.774-11,6.274S397.9,94.581,397.92,87.618,402.865,77.839,408.927,81.336Z" transform="translate(-397.92 -79.834)" fill="#e27124"/>
        </g>
      </g>
      <path id="Path_128487" data-name="Path 128487" d="M410.886,87.348c-.026-8.835-3.156-15.058-8.195-17.985l-13.242-7.7c5.039,2.928,8.167,9.151,8.195,17.986l-.056,7.384.009,1.911,13.241,7.695,0-1.912Z" transform="translate(-0.562 -0.037)" fill="#c3c5c5"/>
      <path id="Path_128488" data-name="Path 128488" d="M410.968,87.384l-.053,7.381,0,1.912,1.738-1-.025-9.251c-.035-12.268-5.726-19.772-14.213-20.906v2.268C405.95,69.234,410.937,76.221,410.968,87.384Z" transform="translate(-0.644 -0.073)" fill="#c8d2db"/>
      <g id="Group_49906" data-name="Group 49906" transform="translate(386.208 78.587)">
        <path id="Path_128489" data-name="Path 128489" d="M420.662,103.931c-.007-.222-.019-.447-.033-.67,0-.1-.015-.2-.023-.3,0-.046-.007-.09-.011-.135-.006-.08-.011-.158-.02-.236-.021-.224-.047-.45-.074-.679s-.061-.463-.1-.7c0-.007,0-.014-.006-.023v0c-.035-.224-.074-.447-.117-.674s-.092-.482-.146-.72c-.018-.086-.042-.173-.059-.259-.013-.046-.023-.1-.034-.141-.026-.108-.049-.217-.077-.327-.06-.245-.124-.486-.191-.732-.049-.174-.1-.346-.151-.518-.013-.041-.025-.08-.037-.121s-.017-.06-.027-.093c-.072-.239-.151-.48-.229-.716s-.16-.471-.247-.7c-.016-.042-.032-.084-.049-.126s-.024-.066-.038-.1c-.055-.15-.109-.3-.166-.448-.09-.225-.179-.452-.271-.673-.065-.16-.138-.318-.205-.48-.012-.025-.022-.051-.035-.078s-.029-.068-.044-.1c-.1-.225-.2-.45-.305-.671-.116-.247-.233-.488-.354-.73-.018-.038-.038-.07-.053-.106s-.045-.08-.061-.122c-.106-.2-.209-.405-.315-.607-.134-.249-.276-.493-.415-.74-.058-.1-.113-.2-.17-.3-.03-.055-.062-.111-.1-.168-.125-.212-.264-.417-.394-.629-.179-.288-.356-.581-.544-.864-.032-.047-.058-.1-.089-.143q-.418-.623-.859-1.225l-.007-.01-.01-.015q-.3-.4-.612-.8c-.173-.223-.352-.44-.534-.66s-.351-.418-.532-.622-.355-.4-.536-.6l-.081-.086c-.034-.036-.068-.07-.1-.106-.128-.135-.256-.269-.384-.4-.192-.2-.386-.387-.583-.578-.061-.058-.123-.113-.184-.171-.043-.04-.084-.077-.126-.119-.1-.088-.2-.184-.3-.273-.2-.182-.408-.361-.615-.536-.091-.078-.188-.155-.283-.231-.036-.033-.073-.061-.111-.092-.073-.058-.147-.12-.219-.178-.2-.158-.4-.311-.606-.463-.156-.115-.313-.225-.471-.334-.011-.008-.022-.019-.035-.027l-.1-.065c-.194-.132-.389-.263-.586-.389s-.388-.241-.585-.353c-.046-.03-.09-.056-.136-.082-.146-.084-.294-.165-.438-.245-.189-.1-.379-.2-.566-.3l-.389-.183a.309.309,0,0,1-.048-.023l-.123-.055c-.184-.082-.37-.16-.551-.234s-.373-.143-.559-.21c-.031-.01-.062-.019-.094-.031a.852.852,0,0,0-.085-.027c-.124-.043-.25-.086-.374-.124-.193-.057-.382-.108-.57-.157-.091-.023-.181-.041-.273-.061-.043-.01-.084-.018-.123-.025-.057-.012-.114-.03-.17-.039-.2-.041-.406-.073-.6-.1-.122-.014-.237-.023-.355-.036-.05,0-.1-.009-.149-.014s-.074-.008-.111-.01c-.218-.018-.436-.025-.65-.022-.087,0-.17.01-.258.011s-.169.006-.254.013c-.066,0-.139,0-.2.01a7.648,7.648,0,0,0-.8.115h0c-.116.025-.225.065-.338.094-.209.054-.423.1-.625.173l-.066.026c-.061.023-.118.049-.178.072a7.008,7.008,0,0,0-.875.416l-6.244,3.629a6.7,6.7,0,0,1,.918-.435c.035-.015.071-.031.107-.044a6.977,6.977,0,0,1,.854-.249c.066-.015.128-.039.2-.053a7.849,7.849,0,0,1,1.033-.131c.066,0,.134-.007.2-.009a8.467,8.467,0,0,1,1.059.021l.121.012a10.5,10.5,0,0,1,1.158.178l.112.025A11.907,11.907,0,0,1,397.8,83c.028.007.054.017.078.024a13.9,13.9,0,0,1,1.3.524l.112.053c.445.207.9.438,1.354.7s.921.56,1.373.872l.109.079c.409.287.814.593,1.215.914.061.052.12.1.182.15.388.318.771.654,1.145,1l.148.139c.394.369.78.755,1.157,1.155.025.025.05.051.071.075.4.425.788.867,1.165,1.32.02.024.038.049.057.07q.559.676,1.088,1.39c.032.042.059.087.089.13q.453.621.884,1.271c.194.3.377.6.565.9.148.24.3.476.442.721.078.133.152.269.227.4.233.416.463.832.679,1.255.025.051.052.1.078.153.264.524.516,1.059.75,1.6.014.03.026.059.039.091q.348.8.648,1.606c.009.026.019.052.029.078.2.548.386,1.1.553,1.652.012.039.023.074.034.113.158.528.3,1.053.421,1.581.013.048.023.1.036.146.125.551.235,1.1.318,1.643l0,.012q.128.82.194,1.627c0,.047.009.092.012.14.041.535.065,1.068.063,1.593s-.028,1.034-.071,1.523c0,.04-.009.077-.014.118-.045.452-.109.887-.189,1.3-.01.053-.02.1-.032.155a11.789,11.789,0,0,1-.3,1.159c-.02.065-.042.128-.064.19a9.276,9.276,0,0,1-.393,1.011c-.011.028-.023.057-.035.084a8.83,8.83,0,0,1-.56,1.013c-.025.04-.056.075-.08.113a7.7,7.7,0,0,1-.543.715c-.066.079-.136.153-.205.229-.168.18-.345.35-.526.509-.074.062-.144.128-.217.188a7.451,7.451,0,0,1-.8.556l6.243-3.627a7.125,7.125,0,0,0,.8-.558c.072-.059.141-.124.211-.187a6.968,6.968,0,0,0,.532-.51c.067-.076.139-.15.2-.226a7.556,7.556,0,0,0,.542-.714c.026-.041.058-.075.084-.118,0-.008.012-.014.017-.025a8.829,8.829,0,0,0,.523-.945.254.254,0,0,1,.017-.038c.013-.032.026-.065.039-.1.1-.211.19-.427.276-.654.041-.112.074-.229.113-.342.023-.068.046-.133.065-.2s.045-.118.061-.181c.066-.23.128-.465.184-.706.021-.089.037-.179.055-.27.011-.049.02-.1.03-.147.015-.086.036-.171.051-.258.038-.217.069-.436.1-.661.017-.127.027-.255.04-.382,0-.044.009-.086.013-.13s.011-.1.017-.156c.018-.214.029-.429.041-.653s.013-.443.016-.667v-.041Q420.671,104.242,420.662,103.931Z" transform="translate(-386.782 -78.785)" fill="#c02f1c"/>
        <g id="Group_49905" data-name="Group 49905" transform="translate(0 3.627)">
          <path id="Path_128490" data-name="Path 128490" d="M400.612,84.339c7.634,4.411,13.8,15.1,13.776,23.875s-6.232,12.312-13.864,7.9-13.8-15.088-13.779-23.86S392.977,79.932,400.612,84.339Z" transform="translate(-386.745 -82.446)" fill="#781e11"/>
        </g>
      </g>
      <g id="Group_49925" data-name="Group 49925" transform="translate(335.261 75.7)">
        <g id="Group_49912" data-name="Group 49912" transform="translate(29.94)">
          <g id="Group_49911" data-name="Group 49911">
            <g id="Group_49910" data-name="Group 49910" style="mix-blend-mode: normal;isolation: isolate">
              <g id="Group_49907" data-name="Group 49907" transform="translate(37.816 21.831)">
                <path id="Path_128491" data-name="Path 128491" d="M403.71,161.812l11.9-6.92.163-56.977-11.907,6.919Z" transform="translate(-403.71 -97.914)" fill="#ed8001"/>
              </g>
              <g id="Group_49908" data-name="Group 49908" transform="translate(0.163)">
                <path id="Path_128492" data-name="Path 128492" d="M403.52,104.631l11.907-6.919L377.613,75.881l-1.781,1.033v.969l-7.373,4.348-.9-.513L365.707,82.8Z" transform="translate(-365.707 -75.881)" fill="#facd00"/>
              </g>
              <g id="Group_49909" data-name="Group 49909" transform="translate(0 6.919)">
                <path id="Path_128493" data-name="Path 128493" d="M365.705,82.864l-.163,56.978,37.816,21.832.16-56.978Z" transform="translate(-365.542 -82.864)" fill="#fca922"/>
              </g>
            </g>
          </g>
          <path id="Path_128494" data-name="Path 128494" d="M368.484,82.249,403.545,102.4l8.274-4.666L375.857,77.9Z" transform="translate(-365.57 -75.899)" fill="#e7e8e9"/>
          <path id="Path_128495" data-name="Path 128495" d="M375.925,76.923v.969l34.951,20.4,1.011-.572Z" transform="translate(-365.638 -75.89)" fill="#fca922"/>
        </g>
        <g id="Group_49918" data-name="Group 49918" transform="translate(15.291 6.973)">
          <g id="Group_49917" data-name="Group 49917">
            <g id="Group_49916" data-name="Group 49916" style="mix-blend-mode: normal;isolation: isolate">
              <g id="Group_49913" data-name="Group 49913" transform="translate(37.814 21.832)">
                <path id="Path_128496" data-name="Path 128496" d="M388.918,168.851l11.906-6.92.162-56.977-11.9,6.919Z" transform="translate(-388.918 -104.954)" fill="#4b6e21"/>
              </g>
              <g id="Group_49914" data-name="Group 49914" transform="translate(0.16)">
                <path id="Path_128497" data-name="Path 128497" d="M388.731,111.67l11.9-6.919L362.821,82.919l-1.781,1.034v.969l-7.371,4.348-.9-.512-1.858,1.08Z" transform="translate(-350.914 -82.919)" fill="#80b134"/>
              </g>
              <g id="Group_49915" data-name="Group 49915" transform="translate(0 6.919)">
                <path id="Path_128498" data-name="Path 128498" d="M350.913,89.9l-.16,56.976,37.814,21.834.163-56.978Z" transform="translate(-350.753 -89.902)" fill="#5b7f2a"/>
              </g>
            </g>
          </g>
          <path id="Path_128499" data-name="Path 128499" d="M353.694,89.288l35.063,20.147,8.271-4.666L361.065,84.94Z" transform="translate(-350.78 -82.937)" fill="#e7e8e9"/>
          <path id="Path_128500" data-name="Path 128500" d="M361.133,83.962v.969l34.95,20.4,1.013-.572Z" transform="translate(-350.848 -82.928)" fill="#5b7f2a"/>
        </g>
        <g id="Group_49924" data-name="Group 49924" transform="translate(0 14.171)">
          <g id="Group_49923" data-name="Group 49923">
            <g id="Group_49922" data-name="Group 49922" style="mix-blend-mode: normal;isolation: isolate">
              <g id="Group_49919" data-name="Group 49919" transform="translate(37.816 21.83)">
                <path id="Path_128501" data-name="Path 128501" d="M373.482,176.116l11.9-6.921.163-56.978-11.906,6.92Z" transform="translate(-373.482 -112.217)" fill="#0f9ad6"/>
              </g>
              <g id="Group_49920" data-name="Group 49920" transform="translate(0.162)">
                <path id="Path_128502" data-name="Path 128502" d="M373.293,118.934l11.906-6.92-37.816-21.83L345.6,91.217v.969l-7.374,4.347-.9-.512L335.478,97.1Z" transform="translate(-335.478 -90.184)" fill="#1fa6f3"/>
              </g>
              <g id="Group_49921" data-name="Group 49921" transform="translate(0 6.918)">
                <path id="Path_128503" data-name="Path 128503" d="M335.476,97.166l-.162,56.979,37.816,21.832L373.291,119Z" transform="translate(-335.314 -97.166)" fill="#32bcf9"/>
              </g>
            </g>
          </g>
          <path id="Path_128504" data-name="Path 128504" d="M338.256,96.552,373.318,116.7l8.272-4.667L345.63,92.205Z" transform="translate(-335.341 -90.202)" fill="#e7e8e9"/>
          <path id="Path_128505" data-name="Path 128505" d="M345.7,91.227V92.2l34.949,20.4,1.012-.574Z" transform="translate(-335.41 -90.193)" fill="#32bcf9"/>
        </g>
      </g>
      <g id="Group_49927" data-name="Group 49927" transform="translate(332.45 108.241)">
        <path id="Path_128506" data-name="Path 128506" d="M366.4,133.863c-.007-.22-.018-.446-.033-.669,0-.1-.016-.2-.023-.3-.005-.046-.007-.091-.011-.136-.007-.078-.011-.156-.021-.235-.02-.224-.046-.449-.075-.678s-.06-.463-.1-.7l0-.023v0c-.037-.224-.074-.448-.118-.674s-.093-.481-.146-.721c-.018-.086-.042-.173-.061-.258-.01-.047-.021-.094-.032-.141-.026-.109-.049-.216-.076-.326-.06-.246-.124-.489-.193-.734-.048-.173-.1-.344-.152-.517-.011-.04-.023-.081-.035-.12s-.019-.06-.028-.094c-.07-.239-.15-.479-.229-.717s-.161-.47-.246-.7c-.014-.042-.033-.084-.048-.125s-.025-.068-.04-.1c-.054-.15-.109-.3-.168-.448-.086-.225-.176-.452-.268-.674-.065-.159-.139-.317-.205-.478-.012-.025-.022-.052-.035-.078s-.029-.07-.044-.1c-.1-.224-.2-.449-.307-.669-.114-.247-.231-.489-.353-.731-.017-.037-.038-.069-.053-.105s-.045-.08-.062-.122c-.1-.2-.207-.406-.314-.608-.135-.249-.276-.494-.415-.74-.059-.1-.111-.2-.17-.3-.031-.055-.062-.113-.094-.168-.126-.214-.265-.417-.394-.629-.181-.288-.357-.581-.546-.865-.031-.047-.057-.1-.09-.143q-.415-.624-.858-1.224l-.006-.011a.029.029,0,0,1-.009-.015c-.2-.269-.405-.537-.612-.8-.176-.222-.353-.441-.534-.659s-.352-.419-.533-.621-.356-.4-.536-.6c-.028-.029-.055-.055-.081-.085s-.068-.069-.1-.105c-.128-.136-.254-.27-.381-.4-.193-.2-.387-.389-.584-.579-.061-.058-.123-.114-.184-.171-.044-.04-.085-.077-.126-.118-.1-.089-.2-.185-.3-.273-.2-.185-.407-.363-.613-.536-.1-.079-.189-.155-.284-.233-.036-.031-.073-.06-.111-.091-.073-.057-.147-.12-.219-.177-.2-.158-.4-.312-.606-.464-.158-.115-.313-.224-.471-.335-.012-.007-.024-.018-.036-.025-.03-.023-.063-.045-.094-.067-.193-.131-.389-.262-.586-.387s-.389-.242-.585-.355c-.046-.029-.09-.054-.136-.081-.147-.084-.293-.166-.439-.245-.189-.1-.379-.2-.565-.3l-.39-.183a.408.408,0,0,1-.047-.023c-.041-.017-.083-.038-.124-.055-.184-.083-.369-.161-.551-.235s-.374-.144-.558-.209l-.094-.031a.893.893,0,0,0-.087-.029c-.123-.042-.249-.084-.373-.122-.193-.058-.382-.108-.569-.157-.093-.024-.182-.041-.274-.062-.043-.01-.084-.017-.123-.024-.058-.013-.114-.03-.169-.039-.205-.042-.407-.073-.605-.1-.122-.015-.237-.024-.356-.036-.049,0-.1-.011-.146-.014s-.076-.01-.113-.012c-.221-.016-.434-.023-.65-.02-.087,0-.17.007-.258.011s-.168.006-.255.012c-.065,0-.136,0-.2.01a7.61,7.61,0,0,0-.8.115h0c-.118.023-.226.065-.338.091-.209.056-.425.1-.626.176-.024.006-.045.018-.066.025-.061.024-.119.049-.178.072a7,7,0,0,0-.875.415l-6.243,3.63a6.531,6.531,0,0,1,.917-.435c.037-.015.071-.032.108-.045a7.106,7.106,0,0,1,.853-.248c.067-.014.129-.038.2-.053a7.73,7.73,0,0,1,1.033-.13c.065,0,.134-.008.2-.01a8.682,8.682,0,0,1,1.06.021l.12.012a10.272,10.272,0,0,1,1.158.178l.112.024a12.261,12.261,0,0,1,1.22.343l.079.025a13.877,13.877,0,0,1,1.3.523l.11.051c.447.209.9.441,1.357.7s.92.56,1.369.872c.039.027.074.053.113.079.409.287.813.593,1.212.914l.184.151c.388.317.771.653,1.145,1l.148.139q.593.554,1.158,1.156c.023.025.047.051.071.075q.6.636,1.164,1.319c.019.023.038.048.058.069q.559.678,1.086,1.391c.03.042.059.085.089.13.305.415.6.837.886,1.271.193.3.378.6.564.9.148.241.3.477.442.721.077.134.152.269.227.4.233.416.463.832.679,1.254.025.052.051.1.077.152.264.526.516,1.061.75,1.6.015.031.027.06.04.09.231.533.448,1.069.647,1.607.011.026.02.053.03.079.2.547.386,1.1.553,1.652.012.038.023.073.033.112q.238.791.423,1.582c.012.048.022.1.033.146.126.549.235,1.1.322,1.643l0,.011q.128.822.194,1.626c0,.048.009.093.012.141.041.535.065,1.069.064,1.594s-.029,1.034-.071,1.521c0,.041-.01.078-.012.119-.048.452-.112.886-.19,1.3-.011.053-.024.1-.034.156a11.7,11.7,0,0,1-.3,1.157c-.02.065-.043.13-.064.192a9.579,9.579,0,0,1-.393,1.009c-.013.028-.024.058-.037.086a8.959,8.959,0,0,1-.557,1.011c-.026.041-.056.075-.082.114a7.283,7.283,0,0,1-.542.715c-.066.079-.136.153-.205.23a6.865,6.865,0,0,1-.527.507c-.073.062-.143.129-.216.189a7.3,7.3,0,0,1-.8.557l6.242-3.628a6.287,6.287,0,0,0,.8-.56c.075-.056.144-.121.215-.184a6.612,6.612,0,0,0,.529-.513c.069-.074.138-.149.2-.223a7.7,7.7,0,0,0,.543-.715c.025-.04.057-.074.082-.117a.3.3,0,0,0,.018-.026,8.9,8.9,0,0,0,.523-.945.4.4,0,0,0,.015-.038c.015-.032.028-.065.041-.1.1-.21.189-.426.274-.653.043-.111.075-.23.115-.343.022-.067.046-.132.066-.2s.044-.119.059-.181c.068-.232.129-.465.185-.706.021-.089.037-.181.055-.27.011-.051.022-.1.031-.147.015-.087.036-.171.051-.26.039-.215.07-.436.1-.661.015-.126.025-.253.039-.38l.013-.132c0-.053.011-.1.016-.154.019-.214.031-.431.041-.654s.014-.443.016-.666v-.042C366.4,134.279,366.4,134.07,366.4,133.863Z" transform="translate(-332.514 -108.719)" fill="#c02f1c"/>
        <g id="Group_49926" data-name="Group 49926" transform="translate(0 3.626)">
          <path id="Path_128507" data-name="Path 128507" d="M346.347,114.272c7.633,4.41,13.8,15.1,13.776,23.876s-6.232,12.311-13.865,7.9-13.8-15.088-13.781-23.861S338.711,109.864,346.347,114.272Z" transform="translate(-332.477 -112.379)" fill="#781e11"/>
        </g>
      </g>
      <path id="Path_128508" data-name="Path 128508" d="M386.076,67.449c.181-.077.365-.161.545-.234q.678-.275,1.347-.51c.085-.031.17-.066.256-.1q.814-.278,1.612-.5c.34-.093.675-.173,1.011-.251.116-.027.233-.06.349-.084q.675-.144,1.336-.248c.061-.009.122-.015.182-.023.369-.053.732-.1,1.092-.131.121-.011.241-.018.361-.027.253-.019.5-.03.755-.04.591-.02,1.171-.018,1.741.017.06,0,.122.011.183.016.492.034.974.092,1.449.167.125.021.251.041.373.062a14.913,14.913,0,0,1,1.512.348c.486.144.957.313,1.42.5.11.045.219.094.332.142.4.175.8.366,1.179.577.1.055.2.1.3.159l-9.329-5.419L390,59.507c-.084-.046-.174-.079-.258-.126-.335-.178-.674-.345-1.021-.5-.074-.032-.144-.075-.22-.106-.056-.024-.12-.039-.178-.064-.441-.177-.888-.34-1.349-.475-.015,0-.029-.011-.043-.015l-.009,0c-.482-.139-.978-.248-1.481-.342-.062-.009-.12-.03-.181-.041-.081-.014-.166-.017-.248-.029-.429-.067-.865-.121-1.311-.154-.082-.007-.159-.023-.242-.03-.025,0-.055,0-.083,0-.557-.032-1.128-.033-1.706-.014-.06,0-.117,0-.177,0-.176.007-.358.026-.535.038-.141.012-.277.019-.419.032-.361.034-.725.077-1.091.13-.053.007-.106.013-.159.022h-.011q-.654.1-1.319.246c-.17.035-.344.084-.514.124-.259.06-.516.118-.776.189-.021.006-.042.013-.062.017-.536.148-1.075.314-1.625.5-.084.029-.173.064-.259.1q-.7.245-1.406.535c-.048.02-.092.034-.14.054-.08.033-.166.078-.249.114-.5.213-1.009.445-1.516.692-.159.078-.318.154-.478.236-.628.315-1.257.648-1.9,1.015-.795.46-1.577.959-2.357,1.479-.119.078-.24.157-.358.236q-1.119.767-2.216,1.611c-.124.1-.248.194-.372.293-.744.584-1.482,1.188-2.206,1.825-.04.034-.077.07-.118.106q-1.072.947-2.11,1.97c-.056.053-.113.1-.168.155-.036.036-.069.071-.106.107q-1.547,1.532-3.007,3.205c-.045.049-.09.094-.133.146s-.112.137-.169.205q-1.118,1.293-2.182,2.657c-.02.027-.043.051-.063.076-.055.072-.1.144-.158.214q-.875,1.137-1.706,2.315c-.041.056-.081.106-.119.162-.018.025-.035.053-.052.077-.522.744-1.028,1.5-1.523,2.267-.05.078-.1.152-.151.227-.074.118-.142.238-.216.354q-.594.942-1.16,1.9c-.052.088-.11.175-.163.264-.02.035-.037.067-.057.1q-.642,1.107-1.244,2.236c-.031.058-.066.114-.1.173-.061.118-.117.235-.178.352-.322.613-.636,1.231-.937,1.853-.055.11-.115.219-.167.33-.031.062-.059.131-.09.192-.372.777-.73,1.557-1.07,2.34-.007.019-.017.035-.023.053-.027.06-.051.122-.075.182q-.456,1.057-.87,2.124c-.049.121-.1.242-.149.362-.039.1-.07.2-.107.3q-.468,1.229-.885,2.465c0,.014-.011.029-.014.044-.016.044-.027.086-.042.13-.284.861-.545,1.722-.788,2.583-.032.105-.068.21-.1.316-.017.057-.027.114-.042.168q-.41,1.5-.731,2.991c-.019.082-.045.165-.06.249-.027.117-.046.235-.067.353-.085.407-.161.811-.236,1.217-.048.253-.092.506-.135.759-.072.424-.132.847-.192,1.267-.023.172-.056.346-.075.515-.007.043-.009.085-.015.128q-.164,1.3-.252,2.577c-.013.167-.024.333-.032.5-.053.871-.085,1.737-.083,2.593l.028,9.251,13.242,7.7-.027-9.255c0-.844.031-1.7.083-2.56.01-.186.02-.372.033-.556.059-.837.14-1.677.248-2.525.031-.252.069-.5.106-.756.054-.387.111-.775.174-1.165.047-.266.1-.535.145-.8q.106-.583.225-1.163c.044-.216.089-.429.135-.643q.327-1.486.732-2.98c.043-.157.088-.314.135-.473.239-.844.493-1.684.772-2.528.028-.087.052-.172.081-.258q.419-1.245.893-2.487c.072-.19.147-.38.221-.571q.4-1.033.841-2.058c.056-.13.107-.263.164-.391q.5-1.143,1.043-2.277c.088-.189.183-.377.276-.566q.462-.947.953-1.882c.078-.149.154-.3.233-.446q.609-1.144,1.261-2.266c.07-.119.145-.24.214-.358.383-.649.775-1.288,1.176-1.923.116-.187.234-.376.355-.563.488-.756.986-1.5,1.5-2.237.08-.116.163-.228.247-.343q.807-1.144,1.658-2.249c.07-.093.142-.188.214-.282q1.08-1.388,2.22-2.7c.082-.091.16-.186.241-.279q1.468-1.676,3.022-3.219c.1-.1.206-.2.311-.3.672-.657,1.356-1.3,2.05-1.91.055-.052.111-.1.167-.153.71-.624,1.436-1.217,2.166-1.794.139-.109.278-.219.42-.327q1.073-.831,2.179-1.582c.132-.093.266-.178.4-.267.771-.514,1.547-1.01,2.332-1.462.633-.364,1.263-.7,1.887-1.013.171-.086.341-.168.511-.251Q385.384,67.744,386.076,67.449Z" transform="translate(-0.091)" fill="#e6e7ec"/>
      <path id="Path_128509" data-name="Path 128509" d="M382.409,69.419c-16.388,9.463-29.676,32.478-29.623,51.309l.027,9.255,1.738-1-.079-1.87-.022-7.341c-.051-17.781,12.492-39.5,27.964-48.436,5.757-3.324,11.117-4.409,15.586-3.551V65.515C393.456,64.909,388.117,66.125,382.409,69.419Z" transform="translate(-0.219 -0.071)" fill="#c8d2db"/>
      <g id="Group_49929" data-name="Group 49929" transform="translate(329.525 115.687)">
        <path id="Path_128510" data-name="Path 128510" d="M356.444,136.193c0-.175-.013-.355-.025-.531,0-.08-.014-.162-.019-.242,0-.035-.006-.07-.008-.107-.007-.062-.011-.122-.014-.184-.019-.179-.039-.357-.061-.54s-.051-.367-.077-.553l0-.017v0c-.029-.175-.057-.353-.092-.532s-.074-.38-.115-.571c-.015-.071-.033-.141-.051-.207a.991.991,0,0,0-.026-.111c-.018-.088-.038-.172-.061-.259-.047-.2-.1-.389-.151-.581-.04-.141-.079-.275-.121-.413-.008-.031-.019-.064-.028-.1s-.014-.05-.022-.076c-.057-.187-.119-.377-.181-.566s-.127-.373-.2-.561c-.011-.033-.025-.065-.038-.1s-.021-.055-.033-.082c-.044-.12-.086-.239-.133-.357-.069-.177-.141-.357-.213-.532-.054-.126-.109-.254-.163-.381-.01-.019-.018-.042-.027-.06s-.025-.055-.037-.083c-.078-.177-.159-.356-.242-.531-.092-.2-.185-.388-.281-.582-.013-.026-.026-.052-.043-.082s-.035-.063-.048-.1c-.082-.16-.165-.321-.251-.482-.105-.2-.219-.393-.328-.59-.049-.078-.089-.16-.138-.239-.025-.044-.048-.089-.074-.133-.1-.171-.209-.332-.313-.5-.142-.231-.283-.462-.431-.687l-.072-.113q-.328-.5-.682-.971l-.006-.009-.006-.011c-.159-.215-.321-.428-.486-.635-.138-.179-.282-.351-.422-.526s-.281-.33-.425-.494-.281-.317-.426-.472c-.021-.023-.043-.046-.064-.067s-.053-.056-.08-.084c-.1-.107-.2-.215-.3-.319-.153-.156-.306-.307-.463-.458-.049-.049-.1-.09-.148-.136-.033-.032-.067-.061-.1-.093-.079-.07-.157-.148-.234-.22-.162-.145-.324-.285-.487-.423-.074-.063-.153-.123-.227-.185l-.089-.073c-.058-.047-.115-.094-.173-.14q-.238-.189-.481-.369c-.124-.092-.25-.177-.373-.264a.1.1,0,0,0-.028-.021c-.027-.019-.051-.037-.073-.055-.157-.1-.311-.206-.469-.3s-.307-.2-.462-.283c-.037-.023-.07-.045-.107-.063-.119-.07-.236-.133-.349-.2-.152-.081-.3-.161-.45-.233-.1-.051-.208-.1-.31-.145-.011-.007-.023-.012-.037-.02l-.1-.046c-.146-.064-.291-.126-.438-.186s-.3-.112-.441-.163c-.026-.011-.052-.016-.076-.027a.674.674,0,0,1-.067-.022c-.1-.032-.2-.066-.3-.1-.152-.047-.3-.086-.452-.126-.073-.019-.145-.032-.218-.049l-.1-.022-.135-.03c-.162-.033-.324-.056-.481-.078-.1-.013-.187-.02-.282-.029-.039,0-.078-.01-.114-.013s-.062-.007-.091-.009c-.174-.013-.345-.017-.516-.016-.068,0-.134,0-.2.008l-.2.01c-.054,0-.109,0-.161.007-.217.022-.426.053-.632.093l0,0c-.092.02-.176.051-.268.072-.165.043-.336.079-.5.138-.018.006-.035.015-.054.021-.048.02-.092.039-.141.057a5.286,5.286,0,0,0-.693.33l-4.956,2.881a5.149,5.149,0,0,1,.727-.347c.029-.01.056-.024.086-.034a5.236,5.236,0,0,1,.678-.2c.052-.012.1-.031.155-.043a6.249,6.249,0,0,1,.82-.1l.161-.007a6.891,6.891,0,0,1,.843.017l.1.009a8.2,8.2,0,0,1,.917.143c.03,0,.059.012.088.018.318.071.64.163.97.271l.061.02c.34.117.684.258,1.034.414l.09.043c.354.164.711.35,1.077.559s.728.443,1.086.692l.088.061c.325.23.647.472.961.725l.149.12c.307.253.611.517.908.795l.118.109c.312.294.621.6.919.919.02.019.036.039.056.057.317.338.623.687.924,1.047.015.018.031.038.045.057q.444.534.865,1.1c.023.035.045.068.069.1q.363.5.7,1.011c.155.233.3.476.449.715.116.19.239.378.351.572.062.105.121.214.179.32.185.329.368.661.539,1,.021.04.042.079.061.12.211.417.41.842.6,1.265.01.026.021.051.031.075q.276.632.514,1.274c.008.02.015.04.022.061.162.436.307.872.441,1.312.008.031.016.059.026.088.126.419.237.839.334,1.255.008.04.019.078.027.117.1.435.187.872.256,1.3l0,.011c.068.433.119.865.157,1.291a1.053,1.053,0,0,0,.01.11c.032.425.049.848.049,1.266s-.022.819-.057,1.2c0,.033-.007.062-.009.1-.037.358-.087.7-.151,1.034-.009.042-.019.082-.027.124-.066.32-.146.625-.236.918-.018.053-.034.1-.051.152a8.052,8.052,0,0,1-.315.8c-.009.022-.016.046-.026.068a7.754,7.754,0,0,1-.443.8c-.021.033-.047.059-.064.09a6.121,6.121,0,0,1-.432.568c-.051.061-.107.122-.164.179a5.176,5.176,0,0,1-.416.405c-.059.051-.113.1-.173.15a5.337,5.337,0,0,1-.636.444l4.956-2.881a5.186,5.186,0,0,0,.636-.444c.059-.047.114-.1.17-.148a5.594,5.594,0,0,0,.421-.405c.054-.06.11-.118.162-.178a6.291,6.291,0,0,0,.428-.567c.022-.034.046-.06.066-.094a.147.147,0,0,0,.015-.02,6.769,6.769,0,0,0,.413-.749c.006-.01.01-.022.015-.032s.02-.051.032-.074c.077-.168.151-.34.216-.518.034-.088.061-.183.091-.272.019-.053.037-.107.055-.161s.033-.1.047-.144c.055-.185.1-.37.148-.562.015-.069.028-.142.042-.214.009-.039.018-.077.024-.116.013-.07.029-.136.042-.205.03-.172.057-.347.079-.527.012-.1.02-.2.031-.3,0-.034.007-.068.01-.1s.01-.081.012-.124c.016-.169.026-.34.034-.518s.011-.352.013-.529v-.032C356.452,136.521,356.45,136.357,356.444,136.193Z" transform="translate(-329.555 -116.235)" fill="#d25400"/>
        <g id="Group_49928" data-name="Group 49928" transform="translate(0 2.88)">
          <path id="Path_128511" data-name="Path 128511" d="M340.534,120.644c6.059,3.5,10.952,11.986,10.932,18.95s-4.946,9.77-11.007,6.271-10.955-11.976-10.934-18.938S334.472,117.146,340.534,120.644Z" transform="translate(-329.525 -119.141)" fill="#e27124"/>
        </g>
      </g>
    </g>
  </g>
  <g id="bg-2" data-name="bg" clip-path="url(#clip-path-3)">
    <g id="dot" transform="translate(-1.048 -21)">
      <g id="dot_copy" data-name="dot copy" transform="translate(12.905 156) rotate(90)" opacity="0.12">
        <ellipse id="Oval" cx="0.381" cy="0.379" rx="0.381" ry="0.379" transform="translate(0 0)" fill="#fff"/>
        <ellipse id="Oval_Copy_7" data-name="Oval Copy 7" cx="0.381" cy="0.379" rx="0.381" ry="0.379" transform="translate(9.147 0)" fill="#fff"/>
        <ellipse id="Oval_Copy_8" data-name="Oval Copy 8" cx="0.381" cy="0.379" rx="0.381" ry="0.379" transform="translate(18.294 0)" fill="#fff"/>
        <ellipse id="Oval_Copy_9" data-name="Oval Copy 9" cx="0.381" cy="0.379" rx="0.381" ry="0.379" transform="translate(27.441 0)" fill="#fff"/>
        <ellipse id="Oval_Copy_35" data-name="Oval Copy 35" cx="0.381" cy="0.379" rx="0.381" ry="0.379" transform="translate(36.588 0)" fill="#fff"/>
        <ellipse id="Oval_Copy_13" data-name="Oval Copy 13" cx="0.381" cy="0.379" rx="0.381" ry="0.379" transform="translate(0 2.429)" fill="#fff"/>
        <ellipse id="Oval_Copy_12" data-name="Oval Copy 12" cx="0.381" cy="0.379" rx="0.381" ry="0.379" transform="translate(9.147 2.429)" fill="#fff"/>
        <ellipse id="Oval_Copy_11" data-name="Oval Copy 11" cx="0.381" cy="0.379" rx="0.381" ry="0.379" transform="translate(18.294 2.429)" fill="#fff"/>
        <ellipse id="Oval_Copy_10" data-name="Oval Copy 10" cx="0.381" cy="0.379" rx="0.381" ry="0.379" transform="translate(27.441 2.429)" fill="#fff"/>
        <ellipse id="Oval_Copy_17" data-name="Oval Copy 17" cx="0.381" cy="0.379" rx="0.381" ry="0.379" transform="translate(0 4.859)" fill="#fff"/>
        <ellipse id="Oval_Copy_16" data-name="Oval Copy 16" cx="0.381" cy="0.379" rx="0.381" ry="0.379" transform="translate(9.147 4.859)" fill="#fff"/>
        <ellipse id="Oval_Copy_15" data-name="Oval Copy 15" cx="0.381" cy="0.379" rx="0.381" ry="0.379" transform="translate(18.294 4.859)" fill="#fff"/>
        <ellipse id="Oval_Copy_14" data-name="Oval Copy 14" cx="0.381" cy="0.379" rx="0.381" ry="0.379" transform="translate(27.441 4.859)" fill="#fff"/>
        <ellipse id="Oval_Copy_21" data-name="Oval Copy 21" cx="0.381" cy="0.379" rx="0.381" ry="0.379" transform="translate(0 7.288)" fill="#fff"/>
        <ellipse id="Oval_Copy_20" data-name="Oval Copy 20" cx="0.381" cy="0.379" rx="0.381" ry="0.379" transform="translate(9.147 7.288)" fill="#fff"/>
        <ellipse id="Oval_Copy_19" data-name="Oval Copy 19" cx="0.381" cy="0.379" rx="0.381" ry="0.379" transform="translate(18.294 7.288)" fill="#fff"/>
        <ellipse id="Oval_Copy_18" data-name="Oval Copy 18" cx="0.381" cy="0.379" rx="0.381" ry="0.379" transform="translate(27.441 7.288)" fill="#fff"/>
        <ellipse id="Oval_Copy_25" data-name="Oval Copy 25" cx="0.381" cy="0.379" rx="0.381" ry="0.379" transform="translate(0 9.717)" fill="#fff"/>
        <ellipse id="Oval_Copy_24" data-name="Oval Copy 24" cx="0.381" cy="0.379" rx="0.381" ry="0.379" transform="translate(9.147 9.717)" fill="#fff"/>
        <ellipse id="Oval_Copy_23" data-name="Oval Copy 23" cx="0.381" cy="0.379" rx="0.381" ry="0.379" transform="translate(18.294 9.717)" fill="#fff"/>
        <ellipse id="Oval_Copy_22" data-name="Oval Copy 22" cx="0.381" cy="0.379" rx="0.381" ry="0.379" transform="translate(27.441 9.717)" fill="#fff"/>
        <ellipse id="Oval_Copy_29" data-name="Oval Copy 29" cx="0.381" cy="0.379" rx="0.381" ry="0.379" transform="translate(0 12.147)" fill="#fff"/>
        <ellipse id="Oval_Copy_28" data-name="Oval Copy 28" cx="0.381" cy="0.379" rx="0.381" ry="0.379" transform="translate(9.147 12.147)" fill="#fff"/>
        <ellipse id="Oval_Copy_27" data-name="Oval Copy 27" cx="0.381" cy="0.379" rx="0.381" ry="0.379" transform="translate(18.294 12.147)" fill="#fff"/>
        <ellipse id="Oval_Copy_26" data-name="Oval Copy 26" cx="0.381" cy="0.379" rx="0.381" ry="0.379" transform="translate(27.441 12.147)" fill="#fff"/>
        <ellipse id="Oval_Copy_34" data-name="Oval Copy 34" cx="0.381" cy="0.379" rx="0.381" ry="0.379" transform="translate(36.588 2.429)" fill="#fff"/>
        <ellipse id="Oval_Copy_33" data-name="Oval Copy 33" cx="0.381" cy="0.379" rx="0.381" ry="0.379" transform="translate(36.588 4.859)" fill="#fff"/>
        <ellipse id="Oval_Copy_32" data-name="Oval Copy 32" cx="0.381" cy="0.379" rx="0.381" ry="0.379" transform="translate(36.588 7.288)" fill="#fff"/>
        <ellipse id="Oval_Copy_31" data-name="Oval Copy 31" cx="0.381" cy="0.379" rx="0.381" ry="0.379" transform="translate(36.588 9.717)" fill="#fff"/>
        <ellipse id="Oval_Copy_30" data-name="Oval Copy 30" cx="0.381" cy="0.379" rx="0.381" ry="0.379" transform="translate(36.588 12.147)" fill="#fff"/>
      </g>
      <g id="dot_copy-2" data-name="dot copy" transform="translate(50.191 0) rotate(90)" opacity="0.12">
        <ellipse id="Oval-2" data-name="Oval" cx="0.381" cy="0.379" rx="0.381" ry="0.379" transform="translate(0 0)" fill="#fff"/>
        <ellipse id="Oval_Copy_7-2" data-name="Oval Copy 7" cx="0.381" cy="0.379" rx="0.381" ry="0.379" transform="translate(9.147 0)" fill="#fff"/>
        <ellipse id="Oval_Copy_8-2" data-name="Oval Copy 8" cx="0.381" cy="0.379" rx="0.381" ry="0.379" transform="translate(18.294 0)" fill="#fff"/>
        <ellipse id="Oval_Copy_9-2" data-name="Oval Copy 9" cx="0.381" cy="0.379" rx="0.381" ry="0.379" transform="translate(27.441 0)" fill="#fff"/>
        <ellipse id="Oval_Copy_35-2" data-name="Oval Copy 35" cx="0.381" cy="0.379" rx="0.381" ry="0.379" transform="translate(36.588 0)" fill="#fff"/>
        <ellipse id="Oval_Copy_13-2" data-name="Oval Copy 13" cx="0.381" cy="0.379" rx="0.381" ry="0.379" transform="translate(0 2.429)" fill="#fff"/>
        <ellipse id="Oval_Copy_12-2" data-name="Oval Copy 12" cx="0.381" cy="0.379" rx="0.381" ry="0.379" transform="translate(9.147 2.429)" fill="#fff"/>
        <ellipse id="Oval_Copy_11-2" data-name="Oval Copy 11" cx="0.381" cy="0.379" rx="0.381" ry="0.379" transform="translate(18.294 2.429)" fill="#fff"/>
        <ellipse id="Oval_Copy_10-2" data-name="Oval Copy 10" cx="0.381" cy="0.379" rx="0.381" ry="0.379" transform="translate(27.441 2.429)" fill="#fff"/>
        <ellipse id="Oval_Copy_17-2" data-name="Oval Copy 17" cx="0.381" cy="0.379" rx="0.381" ry="0.379" transform="translate(0 4.859)" fill="#fff"/>
        <ellipse id="Oval_Copy_16-2" data-name="Oval Copy 16" cx="0.381" cy="0.379" rx="0.381" ry="0.379" transform="translate(9.147 4.859)" fill="#fff"/>
        <ellipse id="Oval_Copy_15-2" data-name="Oval Copy 15" cx="0.381" cy="0.379" rx="0.381" ry="0.379" transform="translate(18.294 4.859)" fill="#fff"/>
        <ellipse id="Oval_Copy_14-2" data-name="Oval Copy 14" cx="0.381" cy="0.379" rx="0.381" ry="0.379" transform="translate(27.441 4.859)" fill="#fff"/>
        <ellipse id="Oval_Copy_21-2" data-name="Oval Copy 21" cx="0.381" cy="0.379" rx="0.381" ry="0.379" transform="translate(0 7.288)" fill="#fff"/>
        <ellipse id="Oval_Copy_20-2" data-name="Oval Copy 20" cx="0.381" cy="0.379" rx="0.381" ry="0.379" transform="translate(9.147 7.288)" fill="#fff"/>
        <ellipse id="Oval_Copy_19-2" data-name="Oval Copy 19" cx="0.381" cy="0.379" rx="0.381" ry="0.379" transform="translate(18.294 7.288)" fill="#fff"/>
        <ellipse id="Oval_Copy_18-2" data-name="Oval Copy 18" cx="0.381" cy="0.379" rx="0.381" ry="0.379" transform="translate(27.441 7.288)" fill="#fff"/>
        <ellipse id="Oval_Copy_25-2" data-name="Oval Copy 25" cx="0.381" cy="0.379" rx="0.381" ry="0.379" transform="translate(0 9.717)" fill="#fff"/>
        <ellipse id="Oval_Copy_24-2" data-name="Oval Copy 24" cx="0.381" cy="0.379" rx="0.381" ry="0.379" transform="translate(9.147 9.717)" fill="#fff"/>
        <ellipse id="Oval_Copy_23-2" data-name="Oval Copy 23" cx="0.381" cy="0.379" rx="0.381" ry="0.379" transform="translate(18.294 9.717)" fill="#fff"/>
        <ellipse id="Oval_Copy_22-2" data-name="Oval Copy 22" cx="0.381" cy="0.379" rx="0.381" ry="0.379" transform="translate(27.441 9.717)" fill="#fff"/>
        <ellipse id="Oval_Copy_29-2" data-name="Oval Copy 29" cx="0.381" cy="0.379" rx="0.381" ry="0.379" transform="translate(0 12.147)" fill="#fff"/>
        <ellipse id="Oval_Copy_28-2" data-name="Oval Copy 28" cx="0.381" cy="0.379" rx="0.381" ry="0.379" transform="translate(9.147 12.147)" fill="#fff"/>
        <ellipse id="Oval_Copy_27-2" data-name="Oval Copy 27" cx="0.381" cy="0.379" rx="0.381" ry="0.379" transform="translate(18.294 12.147)" fill="#fff"/>
        <ellipse id="Oval_Copy_26-2" data-name="Oval Copy 26" cx="0.381" cy="0.379" rx="0.381" ry="0.379" transform="translate(27.441 12.147)" fill="#fff"/>
        <ellipse id="Oval_Copy_34-2" data-name="Oval Copy 34" cx="0.381" cy="0.379" rx="0.381" ry="0.379" transform="translate(36.588 2.429)" fill="#fff"/>
        <ellipse id="Oval_Copy_33-2" data-name="Oval Copy 33" cx="0.381" cy="0.379" rx="0.381" ry="0.379" transform="translate(36.588 4.859)" fill="#fff"/>
        <ellipse id="Oval_Copy_32-2" data-name="Oval Copy 32" cx="0.381" cy="0.379" rx="0.381" ry="0.379" transform="translate(36.588 7.288)" fill="#fff"/>
        <ellipse id="Oval_Copy_31-2" data-name="Oval Copy 31" cx="0.381" cy="0.379" rx="0.381" ry="0.379" transform="translate(36.588 9.717)" fill="#fff"/>
        <ellipse id="Oval_Copy_30-2" data-name="Oval Copy 30" cx="0.381" cy="0.379" rx="0.381" ry="0.379" transform="translate(36.588 12.147)" fill="#fff"/>
      </g>
      <g id="dot_copy-3" data-name="dot copy" transform="translate(50.191 45) rotate(90)" opacity="0.12">
        <ellipse id="Oval-3" data-name="Oval" cx="0.381" cy="0.379" rx="0.381" ry="0.379" transform="translate(0 0)" fill="#fff"/>
        <ellipse id="Oval_Copy_7-3" data-name="Oval Copy 7" cx="0.381" cy="0.379" rx="0.381" ry="0.379" transform="translate(9.147 0)" fill="#fff"/>
        <ellipse id="Oval_Copy_8-3" data-name="Oval Copy 8" cx="0.381" cy="0.379" rx="0.381" ry="0.379" transform="translate(18.294 0)" fill="#fff"/>
        <ellipse id="Oval_Copy_9-3" data-name="Oval Copy 9" cx="0.381" cy="0.379" rx="0.381" ry="0.379" transform="translate(27.441 0)" fill="#fff"/>
        <ellipse id="Oval_Copy_35-3" data-name="Oval Copy 35" cx="0.381" cy="0.379" rx="0.381" ry="0.379" transform="translate(36.588 0)" fill="#fff"/>
        <ellipse id="Oval_Copy_13-3" data-name="Oval Copy 13" cx="0.381" cy="0.379" rx="0.381" ry="0.379" transform="translate(0 2.429)" fill="#fff"/>
        <ellipse id="Oval_Copy_12-3" data-name="Oval Copy 12" cx="0.381" cy="0.379" rx="0.381" ry="0.379" transform="translate(9.147 2.429)" fill="#fff"/>
        <ellipse id="Oval_Copy_11-3" data-name="Oval Copy 11" cx="0.381" cy="0.379" rx="0.381" ry="0.379" transform="translate(18.294 2.429)" fill="#fff"/>
        <ellipse id="Oval_Copy_10-3" data-name="Oval Copy 10" cx="0.381" cy="0.379" rx="0.381" ry="0.379" transform="translate(27.441 2.429)" fill="#fff"/>
        <ellipse id="Oval_Copy_17-3" data-name="Oval Copy 17" cx="0.381" cy="0.379" rx="0.381" ry="0.379" transform="translate(0 4.859)" fill="#fff"/>
        <ellipse id="Oval_Copy_16-3" data-name="Oval Copy 16" cx="0.381" cy="0.379" rx="0.381" ry="0.379" transform="translate(9.147 4.859)" fill="#fff"/>
        <ellipse id="Oval_Copy_15-3" data-name="Oval Copy 15" cx="0.381" cy="0.379" rx="0.381" ry="0.379" transform="translate(18.294 4.859)" fill="#fff"/>
        <ellipse id="Oval_Copy_14-3" data-name="Oval Copy 14" cx="0.381" cy="0.379" rx="0.381" ry="0.379" transform="translate(27.441 4.859)" fill="#fff"/>
        <ellipse id="Oval_Copy_21-3" data-name="Oval Copy 21" cx="0.381" cy="0.379" rx="0.381" ry="0.379" transform="translate(0 7.288)" fill="#fff"/>
        <ellipse id="Oval_Copy_20-3" data-name="Oval Copy 20" cx="0.381" cy="0.379" rx="0.381" ry="0.379" transform="translate(9.147 7.288)" fill="#fff"/>
        <ellipse id="Oval_Copy_19-3" data-name="Oval Copy 19" cx="0.381" cy="0.379" rx="0.381" ry="0.379" transform="translate(18.294 7.288)" fill="#fff"/>
        <ellipse id="Oval_Copy_18-3" data-name="Oval Copy 18" cx="0.381" cy="0.379" rx="0.381" ry="0.379" transform="translate(27.441 7.288)" fill="#fff"/>
        <ellipse id="Oval_Copy_25-3" data-name="Oval Copy 25" cx="0.381" cy="0.379" rx="0.381" ry="0.379" transform="translate(0 9.717)" fill="#fff"/>
        <ellipse id="Oval_Copy_24-3" data-name="Oval Copy 24" cx="0.381" cy="0.379" rx="0.381" ry="0.379" transform="translate(9.147 9.717)" fill="#fff"/>
        <ellipse id="Oval_Copy_23-3" data-name="Oval Copy 23" cx="0.381" cy="0.379" rx="0.381" ry="0.379" transform="translate(18.294 9.717)" fill="#fff"/>
        <ellipse id="Oval_Copy_22-3" data-name="Oval Copy 22" cx="0.381" cy="0.379" rx="0.381" ry="0.379" transform="translate(27.441 9.717)" fill="#fff"/>
        <ellipse id="Oval_Copy_29-3" data-name="Oval Copy 29" cx="0.381" cy="0.379" rx="0.381" ry="0.379" transform="translate(0 12.147)" fill="#fff"/>
        <ellipse id="Oval_Copy_28-3" data-name="Oval Copy 28" cx="0.381" cy="0.379" rx="0.381" ry="0.379" transform="translate(9.147 12.147)" fill="#fff"/>
        <ellipse id="Oval_Copy_27-3" data-name="Oval Copy 27" cx="0.381" cy="0.379" rx="0.381" ry="0.379" transform="translate(18.294 12.147)" fill="#fff"/>
        <ellipse id="Oval_Copy_26-3" data-name="Oval Copy 26" cx="0.381" cy="0.379" rx="0.381" ry="0.379" transform="translate(27.441 12.147)" fill="#fff"/>
        <ellipse id="Oval_Copy_34-3" data-name="Oval Copy 34" cx="0.381" cy="0.379" rx="0.381" ry="0.379" transform="translate(36.588 2.429)" fill="#fff"/>
        <ellipse id="Oval_Copy_33-3" data-name="Oval Copy 33" cx="0.381" cy="0.379" rx="0.381" ry="0.379" transform="translate(36.588 4.859)" fill="#fff"/>
        <ellipse id="Oval_Copy_32-3" data-name="Oval Copy 32" cx="0.381" cy="0.379" rx="0.381" ry="0.379" transform="translate(36.588 7.288)" fill="#fff"/>
        <ellipse id="Oval_Copy_31-3" data-name="Oval Copy 31" cx="0.381" cy="0.379" rx="0.381" ry="0.379" transform="translate(36.588 9.717)" fill="#fff"/>
        <ellipse id="Oval_Copy_30-3" data-name="Oval Copy 30" cx="0.381" cy="0.379" rx="0.381" ry="0.379" transform="translate(36.588 12.147)" fill="#fff"/>
      </g>
    </g>
  </g>
  <g id="Mask_Group_135" data-name="Mask Group 135" transform="translate(-270 -645)" clip-path="url(#clip-path-4)">
    <g id="Group_49677" data-name="Group 49677" transform="translate(288 641)">
      <g id="dot_copy-4" data-name="dot copy" transform="translate(346) rotate(90)" opacity="0.12">
        <ellipse id="Oval-4" data-name="Oval" cx="1.333" cy="1.327" rx="1.333" ry="1.327" transform="translate(0 0)" fill="#fff"/>
        <ellipse id="Oval_Copy_7-4" data-name="Oval Copy 7" cx="1.333" cy="1.327" rx="1.333" ry="1.327" transform="translate(9.147 0)" fill="#fff"/>
        <ellipse id="Oval_Copy_8-4" data-name="Oval Copy 8" cx="1.333" cy="1.327" rx="1.333" ry="1.327" transform="translate(18.294 0)" fill="#fff"/>
        <ellipse id="Oval_Copy_9-4" data-name="Oval Copy 9" cx="1.333" cy="1.327" rx="1.333" ry="1.327" transform="translate(27.441 0)" fill="#fff"/>
        <ellipse id="Oval_Copy_35-4" data-name="Oval Copy 35" cx="1.333" cy="1.327" rx="1.333" ry="1.327" transform="translate(36.588 0)" fill="#fff"/>
        <ellipse id="Oval_Copy_13-4" data-name="Oval Copy 13" cx="1.333" cy="1.327" rx="1.333" ry="1.327" transform="translate(0 8.503)" fill="#fff"/>
        <ellipse id="Oval_Copy_12-4" data-name="Oval Copy 12" cx="1.333" cy="1.327" rx="1.333" ry="1.327" transform="translate(9.147 8.503)" fill="#fff"/>
        <ellipse id="Oval_Copy_11-4" data-name="Oval Copy 11" cx="1.333" cy="1.327" rx="1.333" ry="1.327" transform="translate(18.294 8.503)" fill="#fff"/>
        <ellipse id="Oval_Copy_10-4" data-name="Oval Copy 10" cx="1.333" cy="1.327" rx="1.333" ry="1.327" transform="translate(27.441 8.503)" fill="#fff"/>
        <ellipse id="Oval_Copy_17-4" data-name="Oval Copy 17" cx="1.333" cy="1.327" rx="1.333" ry="1.327" transform="translate(0 17.005)" fill="#fff"/>
        <ellipse id="Oval_Copy_16-4" data-name="Oval Copy 16" cx="1.333" cy="1.327" rx="1.333" ry="1.327" transform="translate(9.147 17.005)" fill="#fff"/>
        <ellipse id="Oval_Copy_15-4" data-name="Oval Copy 15" cx="1.333" cy="1.327" rx="1.333" ry="1.327" transform="translate(18.294 17.005)" fill="#fff"/>
        <ellipse id="Oval_Copy_14-4" data-name="Oval Copy 14" cx="1.333" cy="1.327" rx="1.333" ry="1.327" transform="translate(27.441 17.005)" fill="#fff"/>
        <ellipse id="Oval_Copy_21-4" data-name="Oval Copy 21" cx="1.333" cy="1.327" rx="1.333" ry="1.327" transform="translate(0 25.508)" fill="#fff"/>
        <ellipse id="Oval_Copy_20-4" data-name="Oval Copy 20" cx="1.333" cy="1.327" rx="1.333" ry="1.327" transform="translate(9.147 25.508)" fill="#fff"/>
        <ellipse id="Oval_Copy_19-4" data-name="Oval Copy 19" cx="1.333" cy="1.327" rx="1.333" ry="1.327" transform="translate(18.294 25.508)" fill="#fff"/>
        <ellipse id="Oval_Copy_18-4" data-name="Oval Copy 18" cx="1.333" cy="1.327" rx="1.333" ry="1.327" transform="translate(27.441 25.508)" fill="#fff"/>
        <ellipse id="Oval_Copy_25-4" data-name="Oval Copy 25" cx="1.333" cy="1.327" rx="1.333" ry="1.327" transform="translate(0 34.011)" fill="#fff"/>
        <ellipse id="Oval_Copy_24-4" data-name="Oval Copy 24" cx="1.333" cy="1.327" rx="1.333" ry="1.327" transform="translate(9.147 34.011)" fill="#fff"/>
        <ellipse id="Oval_Copy_23-4" data-name="Oval Copy 23" cx="1.333" cy="1.327" rx="1.333" ry="1.327" transform="translate(18.294 34.011)" fill="#fff"/>
        <ellipse id="Oval_Copy_22-4" data-name="Oval Copy 22" cx="1.333" cy="1.327" rx="1.333" ry="1.327" transform="translate(27.441 34.011)" fill="#fff"/>
        <ellipse id="Oval_Copy_29-4" data-name="Oval Copy 29" cx="1.333" cy="1.327" rx="1.333" ry="1.327" transform="translate(0 42.514)" fill="#fff"/>
        <ellipse id="Oval_Copy_28-4" data-name="Oval Copy 28" cx="1.333" cy="1.327" rx="1.333" ry="1.327" transform="translate(9.147 42.514)" fill="#fff"/>
        <ellipse id="Oval_Copy_27-4" data-name="Oval Copy 27" cx="1.333" cy="1.327" rx="1.333" ry="1.327" transform="translate(18.294 42.514)" fill="#fff"/>
        <ellipse id="Oval_Copy_26-4" data-name="Oval Copy 26" cx="1.333" cy="1.327" rx="1.333" ry="1.327" transform="translate(27.441 42.514)" fill="#fff"/>
        <ellipse id="Oval_Copy_34-4" data-name="Oval Copy 34" cx="1.333" cy="1.327" rx="1.333" ry="1.327" transform="translate(36.588 8.503)" fill="#fff"/>
        <ellipse id="Oval_Copy_33-4" data-name="Oval Copy 33" cx="1.333" cy="1.327" rx="1.333" ry="1.327" transform="translate(36.588 17.005)" fill="#fff"/>
        <ellipse id="Oval_Copy_32-4" data-name="Oval Copy 32" cx="1.333" cy="1.327" rx="1.333" ry="1.327" transform="translate(36.588 25.508)" fill="#fff"/>
        <ellipse id="Oval_Copy_31-4" data-name="Oval Copy 31" cx="1.333" cy="1.327" rx="1.333" ry="1.327" transform="translate(36.588 34.011)" fill="#fff"/>
        <ellipse id="Oval_Copy_30-4" data-name="Oval Copy 30" cx="1.333" cy="1.327" rx="1.333" ry="1.327" transform="translate(36.588 42.514)" fill="#fff"/>
      </g>
      <g id="dot_copy-5" data-name="dot copy" transform="translate(346 45) rotate(90)" opacity="0.12">
        <ellipse id="Oval-5" data-name="Oval" cx="1.333" cy="1.327" rx="1.333" ry="1.327" transform="translate(0 0)" fill="#fff"/>
        <ellipse id="Oval_Copy_7-5" data-name="Oval Copy 7" cx="1.333" cy="1.327" rx="1.333" ry="1.327" transform="translate(9.147 0)" fill="#fff"/>
        <ellipse id="Oval_Copy_8-5" data-name="Oval Copy 8" cx="1.333" cy="1.327" rx="1.333" ry="1.327" transform="translate(18.294 0)" fill="#fff"/>
        <ellipse id="Oval_Copy_9-5" data-name="Oval Copy 9" cx="1.333" cy="1.327" rx="1.333" ry="1.327" transform="translate(27.441 0)" fill="#fff"/>
        <ellipse id="Oval_Copy_35-5" data-name="Oval Copy 35" cx="1.333" cy="1.327" rx="1.333" ry="1.327" transform="translate(36.588 0)" fill="#fff"/>
        <ellipse id="Oval_Copy_13-5" data-name="Oval Copy 13" cx="1.333" cy="1.327" rx="1.333" ry="1.327" transform="translate(0 8.503)" fill="#fff"/>
        <ellipse id="Oval_Copy_12-5" data-name="Oval Copy 12" cx="1.333" cy="1.327" rx="1.333" ry="1.327" transform="translate(9.147 8.503)" fill="#fff"/>
        <ellipse id="Oval_Copy_11-5" data-name="Oval Copy 11" cx="1.333" cy="1.327" rx="1.333" ry="1.327" transform="translate(18.294 8.503)" fill="#fff"/>
        <ellipse id="Oval_Copy_10-5" data-name="Oval Copy 10" cx="1.333" cy="1.327" rx="1.333" ry="1.327" transform="translate(27.441 8.503)" fill="#fff"/>
        <ellipse id="Oval_Copy_17-5" data-name="Oval Copy 17" cx="1.333" cy="1.327" rx="1.333" ry="1.327" transform="translate(0 17.005)" fill="#fff"/>
        <ellipse id="Oval_Copy_16-5" data-name="Oval Copy 16" cx="1.333" cy="1.327" rx="1.333" ry="1.327" transform="translate(9.147 17.005)" fill="#fff"/>
        <ellipse id="Oval_Copy_15-5" data-name="Oval Copy 15" cx="1.333" cy="1.327" rx="1.333" ry="1.327" transform="translate(18.294 17.005)" fill="#fff"/>
        <ellipse id="Oval_Copy_14-5" data-name="Oval Copy 14" cx="1.333" cy="1.327" rx="1.333" ry="1.327" transform="translate(27.441 17.005)" fill="#fff"/>
        <ellipse id="Oval_Copy_21-5" data-name="Oval Copy 21" cx="1.333" cy="1.327" rx="1.333" ry="1.327" transform="translate(0 25.508)" fill="#fff"/>
        <ellipse id="Oval_Copy_20-5" data-name="Oval Copy 20" cx="1.333" cy="1.327" rx="1.333" ry="1.327" transform="translate(9.147 25.508)" fill="#fff"/>
        <ellipse id="Oval_Copy_19-5" data-name="Oval Copy 19" cx="1.333" cy="1.327" rx="1.333" ry="1.327" transform="translate(18.294 25.508)" fill="#fff"/>
        <ellipse id="Oval_Copy_18-5" data-name="Oval Copy 18" cx="1.333" cy="1.327" rx="1.333" ry="1.327" transform="translate(27.441 25.508)" fill="#fff"/>
        <ellipse id="Oval_Copy_25-5" data-name="Oval Copy 25" cx="1.333" cy="1.327" rx="1.333" ry="1.327" transform="translate(0 34.011)" fill="#fff"/>
        <ellipse id="Oval_Copy_24-5" data-name="Oval Copy 24" cx="1.333" cy="1.327" rx="1.333" ry="1.327" transform="translate(9.147 34.011)" fill="#fff"/>
        <ellipse id="Oval_Copy_23-5" data-name="Oval Copy 23" cx="1.333" cy="1.327" rx="1.333" ry="1.327" transform="translate(18.294 34.011)" fill="#fff"/>
        <ellipse id="Oval_Copy_22-5" data-name="Oval Copy 22" cx="1.333" cy="1.327" rx="1.333" ry="1.327" transform="translate(27.441 34.011)" fill="#fff"/>
        <ellipse id="Oval_Copy_29-5" data-name="Oval Copy 29" cx="1.333" cy="1.327" rx="1.333" ry="1.327" transform="translate(0 42.514)" fill="#fff"/>
        <ellipse id="Oval_Copy_28-5" data-name="Oval Copy 28" cx="1.333" cy="1.327" rx="1.333" ry="1.327" transform="translate(9.147 42.514)" fill="#fff"/>
        <ellipse id="Oval_Copy_27-5" data-name="Oval Copy 27" cx="1.333" cy="1.327" rx="1.333" ry="1.327" transform="translate(18.294 42.514)" fill="#fff"/>
        <ellipse id="Oval_Copy_26-5" data-name="Oval Copy 26" cx="1.333" cy="1.327" rx="1.333" ry="1.327" transform="translate(27.441 42.514)" fill="#fff"/>
        <ellipse id="Oval_Copy_34-5" data-name="Oval Copy 34" cx="1.333" cy="1.327" rx="1.333" ry="1.327" transform="translate(36.588 8.503)" fill="#fff"/>
        <ellipse id="Oval_Copy_33-5" data-name="Oval Copy 33" cx="1.333" cy="1.327" rx="1.333" ry="1.327" transform="translate(36.588 17.005)" fill="#fff"/>
        <ellipse id="Oval_Copy_32-5" data-name="Oval Copy 32" cx="1.333" cy="1.327" rx="1.333" ry="1.327" transform="translate(36.588 25.508)" fill="#fff"/>
        <ellipse id="Oval_Copy_31-5" data-name="Oval Copy 31" cx="1.333" cy="1.327" rx="1.333" ry="1.327" transform="translate(36.588 34.011)" fill="#fff"/>
        <ellipse id="Oval_Copy_30-5" data-name="Oval Copy 30" cx="1.333" cy="1.327" rx="1.333" ry="1.327" transform="translate(36.588 42.514)" fill="#fff"/>
      </g>
    </g>
    <g id="Group_49678" data-name="Group 49678" transform="translate(-40.833 773.745)">
      <g id="dot_copy-6" data-name="dot copy" transform="translate(346) rotate(90)" opacity="0.12">
        <ellipse id="Oval-6" data-name="Oval" cx="1.333" cy="1.327" rx="1.333" ry="1.327" transform="translate(0 0)" fill="#fff"/>
        <ellipse id="Oval_Copy_7-6" data-name="Oval Copy 7" cx="1.333" cy="1.327" rx="1.333" ry="1.327" transform="translate(9.147 0)" fill="#fff"/>
        <ellipse id="Oval_Copy_8-6" data-name="Oval Copy 8" cx="1.333" cy="1.327" rx="1.333" ry="1.327" transform="translate(18.294 0)" fill="#fff"/>
        <ellipse id="Oval_Copy_9-6" data-name="Oval Copy 9" cx="1.333" cy="1.327" rx="1.333" ry="1.327" transform="translate(27.441 0)" fill="#fff"/>
        <ellipse id="Oval_Copy_35-6" data-name="Oval Copy 35" cx="1.333" cy="1.327" rx="1.333" ry="1.327" transform="translate(36.588 0)" fill="#fff"/>
        <ellipse id="Oval_Copy_13-6" data-name="Oval Copy 13" cx="1.333" cy="1.327" rx="1.333" ry="1.327" transform="translate(0 8.503)" fill="#fff"/>
        <ellipse id="Oval_Copy_12-6" data-name="Oval Copy 12" cx="1.333" cy="1.327" rx="1.333" ry="1.327" transform="translate(9.147 8.503)" fill="#fff"/>
        <ellipse id="Oval_Copy_11-6" data-name="Oval Copy 11" cx="1.333" cy="1.327" rx="1.333" ry="1.327" transform="translate(18.294 8.503)" fill="#fff"/>
        <ellipse id="Oval_Copy_10-6" data-name="Oval Copy 10" cx="1.333" cy="1.327" rx="1.333" ry="1.327" transform="translate(27.441 8.503)" fill="#fff"/>
        <ellipse id="Oval_Copy_17-6" data-name="Oval Copy 17" cx="1.333" cy="1.327" rx="1.333" ry="1.327" transform="translate(0 17.005)" fill="#fff"/>
        <ellipse id="Oval_Copy_16-6" data-name="Oval Copy 16" cx="1.333" cy="1.327" rx="1.333" ry="1.327" transform="translate(9.147 17.005)" fill="#fff"/>
        <ellipse id="Oval_Copy_15-6" data-name="Oval Copy 15" cx="1.333" cy="1.327" rx="1.333" ry="1.327" transform="translate(18.294 17.005)" fill="#fff"/>
        <ellipse id="Oval_Copy_14-6" data-name="Oval Copy 14" cx="1.333" cy="1.327" rx="1.333" ry="1.327" transform="translate(27.441 17.005)" fill="#fff"/>
        <ellipse id="Oval_Copy_21-6" data-name="Oval Copy 21" cx="1.333" cy="1.327" rx="1.333" ry="1.327" transform="translate(0 25.508)" fill="#fff"/>
        <ellipse id="Oval_Copy_20-6" data-name="Oval Copy 20" cx="1.333" cy="1.327" rx="1.333" ry="1.327" transform="translate(9.147 25.508)" fill="#fff"/>
        <ellipse id="Oval_Copy_19-6" data-name="Oval Copy 19" cx="1.333" cy="1.327" rx="1.333" ry="1.327" transform="translate(18.294 25.508)" fill="#fff"/>
        <ellipse id="Oval_Copy_18-6" data-name="Oval Copy 18" cx="1.333" cy="1.327" rx="1.333" ry="1.327" transform="translate(27.441 25.508)" fill="#fff"/>
        <ellipse id="Oval_Copy_25-6" data-name="Oval Copy 25" cx="1.333" cy="1.327" rx="1.333" ry="1.327" transform="translate(0 34.011)" fill="#fff"/>
        <ellipse id="Oval_Copy_24-6" data-name="Oval Copy 24" cx="1.333" cy="1.327" rx="1.333" ry="1.327" transform="translate(9.147 34.011)" fill="#fff"/>
        <ellipse id="Oval_Copy_23-6" data-name="Oval Copy 23" cx="1.333" cy="1.327" rx="1.333" ry="1.327" transform="translate(18.294 34.011)" fill="#fff"/>
        <ellipse id="Oval_Copy_22-6" data-name="Oval Copy 22" cx="1.333" cy="1.327" rx="1.333" ry="1.327" transform="translate(27.441 34.011)" fill="#fff"/>
        <ellipse id="Oval_Copy_29-6" data-name="Oval Copy 29" cx="1.333" cy="1.327" rx="1.333" ry="1.327" transform="translate(0 42.514)" fill="#fff"/>
        <ellipse id="Oval_Copy_28-6" data-name="Oval Copy 28" cx="1.333" cy="1.327" rx="1.333" ry="1.327" transform="translate(9.147 42.514)" fill="#fff"/>
        <ellipse id="Oval_Copy_27-6" data-name="Oval Copy 27" cx="1.333" cy="1.327" rx="1.333" ry="1.327" transform="translate(18.294 42.514)" fill="#fff"/>
        <ellipse id="Oval_Copy_26-6" data-name="Oval Copy 26" cx="1.333" cy="1.327" rx="1.333" ry="1.327" transform="translate(27.441 42.514)" fill="#fff"/>
        <ellipse id="Oval_Copy_34-6" data-name="Oval Copy 34" cx="1.333" cy="1.327" rx="1.333" ry="1.327" transform="translate(36.588 8.503)" fill="#fff"/>
        <ellipse id="Oval_Copy_33-6" data-name="Oval Copy 33" cx="1.333" cy="1.327" rx="1.333" ry="1.327" transform="translate(36.588 17.005)" fill="#fff"/>
        <ellipse id="Oval_Copy_32-6" data-name="Oval Copy 32" cx="1.333" cy="1.327" rx="1.333" ry="1.327" transform="translate(36.588 25.508)" fill="#fff"/>
        <ellipse id="Oval_Copy_31-6" data-name="Oval Copy 31" cx="1.333" cy="1.327" rx="1.333" ry="1.327" transform="translate(36.588 34.011)" fill="#fff"/>
        <ellipse id="Oval_Copy_30-6" data-name="Oval Copy 30" cx="1.333" cy="1.327" rx="1.333" ry="1.327" transform="translate(36.588 42.514)" fill="#fff"/>
      </g>
      <g id="dot_copy-7" data-name="dot copy" transform="translate(346 45) rotate(90)" opacity="0.12">
        <ellipse id="Oval-7" data-name="Oval" cx="1.333" cy="1.327" rx="1.333" ry="1.327" transform="translate(0 0)" fill="#fff"/>
        <ellipse id="Oval_Copy_7-7" data-name="Oval Copy 7" cx="1.333" cy="1.327" rx="1.333" ry="1.327" transform="translate(9.147 0)" fill="#fff"/>
        <ellipse id="Oval_Copy_8-7" data-name="Oval Copy 8" cx="1.333" cy="1.327" rx="1.333" ry="1.327" transform="translate(18.294 0)" fill="#fff"/>
        <ellipse id="Oval_Copy_9-7" data-name="Oval Copy 9" cx="1.333" cy="1.327" rx="1.333" ry="1.327" transform="translate(27.441 0)" fill="#fff"/>
        <ellipse id="Oval_Copy_35-7" data-name="Oval Copy 35" cx="1.333" cy="1.327" rx="1.333" ry="1.327" transform="translate(36.588 0)" fill="#fff"/>
        <ellipse id="Oval_Copy_13-7" data-name="Oval Copy 13" cx="1.333" cy="1.327" rx="1.333" ry="1.327" transform="translate(0 8.503)" fill="#fff"/>
        <ellipse id="Oval_Copy_12-7" data-name="Oval Copy 12" cx="1.333" cy="1.327" rx="1.333" ry="1.327" transform="translate(9.147 8.503)" fill="#fff"/>
        <ellipse id="Oval_Copy_11-7" data-name="Oval Copy 11" cx="1.333" cy="1.327" rx="1.333" ry="1.327" transform="translate(18.294 8.503)" fill="#fff"/>
        <ellipse id="Oval_Copy_10-7" data-name="Oval Copy 10" cx="1.333" cy="1.327" rx="1.333" ry="1.327" transform="translate(27.441 8.503)" fill="#fff"/>
        <ellipse id="Oval_Copy_17-7" data-name="Oval Copy 17" cx="1.333" cy="1.327" rx="1.333" ry="1.327" transform="translate(0 17.005)" fill="#fff"/>
        <ellipse id="Oval_Copy_16-7" data-name="Oval Copy 16" cx="1.333" cy="1.327" rx="1.333" ry="1.327" transform="translate(9.147 17.005)" fill="#fff"/>
        <ellipse id="Oval_Copy_15-7" data-name="Oval Copy 15" cx="1.333" cy="1.327" rx="1.333" ry="1.327" transform="translate(18.294 17.005)" fill="#fff"/>
        <ellipse id="Oval_Copy_14-7" data-name="Oval Copy 14" cx="1.333" cy="1.327" rx="1.333" ry="1.327" transform="translate(27.441 17.005)" fill="#fff"/>
        <ellipse id="Oval_Copy_21-7" data-name="Oval Copy 21" cx="1.333" cy="1.327" rx="1.333" ry="1.327" transform="translate(0 25.508)" fill="#fff"/>
        <ellipse id="Oval_Copy_20-7" data-name="Oval Copy 20" cx="1.333" cy="1.327" rx="1.333" ry="1.327" transform="translate(9.147 25.508)" fill="#fff"/>
        <ellipse id="Oval_Copy_19-7" data-name="Oval Copy 19" cx="1.333" cy="1.327" rx="1.333" ry="1.327" transform="translate(18.294 25.508)" fill="#fff"/>
        <ellipse id="Oval_Copy_18-7" data-name="Oval Copy 18" cx="1.333" cy="1.327" rx="1.333" ry="1.327" transform="translate(27.441 25.508)" fill="#fff"/>
        <ellipse id="Oval_Copy_25-7" data-name="Oval Copy 25" cx="1.333" cy="1.327" rx="1.333" ry="1.327" transform="translate(0 34.011)" fill="#fff"/>
        <ellipse id="Oval_Copy_24-7" data-name="Oval Copy 24" cx="1.333" cy="1.327" rx="1.333" ry="1.327" transform="translate(9.147 34.011)" fill="#fff"/>
        <ellipse id="Oval_Copy_23-7" data-name="Oval Copy 23" cx="1.333" cy="1.327" rx="1.333" ry="1.327" transform="translate(18.294 34.011)" fill="#fff"/>
        <ellipse id="Oval_Copy_22-7" data-name="Oval Copy 22" cx="1.333" cy="1.327" rx="1.333" ry="1.327" transform="translate(27.441 34.011)" fill="#fff"/>
        <ellipse id="Oval_Copy_29-7" data-name="Oval Copy 29" cx="1.333" cy="1.327" rx="1.333" ry="1.327" transform="translate(0 42.514)" fill="#fff"/>
        <ellipse id="Oval_Copy_28-7" data-name="Oval Copy 28" cx="1.333" cy="1.327" rx="1.333" ry="1.327" transform="translate(9.147 42.514)" fill="#fff"/>
        <ellipse id="Oval_Copy_27-7" data-name="Oval Copy 27" cx="1.333" cy="1.327" rx="1.333" ry="1.327" transform="translate(18.294 42.514)" fill="#fff"/>
        <ellipse id="Oval_Copy_26-7" data-name="Oval Copy 26" cx="1.333" cy="1.327" rx="1.333" ry="1.327" transform="translate(27.441 42.514)" fill="#fff"/>
        <ellipse id="Oval_Copy_34-7" data-name="Oval Copy 34" cx="1.333" cy="1.327" rx="1.333" ry="1.327" transform="translate(36.588 8.503)" fill="#fff"/>
        <ellipse id="Oval_Copy_33-7" data-name="Oval Copy 33" cx="1.333" cy="1.327" rx="1.333" ry="1.327" transform="translate(36.588 17.005)" fill="#fff"/>
        <ellipse id="Oval_Copy_32-7" data-name="Oval Copy 32" cx="1.333" cy="1.327" rx="1.333" ry="1.327" transform="translate(36.588 25.508)" fill="#fff"/>
        <ellipse id="Oval_Copy_31-7" data-name="Oval Copy 31" cx="1.333" cy="1.327" rx="1.333" ry="1.327" transform="translate(36.588 34.011)" fill="#fff"/>
        <ellipse id="Oval_Copy_30-7" data-name="Oval Copy 30" cx="1.333" cy="1.327" rx="1.333" ry="1.327" transform="translate(36.588 42.514)" fill="#fff"/>
      </g>
    </g>
  </g>
</svg>
