<svg id="bg" xmlns="http://www.w3.org/2000/svg" xmlns:xlink="http://www.w3.org/1999/xlink" width="354" height="275" viewBox="0 0 354 275">
  <defs>
    <linearGradient id="linear-gradient" x1="-0.678" y1="-0.783" x2="1" y2="1.019" gradientUnits="objectBoundingBox">
      <stop offset="0" stop-color="#ecf0f5"/>
      <stop offset="1" stop-color="#fff"/>
    </linearGradient>
    <filter id="background-color" x="-30" y="172" width="414" height="71" filterUnits="userSpaceOnUse">
      <feOffset dy="4" input="SourceAlpha"/>
      <feGaussianBlur stdDeviation="10" result="blur"/>
      <feFlood flood-opacity="0.161"/>
      <feComposite operator="in" in2="blur"/>
      <feComposite in="SourceGraphic"/>
    </filter>
    <filter id="background-color-2" x="-30" y="-26" width="414" height="335" filterUnits="userSpaceOnUse">
      <feOffset dy="4" input="SourceAlpha"/>
      <feGaussianBlur stdDeviation="10" result="blur-2"/>
      <feFlood flood-opacity="0.161"/>
      <feComposite operator="in" in2="blur-2"/>
      <feComposite in="SourceGraphic"/>
    </filter>
    <linearGradient id="linear-gradient-3" x1="0.175" y1="0.5" x2="0.878" y2="0.5" gradientUnits="objectBoundingBox">
      <stop offset="0" stop-color="#3c80f7"/>
      <stop offset="1" stop-color="#1058d1"/>
    </linearGradient>
    <linearGradient id="linear-gradient-4" x1="1" y1="1" x2="0" y2="-0.559" gradientUnits="objectBoundingBox">
      <stop offset="0" stop-color="#43b978" stop-opacity="0.102"/>
      <stop offset="1" stop-color="#fff" stop-opacity="0.102"/>
    </linearGradient>
    <clipPath id="clip-path">
      <g transform="matrix(1, 0, 0, 1, 0, 0)" filter="url(#background-color-2)">
        <rect id="background-color-3" data-name="background-color" width="354" height="275" rx="8" fill="url(#linear-gradient)"/>
      </g>
    </clipPath>
    <clipPath id="clip-path-2">
      <g transform="matrix(1, 0, 0, 1, 0, 0)" filter="url(#background-color)">
        <path id="background-color-4" data-name="background-color" d="M0,0H354a0,0,0,0,1,0,0V3a8,8,0,0,1-8,8H8A8,8,0,0,1,0,3V0A0,0,0,0,1,0,0Z" transform="translate(0 198)" fill="url(#linear-gradient)"/>
      </g>
    </clipPath>
    <clipPath id="clip-path-3">
      <rect id="background-color-5" data-name="background-color" width="46" height="160" rx="8" fill="url(#linear-gradient-3)"/>
    </clipPath>
  </defs>
  <rect id="background-color-6" data-name="background-color" width="354" height="209" rx="8" fill="#fff"/>
  <rect id="background-color-7" data-name="background-color" width="354" height="209" rx="8" fill="url(#linear-gradient-4)"/>
  <g id="Mask_Group_136" data-name="Mask Group 136" clip-path="url(#clip-path)">
    <g id="bottom_bar_style" clip-path="url(#clip-path-2)">
      <path id="background-color-8" data-name="background-color" d="M4,0H4A0,0,0,0,1,4,0V354a0,0,0,0,1,0,0H4a4,4,0,0,1-4-4V4A4,4,0,0,1,4,0Z" transform="translate(0 209) rotate(-90)" fill="#3e7eff" opacity="0.2"/>
    </g>
    <g id="Group_50160" data-name="Group 50160" transform="translate(63.819 187.781)">
      <g id="Group_50159" data-name="Group 50159" transform="translate(-37.34 -52.64)">
        <g id="Layer_1" transform="translate(5.495 32.391)">
          <path id="Path_128755" data-name="Path 128755" d="M1.052-18.48-32.02.607,1.052,19.695,34.125.607Z" transform="translate(32.02 18.48)" fill="#ebecff" stroke="#000" stroke-width="0.02"/>
        </g>
        <g id="Layer_1-2" data-name="Layer_1" transform="translate(5.495 70.565)">
          <path id="Path_128756" data-name="Path 128756" d="M1.052-18.49-32.02.618,1.052,19.705,34.125.618Z" transform="translate(32.02 18.49)" fill="#7375a8" stroke="#000" stroke-width="0.02"/>
        </g>
        <g id="Layer_1-3" data-name="Layer_1" transform="translate(38.567 51.478)">
          <path id="Path_128757" data-name="Path 128757" d="M17.062-27.73v38.2L-16.01,29.553v-38.2Z" transform="translate(16.01 27.73)" fill="#2e50a5" stroke="#000" stroke-width="0.02"/>
        </g>
        <g id="Layer_1-4" data-name="Layer_1" transform="translate(5.495 51.478)">
          <path id="Path_128758" data-name="Path 128758" d="M-16.01-27.73v38.2L17.062,29.553v-38.2Z" transform="translate(16.01 27.73)" fill="#4985fe" stroke="#000" stroke-width="0.02"/>
        </g>
        <g id="Layer_1-5" data-name="Layer_1" transform="translate(38.567 51.478)">
          <path id="Path_128759" data-name="Path 128759" d="M14.4-19.21,19.9,1.385-13.175,20.473-18.67-.123Z" transform="translate(18.67 19.21)" fill="#d0e8fe" stroke="#000" stroke-width="0.02"/>
        </g>
        <g id="Layer_1-6" data-name="Layer_1" transform="translate(0 51.478)">
          <path id="Path_128760" data-name="Path 128760" d="M-13.175-19.21l-5.495,20.6L14.4,20.473,19.9-.123Z" transform="translate(18.67 19.21)" fill="#d0e8fe" stroke="#000" stroke-width="0.02"/>
        </g>
        <g id="Layer_1-7" data-name="Layer_1" transform="translate(28.858 41.046)">
          <path id="Path_128761" data-name="Path 128761" d="M100.309,92.7c-5.371,0-9.709-2.52-9.709-5.6v7.168c0,3.1,4.338,5.6,9.709,5.6s9.709-2.52,9.709-5.6V87.1C110.018,90.178,105.68,92.7,100.309,92.7Z" transform="translate(-90.6 -87.1)" fill="#5c009f" stroke="#000" stroke-width="0.02"/>
        </g>
        <g id="Layer_1-8" data-name="Layer_1" transform="translate(28.858 35.448)">
          <path id="Path_128762" data-name="Path 128762" d="M100.309,92.876c5.371,0,9.709-2.52,9.709-5.6,0-3.1-4.338-5.6-9.709-5.6S90.6,84.2,90.6,87.278h0C90.6,90.356,94.938,92.876,100.309,92.876Z" transform="translate(-90.6 -81.68)" fill="#a46cfe" stroke="#000" stroke-width="0.02"/>
        </g>
        <g id="Layer_1-9" data-name="Layer_1" transform="translate(18.592)">
          <path id="Path_128763" data-name="Path 128763" d="M120.611,67.336A19.976,19.976,0,1,0,90.472,84.543h0c1.591,1.054,2.334,3.863,2.334,3.863,0,2.5,3.512,4.524,7.829,4.524,4.338,0,7.829-2.024,7.829-4.524,0,0,.723-2.809,2.334-3.863h0A19.975,19.975,0,0,0,120.611,67.336Z" transform="translate(-80.66 -47.36)" fill="#ffe54d" stroke="#000" stroke-width="0.02"/>
        </g>
      </g>
    </g>
  </g>
  <g id="bg-2" data-name="bg" clip-path="url(#clip-path-3)">
    <g id="dot" transform="translate(-1.048 -21)">
      <g id="dot_copy" data-name="dot copy" transform="translate(12.905 156) rotate(90)" opacity="0.12">
        <ellipse id="Oval" cx="0.381" cy="0.379" rx="0.381" ry="0.379" transform="translate(0 0)" fill="#fff"/>
        <ellipse id="Oval_Copy_7" data-name="Oval Copy 7" cx="0.381" cy="0.379" rx="0.381" ry="0.379" transform="translate(9.147 0)" fill="#fff"/>
        <ellipse id="Oval_Copy_8" data-name="Oval Copy 8" cx="0.381" cy="0.379" rx="0.381" ry="0.379" transform="translate(18.294 0)" fill="#fff"/>
        <ellipse id="Oval_Copy_9" data-name="Oval Copy 9" cx="0.381" cy="0.379" rx="0.381" ry="0.379" transform="translate(27.441 0)" fill="#fff"/>
        <ellipse id="Oval_Copy_35" data-name="Oval Copy 35" cx="0.381" cy="0.379" rx="0.381" ry="0.379" transform="translate(36.588 0)" fill="#fff"/>
        <ellipse id="Oval_Copy_13" data-name="Oval Copy 13" cx="0.381" cy="0.379" rx="0.381" ry="0.379" transform="translate(0 2.429)" fill="#fff"/>
        <ellipse id="Oval_Copy_12" data-name="Oval Copy 12" cx="0.381" cy="0.379" rx="0.381" ry="0.379" transform="translate(9.147 2.429)" fill="#fff"/>
        <ellipse id="Oval_Copy_11" data-name="Oval Copy 11" cx="0.381" cy="0.379" rx="0.381" ry="0.379" transform="translate(18.294 2.429)" fill="#fff"/>
        <ellipse id="Oval_Copy_10" data-name="Oval Copy 10" cx="0.381" cy="0.379" rx="0.381" ry="0.379" transform="translate(27.441 2.429)" fill="#fff"/>
        <ellipse id="Oval_Copy_17" data-name="Oval Copy 17" cx="0.381" cy="0.379" rx="0.381" ry="0.379" transform="translate(0 4.859)" fill="#fff"/>
        <ellipse id="Oval_Copy_16" data-name="Oval Copy 16" cx="0.381" cy="0.379" rx="0.381" ry="0.379" transform="translate(9.147 4.859)" fill="#fff"/>
        <ellipse id="Oval_Copy_15" data-name="Oval Copy 15" cx="0.381" cy="0.379" rx="0.381" ry="0.379" transform="translate(18.294 4.859)" fill="#fff"/>
        <ellipse id="Oval_Copy_14" data-name="Oval Copy 14" cx="0.381" cy="0.379" rx="0.381" ry="0.379" transform="translate(27.441 4.859)" fill="#fff"/>
        <ellipse id="Oval_Copy_21" data-name="Oval Copy 21" cx="0.381" cy="0.379" rx="0.381" ry="0.379" transform="translate(0 7.288)" fill="#fff"/>
        <ellipse id="Oval_Copy_20" data-name="Oval Copy 20" cx="0.381" cy="0.379" rx="0.381" ry="0.379" transform="translate(9.147 7.288)" fill="#fff"/>
        <ellipse id="Oval_Copy_19" data-name="Oval Copy 19" cx="0.381" cy="0.379" rx="0.381" ry="0.379" transform="translate(18.294 7.288)" fill="#fff"/>
        <ellipse id="Oval_Copy_18" data-name="Oval Copy 18" cx="0.381" cy="0.379" rx="0.381" ry="0.379" transform="translate(27.441 7.288)" fill="#fff"/>
        <ellipse id="Oval_Copy_25" data-name="Oval Copy 25" cx="0.381" cy="0.379" rx="0.381" ry="0.379" transform="translate(0 9.717)" fill="#fff"/>
        <ellipse id="Oval_Copy_24" data-name="Oval Copy 24" cx="0.381" cy="0.379" rx="0.381" ry="0.379" transform="translate(9.147 9.717)" fill="#fff"/>
        <ellipse id="Oval_Copy_23" data-name="Oval Copy 23" cx="0.381" cy="0.379" rx="0.381" ry="0.379" transform="translate(18.294 9.717)" fill="#fff"/>
        <ellipse id="Oval_Copy_22" data-name="Oval Copy 22" cx="0.381" cy="0.379" rx="0.381" ry="0.379" transform="translate(27.441 9.717)" fill="#fff"/>
        <ellipse id="Oval_Copy_29" data-name="Oval Copy 29" cx="0.381" cy="0.379" rx="0.381" ry="0.379" transform="translate(0 12.147)" fill="#fff"/>
        <ellipse id="Oval_Copy_28" data-name="Oval Copy 28" cx="0.381" cy="0.379" rx="0.381" ry="0.379" transform="translate(9.147 12.147)" fill="#fff"/>
        <ellipse id="Oval_Copy_27" data-name="Oval Copy 27" cx="0.381" cy="0.379" rx="0.381" ry="0.379" transform="translate(18.294 12.147)" fill="#fff"/>
        <ellipse id="Oval_Copy_26" data-name="Oval Copy 26" cx="0.381" cy="0.379" rx="0.381" ry="0.379" transform="translate(27.441 12.147)" fill="#fff"/>
        <ellipse id="Oval_Copy_34" data-name="Oval Copy 34" cx="0.381" cy="0.379" rx="0.381" ry="0.379" transform="translate(36.588 2.429)" fill="#fff"/>
        <ellipse id="Oval_Copy_33" data-name="Oval Copy 33" cx="0.381" cy="0.379" rx="0.381" ry="0.379" transform="translate(36.588 4.859)" fill="#fff"/>
        <ellipse id="Oval_Copy_32" data-name="Oval Copy 32" cx="0.381" cy="0.379" rx="0.381" ry="0.379" transform="translate(36.588 7.288)" fill="#fff"/>
        <ellipse id="Oval_Copy_31" data-name="Oval Copy 31" cx="0.381" cy="0.379" rx="0.381" ry="0.379" transform="translate(36.588 9.717)" fill="#fff"/>
        <ellipse id="Oval_Copy_30" data-name="Oval Copy 30" cx="0.381" cy="0.379" rx="0.381" ry="0.379" transform="translate(36.588 12.147)" fill="#fff"/>
      </g>
      <g id="dot_copy-2" data-name="dot copy" transform="translate(50.191 0) rotate(90)" opacity="0.12">
        <ellipse id="Oval-2" data-name="Oval" cx="0.381" cy="0.379" rx="0.381" ry="0.379" transform="translate(0 0)" fill="#fff"/>
        <ellipse id="Oval_Copy_7-2" data-name="Oval Copy 7" cx="0.381" cy="0.379" rx="0.381" ry="0.379" transform="translate(9.147 0)" fill="#fff"/>
        <ellipse id="Oval_Copy_8-2" data-name="Oval Copy 8" cx="0.381" cy="0.379" rx="0.381" ry="0.379" transform="translate(18.294 0)" fill="#fff"/>
        <ellipse id="Oval_Copy_9-2" data-name="Oval Copy 9" cx="0.381" cy="0.379" rx="0.381" ry="0.379" transform="translate(27.441 0)" fill="#fff"/>
        <ellipse id="Oval_Copy_35-2" data-name="Oval Copy 35" cx="0.381" cy="0.379" rx="0.381" ry="0.379" transform="translate(36.588 0)" fill="#fff"/>
        <ellipse id="Oval_Copy_13-2" data-name="Oval Copy 13" cx="0.381" cy="0.379" rx="0.381" ry="0.379" transform="translate(0 2.429)" fill="#fff"/>
        <ellipse id="Oval_Copy_12-2" data-name="Oval Copy 12" cx="0.381" cy="0.379" rx="0.381" ry="0.379" transform="translate(9.147 2.429)" fill="#fff"/>
        <ellipse id="Oval_Copy_11-2" data-name="Oval Copy 11" cx="0.381" cy="0.379" rx="0.381" ry="0.379" transform="translate(18.294 2.429)" fill="#fff"/>
        <ellipse id="Oval_Copy_10-2" data-name="Oval Copy 10" cx="0.381" cy="0.379" rx="0.381" ry="0.379" transform="translate(27.441 2.429)" fill="#fff"/>
        <ellipse id="Oval_Copy_17-2" data-name="Oval Copy 17" cx="0.381" cy="0.379" rx="0.381" ry="0.379" transform="translate(0 4.859)" fill="#fff"/>
        <ellipse id="Oval_Copy_16-2" data-name="Oval Copy 16" cx="0.381" cy="0.379" rx="0.381" ry="0.379" transform="translate(9.147 4.859)" fill="#fff"/>
        <ellipse id="Oval_Copy_15-2" data-name="Oval Copy 15" cx="0.381" cy="0.379" rx="0.381" ry="0.379" transform="translate(18.294 4.859)" fill="#fff"/>
        <ellipse id="Oval_Copy_14-2" data-name="Oval Copy 14" cx="0.381" cy="0.379" rx="0.381" ry="0.379" transform="translate(27.441 4.859)" fill="#fff"/>
        <ellipse id="Oval_Copy_21-2" data-name="Oval Copy 21" cx="0.381" cy="0.379" rx="0.381" ry="0.379" transform="translate(0 7.288)" fill="#fff"/>
        <ellipse id="Oval_Copy_20-2" data-name="Oval Copy 20" cx="0.381" cy="0.379" rx="0.381" ry="0.379" transform="translate(9.147 7.288)" fill="#fff"/>
        <ellipse id="Oval_Copy_19-2" data-name="Oval Copy 19" cx="0.381" cy="0.379" rx="0.381" ry="0.379" transform="translate(18.294 7.288)" fill="#fff"/>
        <ellipse id="Oval_Copy_18-2" data-name="Oval Copy 18" cx="0.381" cy="0.379" rx="0.381" ry="0.379" transform="translate(27.441 7.288)" fill="#fff"/>
        <ellipse id="Oval_Copy_25-2" data-name="Oval Copy 25" cx="0.381" cy="0.379" rx="0.381" ry="0.379" transform="translate(0 9.717)" fill="#fff"/>
        <ellipse id="Oval_Copy_24-2" data-name="Oval Copy 24" cx="0.381" cy="0.379" rx="0.381" ry="0.379" transform="translate(9.147 9.717)" fill="#fff"/>
        <ellipse id="Oval_Copy_23-2" data-name="Oval Copy 23" cx="0.381" cy="0.379" rx="0.381" ry="0.379" transform="translate(18.294 9.717)" fill="#fff"/>
        <ellipse id="Oval_Copy_22-2" data-name="Oval Copy 22" cx="0.381" cy="0.379" rx="0.381" ry="0.379" transform="translate(27.441 9.717)" fill="#fff"/>
        <ellipse id="Oval_Copy_29-2" data-name="Oval Copy 29" cx="0.381" cy="0.379" rx="0.381" ry="0.379" transform="translate(0 12.147)" fill="#fff"/>
        <ellipse id="Oval_Copy_28-2" data-name="Oval Copy 28" cx="0.381" cy="0.379" rx="0.381" ry="0.379" transform="translate(9.147 12.147)" fill="#fff"/>
        <ellipse id="Oval_Copy_27-2" data-name="Oval Copy 27" cx="0.381" cy="0.379" rx="0.381" ry="0.379" transform="translate(18.294 12.147)" fill="#fff"/>
        <ellipse id="Oval_Copy_26-2" data-name="Oval Copy 26" cx="0.381" cy="0.379" rx="0.381" ry="0.379" transform="translate(27.441 12.147)" fill="#fff"/>
        <ellipse id="Oval_Copy_34-2" data-name="Oval Copy 34" cx="0.381" cy="0.379" rx="0.381" ry="0.379" transform="translate(36.588 2.429)" fill="#fff"/>
        <ellipse id="Oval_Copy_33-2" data-name="Oval Copy 33" cx="0.381" cy="0.379" rx="0.381" ry="0.379" transform="translate(36.588 4.859)" fill="#fff"/>
        <ellipse id="Oval_Copy_32-2" data-name="Oval Copy 32" cx="0.381" cy="0.379" rx="0.381" ry="0.379" transform="translate(36.588 7.288)" fill="#fff"/>
        <ellipse id="Oval_Copy_31-2" data-name="Oval Copy 31" cx="0.381" cy="0.379" rx="0.381" ry="0.379" transform="translate(36.588 9.717)" fill="#fff"/>
        <ellipse id="Oval_Copy_30-2" data-name="Oval Copy 30" cx="0.381" cy="0.379" rx="0.381" ry="0.379" transform="translate(36.588 12.147)" fill="#fff"/>
      </g>
      <g id="dot_copy-3" data-name="dot copy" transform="translate(50.191 45) rotate(90)" opacity="0.12">
        <ellipse id="Oval-3" data-name="Oval" cx="0.381" cy="0.379" rx="0.381" ry="0.379" transform="translate(0 0)" fill="#fff"/>
        <ellipse id="Oval_Copy_7-3" data-name="Oval Copy 7" cx="0.381" cy="0.379" rx="0.381" ry="0.379" transform="translate(9.147 0)" fill="#fff"/>
        <ellipse id="Oval_Copy_8-3" data-name="Oval Copy 8" cx="0.381" cy="0.379" rx="0.381" ry="0.379" transform="translate(18.294 0)" fill="#fff"/>
        <ellipse id="Oval_Copy_9-3" data-name="Oval Copy 9" cx="0.381" cy="0.379" rx="0.381" ry="0.379" transform="translate(27.441 0)" fill="#fff"/>
        <ellipse id="Oval_Copy_35-3" data-name="Oval Copy 35" cx="0.381" cy="0.379" rx="0.381" ry="0.379" transform="translate(36.588 0)" fill="#fff"/>
        <ellipse id="Oval_Copy_13-3" data-name="Oval Copy 13" cx="0.381" cy="0.379" rx="0.381" ry="0.379" transform="translate(0 2.429)" fill="#fff"/>
        <ellipse id="Oval_Copy_12-3" data-name="Oval Copy 12" cx="0.381" cy="0.379" rx="0.381" ry="0.379" transform="translate(9.147 2.429)" fill="#fff"/>
        <ellipse id="Oval_Copy_11-3" data-name="Oval Copy 11" cx="0.381" cy="0.379" rx="0.381" ry="0.379" transform="translate(18.294 2.429)" fill="#fff"/>
        <ellipse id="Oval_Copy_10-3" data-name="Oval Copy 10" cx="0.381" cy="0.379" rx="0.381" ry="0.379" transform="translate(27.441 2.429)" fill="#fff"/>
        <ellipse id="Oval_Copy_17-3" data-name="Oval Copy 17" cx="0.381" cy="0.379" rx="0.381" ry="0.379" transform="translate(0 4.859)" fill="#fff"/>
        <ellipse id="Oval_Copy_16-3" data-name="Oval Copy 16" cx="0.381" cy="0.379" rx="0.381" ry="0.379" transform="translate(9.147 4.859)" fill="#fff"/>
        <ellipse id="Oval_Copy_15-3" data-name="Oval Copy 15" cx="0.381" cy="0.379" rx="0.381" ry="0.379" transform="translate(18.294 4.859)" fill="#fff"/>
        <ellipse id="Oval_Copy_14-3" data-name="Oval Copy 14" cx="0.381" cy="0.379" rx="0.381" ry="0.379" transform="translate(27.441 4.859)" fill="#fff"/>
        <ellipse id="Oval_Copy_21-3" data-name="Oval Copy 21" cx="0.381" cy="0.379" rx="0.381" ry="0.379" transform="translate(0 7.288)" fill="#fff"/>
        <ellipse id="Oval_Copy_20-3" data-name="Oval Copy 20" cx="0.381" cy="0.379" rx="0.381" ry="0.379" transform="translate(9.147 7.288)" fill="#fff"/>
        <ellipse id="Oval_Copy_19-3" data-name="Oval Copy 19" cx="0.381" cy="0.379" rx="0.381" ry="0.379" transform="translate(18.294 7.288)" fill="#fff"/>
        <ellipse id="Oval_Copy_18-3" data-name="Oval Copy 18" cx="0.381" cy="0.379" rx="0.381" ry="0.379" transform="translate(27.441 7.288)" fill="#fff"/>
        <ellipse id="Oval_Copy_25-3" data-name="Oval Copy 25" cx="0.381" cy="0.379" rx="0.381" ry="0.379" transform="translate(0 9.717)" fill="#fff"/>
        <ellipse id="Oval_Copy_24-3" data-name="Oval Copy 24" cx="0.381" cy="0.379" rx="0.381" ry="0.379" transform="translate(9.147 9.717)" fill="#fff"/>
        <ellipse id="Oval_Copy_23-3" data-name="Oval Copy 23" cx="0.381" cy="0.379" rx="0.381" ry="0.379" transform="translate(18.294 9.717)" fill="#fff"/>
        <ellipse id="Oval_Copy_22-3" data-name="Oval Copy 22" cx="0.381" cy="0.379" rx="0.381" ry="0.379" transform="translate(27.441 9.717)" fill="#fff"/>
        <ellipse id="Oval_Copy_29-3" data-name="Oval Copy 29" cx="0.381" cy="0.379" rx="0.381" ry="0.379" transform="translate(0 12.147)" fill="#fff"/>
        <ellipse id="Oval_Copy_28-3" data-name="Oval Copy 28" cx="0.381" cy="0.379" rx="0.381" ry="0.379" transform="translate(9.147 12.147)" fill="#fff"/>
        <ellipse id="Oval_Copy_27-3" data-name="Oval Copy 27" cx="0.381" cy="0.379" rx="0.381" ry="0.379" transform="translate(18.294 12.147)" fill="#fff"/>
        <ellipse id="Oval_Copy_26-3" data-name="Oval Copy 26" cx="0.381" cy="0.379" rx="0.381" ry="0.379" transform="translate(27.441 12.147)" fill="#fff"/>
        <ellipse id="Oval_Copy_34-3" data-name="Oval Copy 34" cx="0.381" cy="0.379" rx="0.381" ry="0.379" transform="translate(36.588 2.429)" fill="#fff"/>
        <ellipse id="Oval_Copy_33-3" data-name="Oval Copy 33" cx="0.381" cy="0.379" rx="0.381" ry="0.379" transform="translate(36.588 4.859)" fill="#fff"/>
        <ellipse id="Oval_Copy_32-3" data-name="Oval Copy 32" cx="0.381" cy="0.379" rx="0.381" ry="0.379" transform="translate(36.588 7.288)" fill="#fff"/>
        <ellipse id="Oval_Copy_31-3" data-name="Oval Copy 31" cx="0.381" cy="0.379" rx="0.381" ry="0.379" transform="translate(36.588 9.717)" fill="#fff"/>
        <ellipse id="Oval_Copy_30-3" data-name="Oval Copy 30" cx="0.381" cy="0.379" rx="0.381" ry="0.379" transform="translate(36.588 12.147)" fill="#fff"/>
      </g>
    </g>
  </g>
</svg>
