<svg xmlns="http://www.w3.org/2000/svg" xmlns:xlink="http://www.w3.org/1999/xlink" width="24" height="24" viewBox="0 0 24 24"><defs><style>.a{fill:none;}.b{fill:#c7c7c7;}</style></defs><path class="a" d="M24,0H0V-24H24Z" transform="translate(0 24)"/><path class="b" d="M19.671,8.348,10.733.27A1.087,1.087,0,0,0,9.28.287L.311,8.779a1,1,0,0,0-.043,1.408l.225.242a.958.958,0,0,0,1.346.106l.67-.62v9.077A.992.992,0,0,0,3.485,20h3.5a.992.992,0,0,0,.976-1.008v-6.35h4.459v6.35A.94.94,0,0,0,13.332,20h3.7a.992.992,0,0,0,.976-1.008V10.043l.414.375c.228.207.707.041,1.069-.371l.254-.288A1.008,1.008,0,0,0,19.671,8.348Z" transform="translate(2 2)"/></svg>
