<?xml version="1.0" encoding="UTF-8" standalone="no"?>
<!-- Created with Inkscape (http://www.inkscape.org/) -->

<svg
   width="164.63834mm"
   height="96mm"
   viewBox="0 0 164.63834 96"
   version="1.1"
   id="svg252"
   inkscape:version="1.1.1 (3bf5ae0d25, 2021-09-20)"
   sodipodi:docname="MDM Logo.svg"
   xmlns:inkscape="http://www.inkscape.org/namespaces/inkscape"
   xmlns:sodipodi="http://sodipodi.sourceforge.net/DTD/sodipodi-0.dtd"
   xmlns="http://www.w3.org/2000/svg"
   xmlns:svg="http://www.w3.org/2000/svg">
  <sodipodi:namedview
     id="namedview254"
     pagecolor="#ffffff"
     bordercolor="#666666"
     borderopacity="1.0"
     inkscape:pageshadow="2"
     inkscape:pageopacity="0.0"
     inkscape:pagecheckerboard="true"
     inkscape:document-units="mm"
     showgrid="false"
     inkscape:zoom="0.61647026"
     inkscape:cx="195.46766"
     inkscape:cy="477.71972"
     inkscape:window-width="1280"
     inkscape:window-height="961"
     inkscape:window-x="-8"
     inkscape:window-y="-8"
     inkscape:window-maximized="1"
     inkscape:current-layer="layer1"
     fit-margin-top="0"
     fit-margin-left="0"
     fit-margin-right="0"
     fit-margin-bottom="0"
     showborder="false" />
  <defs
     id="defs249" />
  <g
     inkscape:label="Layer 1"
     inkscape:groupmode="layer"
     id="layer1"
     transform="translate(-24.462989,-26.025905)">
    <g
       transform="matrix(0.35597069,0,0,0.35597069,-487.37477,-1965.3982)"
       id="g119"
       style="clip-rule:evenodd;fill-rule:evenodd;stroke-linejoin:round;stroke-miterlimit:2">
      <g
         id="path6107"
         transform="matrix(0.532785,0,0,-0.532785,662.066,7262.85)">
        <rect
           x="1461.1801"
           y="2625.48"
           width="857.96198"
           height="5.7459998"
           style="fill:#2957a3"
           id="rect2" />
      </g>
      <g
         id="path6109"
         transform="matrix(0.532785,0,0,-0.532785,662.066,7262.85)">
        <path
           d="m 1791.28,3105.59 h 473.52 c 30.04,0 54.61,-23.34 54.61,-51.87 v -226.74 c 0,-28.53 -24.57,-51.86 -54.61,-51.86 h -473.52 z"
           style="fill:#2957a3"
           id="path5" />
      </g>
      <g
         id="path6111"
         transform="matrix(0.532785,0,0,-0.532785,662.066,7262.85)">
        <path
           d="m 1857.86,2855.87 v 7.69 h 7.51 c -0.71,1.89 -1.06,3.82 -1.06,5.79 0,4.56 1.94,8.42 5.81,11.58 3.88,3.23 8.54,4.84 13.97,4.84 7.69,0 14.74,-1.96 21.15,-5.89 6.49,-3.86 11.36,-9.13 14.6,-15.79 h -8.67 c -2.47,4.28 -6.14,7.64 -11,10.1 -4.8,2.46 -10.16,3.69 -16.08,3.69 -3.1,0 -5.78,-0.85 -8.04,-2.53 -2.19,-1.61 -3.28,-3.62 -3.28,-6 0,-1.76 0.39,-3.69 1.16,-5.79 h 9.31 v -7.69 h -8.46 v -44.96 h -8.46 v 44.96 z m 23.27,0 v 7.69 h 48.97 v -7.69 h -9.62 v -12.42 h -20.42 c -0.56,0 -1.06,-0.14 -1.48,-0.42 -0.42,-0.28 -0.64,-0.64 -0.64,-1.06 0,-1.05 0.71,-2.38 2.12,-4 1.34,-1.61 2.47,-2.42 3.39,-2.42 1.12,0 2.75,0.42 4.86,1.26 2.05,0.78 3.63,1.16 4.76,1.16 3.53,0 6.52,-1.12 8.99,-3.37 2.47,-2.17 3.71,-4.84 3.71,-8 0,-4.35 -1.8,-8.03 -5.4,-11.05 -3.67,-3.09 -8.04,-4.64 -13.12,-4.64 -5,0 -9.62,1.45 -13.85,4.32 -4.23,2.81 -7.41,6.6 -9.52,11.37 l 6.13,4.43 c 1.84,-3.72 4.3,-6.71 7.41,-8.95 3.1,-2.18 6.38,-3.27 9.83,-3.27 2.76,0 5.12,0.77 7.09,2.32 1.98,1.47 2.96,3.3 2.96,5.47 0,0.99 -0.42,1.79 -1.27,2.42 -0.77,0.71 -1.76,1.06 -2.96,1.06 -1.13,0 -2.71,-0.42 -4.76,-1.27 -2.04,-0.77 -3.63,-1.15 -4.76,-1.15 -2.32,0 -5.25,1.75 -8.78,5.26 -3.52,3.58 -5.29,6.53 -5.29,8.84 0,2.67 1.03,4.92 3.07,6.74 1.98,1.9 4.41,2.84 7.3,2.84 h 12.16 v 4.53 z m 46.86,0 v 7.69 h 7.51 c -0.71,1.89 -1.06,3.82 -1.06,5.79 0,4.56 1.94,8.42 5.82,11.58 3.87,3.23 8.53,4.84 13.96,4.84 7.69,0 14.74,-1.96 21.16,-5.89 6.48,-3.86 11.35,-9.13 14.59,-15.79 h -8.67 c -2.47,4.28 -6.14,7.64 -11,10.1 -4.8,2.46 -10.16,3.69 -16.08,3.69 -3.1,0 -5.78,-0.85 -8.04,-2.53 -2.18,-1.61 -3.28,-3.62 -3.28,-6 0,-1.76 0.39,-3.69 1.16,-5.79 h 9.31 v -7.69 h -8.46 v -44.96 h -8.46 v 44.96 z m 23.27,0 v 7.69 h 66.85 v -7.69 h -8.46 v -44.96 h -8.47 v 27.8 h -10.57 c 1.48,-2.53 2.22,-4.88 2.22,-7.05 0,-3.72 -1.41,-6.88 -4.23,-9.48 -2.82,-2.6 -6.24,-3.9 -10.26,-3.9 -5.57,0 -10.62,2.57 -15.13,7.69 -4.51,5.13 -7.47,11.58 -8.89,19.38 l 7.3,2.42 c 1.13,-6.25 3.25,-11.41 6.35,-15.48 3.17,-4.07 6.63,-6.11 10.37,-6.11 1.69,0 3.1,0.56 4.23,1.69 1.2,1.05 1.8,2.35 1.8,3.89 0,1.62 -0.71,3.69 -2.12,6.21 -1.48,2.53 -3.56,5.41 -6.24,8.64 h 25.17 v 9.26 z m 94.35,0 v 7.69 h 50.88 v -7.69 h -8.46 v -44.96 h -8.46 v 21.06 h -16.29 v -5.26 c 0,-0.57 -0.25,-1.05 -0.74,-1.48 -0.42,-0.42 -0.99,-0.63 -1.69,-0.63 -1.34,0 -3.78,1.69 -7.3,5.06 -3.46,3.3 -5.19,5.61 -5.19,6.94 0,0.92 0.21,1.69 0.64,2.32 0.49,0.63 1.06,0.95 1.69,0.95 h 4.13 v 16 z m 17.67,-16 h 16.29 v 16 h -16.29 z m 31.1,16 v 7.69 h 25.38 v -7.69 h -8.46 v -44.96 h -8.46 v 44.96 z m 26.55,-0.31 c 0,3.36 1.16,6.24 3.49,8.63 2.4,2.39 5.25,3.58 8.57,3.58 3.24,0 6.03,-0.98 8.35,-2.95 2.33,-1.96 3.49,-4.35 3.49,-7.16 0,-2.31 -0.98,-4.31 -2.96,-6 -2.04,-1.61 -4.48,-2.42 -7.3,-2.42 l -2.11,5.79 c 1.05,0 1.97,0.25 2.75,0.74 0.77,0.56 1.16,1.19 1.16,1.89 -0.14,0.63 -0.53,1.16 -1.16,1.58 -0.64,0.42 -1.38,0.63 -2.22,0.63 -0.99,0 -1.84,-0.42 -2.54,-1.26 -0.71,-0.84 -1.06,-1.86 -1.06,-3.05 0,-2.11 0.56,-4.11 1.69,-6.01 1.2,-1.89 2.79,-3.4 4.76,-4.52 1.98,1.12 4.41,1.68 7.3,1.68 l 2.96,-6.42 c -3.45,0 -6.42,-0.74 -8.88,-2.21 -2.47,-1.55 -3.71,-3.37 -3.71,-5.48 0,-1.47 0.64,-2.73 1.91,-3.79 1.27,-1.05 2.82,-1.58 4.65,-1.58 3.25,0 6.25,0.74 9,2.22 2.82,1.54 4.97,3.61 6.45,6.21 v -9.48 c -1.48,-2.1 -3.56,-3.79 -6.24,-5.05 -2.75,-1.19 -5.79,-1.79 -9.1,-1.79 -4.02,0 -7.48,1.3 -10.37,3.89 -2.82,2.6 -4.23,5.72 -4.23,9.37 0,1.97 0.32,3.72 0.95,5.27 0.64,1.54 1.48,2.67 2.54,3.37 -2.54,1.47 -4.51,3.47 -5.92,6 -1.48,2.6 -2.22,5.37 -2.22,8.32 z m 26.97,0.31 v 7.69 h 6.56 v -7.69 z m 4.45,0 v 7.69 h 51.72 v -7.69 h -8.46 v -44.96 h -8.46 v 12.96 c -1.34,-1.41 -3,-2.46 -4.97,-3.16 -2.05,-0.77 -4.24,-1.16 -6.56,-1.16 -5.57,0 -10.34,2.14 -14.28,6.42 -3.95,4.28 -5.93,9.48 -5.93,15.58 2.54,-0.63 4.16,-0.94 4.87,-0.94 2.25,0 4.16,0.73 5.71,2.21 1.62,1.54 2.43,3.37 2.43,5.47 0,1.41 -0.31,2.77 -0.95,4.11 -0.71,1.33 -1.66,2.49 -2.85,3.47 z m 23.27,-28.42 c 1.9,0 3.88,0.56 5.92,1.68 2.05,1.12 3.91,2.7 5.61,4.74 v 22 h -13.44 c 1.06,-1.19 1.84,-2.46 2.33,-3.79 0.57,-1.26 0.85,-2.53 0.85,-3.79 0,-3.44 -1.13,-6.46 -3.39,-9.05 -2.18,-2.6 -5.01,-4.21 -8.46,-4.85 0.77,-2.1 2.12,-3.78 4.02,-5.05 1.97,-1.26 4.16,-1.89 6.56,-1.89 z m 26.34,28.42 v 7.69 h 50.88 v -7.69 h -8.47 v -44.96 h -8.46 v 21.06 h -16.29 v -5.26 c 0,-0.57 -0.25,-1.05 -0.74,-1.48 -0.42,-0.42 -0.99,-0.63 -1.69,-0.63 -1.34,0 -3.77,1.69 -7.3,5.06 -3.46,3.3 -5.18,5.61 -5.18,6.94 0,0.92 0.21,1.69 0.63,2.32 0.5,0.63 1.06,0.95 1.69,0.95 h 4.13 v 16 z m 17.66,-16 h 16.29 v 16 h -16.29 z"
           style="fill:#ffffff;fill-rule:nonzero"
           id="path8" />
      </g>
      <g
         id="path6113"
         transform="matrix(0.532785,0,0,-0.532785,662.066,7262.85)">
        <path
           d="m 1849.87,3013.95 v 12.19 h 332.02 c -1.04,1.18 -1.99,2.36 -2.85,3.55 -1.18,1.67 -2.24,3.41 -3.14,5.2 l -0.07,0.12 c -0.82,1.82 -1.45,3.63 -1.87,5.4 -0.42,1.85 -0.64,3.67 -0.64,5.45 0,10.06 3.83,18.66 11.48,25.79 3.78,3.52 7.97,6.18 12.53,7.95 4.57,1.77 9.5,2.66 14.77,2.66 5.55,0 10.74,-0.88 15.54,-2.63 4.81,-1.76 9.24,-4.4 13.24,-7.9 4.03,-3.53 7.07,-7.46 9.11,-11.78 2.06,-4.35 3.1,-9.05 3.1,-14.09 0,-2.29 -0.25,-4.57 -0.74,-6.82 -0.48,-2.16 -1.19,-4.34 -2.15,-6.51 -0.88,-2.23 -1.99,-4.36 -3.33,-6.39 h 13.96 v -15.58 h -18.8 v -101.22 h -17.86 v 101.22 h -46.25 v -26.31 l 5.59,7.78 2.68,-1.57 c 3.15,-1.85 5.99,-4.11 8.49,-6.76 2.47,-2.62 4.64,-5.66 6.48,-9.09 1.83,-3.41 3.21,-6.97 4.12,-10.7 0.92,-3.73 1.38,-7.59 1.38,-11.57 0,-12.87 -5.02,-23.84 -15.06,-32.87 -4.96,-4.47 -10.46,-7.83 -16.45,-10.08 -6,-2.23 -12.49,-3.35 -19.43,-3.35 -6.99,0 -13.49,1.18 -19.49,3.53 -6,2.36 -11.49,5.91 -16.46,10.61 -4.96,4.7 -8.7,9.94 -11.21,15.68 -2.52,5.76 -3.78,11.99 -3.78,18.68 0,13.75 4.87,25.07 14.59,33.95 4.83,4.48 10.3,7.86 16.39,10.1 6.05,2.23 12.71,3.35 19.96,3.35 l 2.8,-0.07 1.53,-0.09 v 8.78 h -73 v -101.22 h -17.86 v 101.22 h -30.8 l 1.2,-1.22 c 2.6,-2.75 4.87,-5.8 6.77,-9.12 1.91,-3.26 3.35,-6.58 4.3,-9.94 0.97,-3.43 1.46,-6.91 1.46,-10.43 0,-5.61 -1.14,-10.9 -3.41,-15.88 -2.25,-4.91 -5.6,-9.47 -10.03,-13.64 -4.42,-4.15 -9.37,-7.45 -14.84,-9.88 -3.6,-1.6 -7.43,-2.82 -11.49,-3.67 l 20.06,-21.96 -11.48,-11.41 -49.85,55.67 11.38,11.33 18.97,-20.06 c 4.33,0.43 8.33,1.4 12,2.91 4.08,1.68 7.78,4.04 11.1,7.07 3.27,2.99 5.72,6.22 7.34,9.67 1.6,3.37 2.39,7.03 2.39,10.94 0,3.12 -0.54,6.13 -1.62,9.01 -1.08,2.93 -2.73,5.75 -4.92,8.46 -2.22,2.75 -4.82,5.17 -7.76,7.22 -2.81,1.95 -5.96,3.6 -9.44,4.93 h -50.37 v -101.22 h -17.87 v 59.41 h -26.35 v -20.81 c 0,-7.66 -2.61,-14.17 -7.82,-19.52 -2.6,-2.68 -5.48,-4.7 -8.61,-6.04 -3.17,-1.35 -6.58,-2.04 -10.19,-2.04 -4.27,0 -8.26,0.79 -11.95,2.38 -3.64,1.55 -6.95,3.9 -9.93,7.02 -3.05,3.1 -5.33,6.55 -6.86,10.33 -1.53,3.79 -2.3,7.88 -2.3,12.27 0,4.57 0.87,8.83 2.62,12.75 1.73,3.9 4.32,7.45 7.75,10.63 3.49,3.22 7.34,5.65 11.55,7.27 4.2,1.63 8.72,2.44 13.55,2.44 h 4.33 v 25.13 h -48.2 z m 340.76,12.19 h 33.81 c 1.48,0.91 2.83,1.98 4.04,3.19 1.42,1.41 2.65,3.01 3.66,4.78 1.03,1.8 1.81,3.67 2.32,5.61 0.51,1.94 0.76,3.99 0.76,6.14 0,2.66 -0.53,5.12 -1.6,7.36 -1.09,2.3 -2.76,4.44 -4.98,6.4 l -0.04,0.02 c -2.18,1.99 -4.61,3.48 -7.24,4.46 -2.65,0.98 -5.6,1.48 -8.82,1.48 -3.15,0 -6.06,-0.5 -8.71,-1.48 -2.65,-0.98 -5.11,-2.47 -7.35,-4.45 -2.17,-1.98 -3.79,-4.11 -4.84,-6.39 -1.04,-2.25 -1.56,-4.72 -1.56,-7.4 0,-1.18 0.12,-2.3 0.35,-3.34 0.23,-1.06 0.6,-2.11 1.08,-3.14 0.47,-1.01 1.06,-1.97 1.75,-2.87 0.64,-0.85 1.4,-1.66 2.25,-2.38 l 3.67,-3.12 -8.55,-4.86 z m -15.68,-46.03 -2.11,1.2 c -2.28,1.29 -4.85,2.28 -7.67,2.94 -2.87,0.67 -6.02,1.01 -9.45,1.01 -10.13,0 -18.19,-2.91 -24.16,-8.72 l -0.03,-0.03 c -2.95,-2.8 -5.16,-6.1 -6.64,-9.88 -1.49,-3.84 -2.24,-8.24 -2.24,-13.19 0,-4.39 0.79,-8.45 2.37,-12.16 1.59,-3.72 3.99,-7.15 7.19,-10.27 3.28,-3.14 6.89,-5.5 10.79,-7.06 3.89,-1.55 8.14,-2.33 12.72,-2.33 9.12,0 16.96,3.13 23.51,9.39 3.2,3.12 5.6,6.55 7.19,10.27 1.58,3.71 2.37,7.77 2.37,12.16 0,5.33 -1.06,10.11 -3.18,14.33 -1.01,2.05 -2.24,3.85 -3.65,5.38 -1.38,1.49 -2.96,2.75 -4.72,3.76 l -3.26,1.86 z m -259.02,5.32 h 26.35 v 25.13 h -26.35 z m -26.62,-49.51 c 1.13,0 2.17,0.26 3.09,0.75 1.01,0.54 1.96,1.39 2.83,2.52 l 0.06,0.07 c 0.91,1.13 1.6,2.41 2.07,3.84 0.47,1.44 0.71,3.06 0.71,4.84 v 20.81 h -4.33 c -2.47,0 -4.74,-0.4 -6.8,-1.19 -2.05,-0.79 -3.96,-2 -5.7,-3.61 -1.72,-1.66 -3.01,-3.45 -3.85,-5.37 -0.83,-1.9 -1.25,-3.99 -1.25,-6.24 0,-4.62 1.35,-8.58 4.05,-11.91 1.32,-1.54 2.74,-2.7 4.26,-3.44 1.46,-0.71 3.09,-1.07 4.86,-1.07"
           style="fill:#ffffff;fill-rule:nonzero"
           id="path11" />
      </g>
      <g
         id="path6115"
         transform="matrix(0.532785,0,0,-0.532785,662.066,7262.85)">
        <path
           d="m 1725.27,2770.41 v 313.25 h -14.91 v -297.8 h -216.38 c -0.08,0 -0.15,0 -0.22,0 -0.07,0 -0.14,0 -0.22,0 -9.66,0.12 -17.46,8.28 -17.46,18.33 0,10.04 7.8,18.2 17.46,18.32 0.08,0 0.15,0 0.22,0 0.07,0 0.14,0 0.22,0 h 198.71 v 283.08 h -199.23 c -17.76,-0.17 -32.12,-15.06 -32.28,-33.48 v -268.23 c 0.06,-6.64 1.96,-12.82 5.21,-18.02 5.75,-9.22 15.72,-15.35 27.07,-15.45 z"
           style="fill:#2957a3"
           id="path14" />
      </g>
      <g
         id="path6117"
         transform="matrix(0.532785,0,0,-0.532785,662.066,7262.85)">
        <path
           d="m 1506.43,3026.16 h 151.81 v -24.47 h -19.06 v -107.5 h -23.6 v 57.83 h -25.5 v -15.59 c -1.53,-18.96 -16.88,-33.86 -35.56,-33.86 -19.72,0 -35.72,16.59 -35.72,37.04 0,20.44 15.92,36.72 35.63,36.72 h 12.06 v 25.35 h -60.06 z m 109.15,-49.69 v 25.22 h -25.5 v -25.29 c 8.5,0.03 17.01,0.06 25.5,0.07 z m -49.09,-24.45 h -11.97 c -6.61,0 -11.97,-5.56 -11.97,-12.41 0,-6.86 5.36,-12.41 11.97,-12.41 6.61,0 11.97,5.55 11.97,12.41 z"
           style="fill:#ffffff"
           id="path17" />
      </g>
      <g
         id="path6119"
         transform="matrix(0.532785,0,0,-0.532785,662.066,7262.85)">
        <path
           d="m 2270.41,3112.59 h 4.2 v 15.55 h 5.71 v 3.52 h -15.62 v -3.52 h 5.71 z"
           style="fill:#383336;fill-rule:nonzero"
           id="path20" />
      </g>
      <g
         id="path6121"
         transform="matrix(0.532785,0,0,-0.532785,662.066,7262.85)">
        <path
           d="m 2282.51,3112.59 h 3.93 v 13.38 h 0.05 l 4.68,-13.38 h 3.23 l 4.68,13.52 h 0.05 v -13.52 h 3.92 v 19.07 h -5.9 l -4.22,-13.11 h -0.05 l -4.46,13.11 h -5.91 z"
           style="fill:#383336;fill-rule:nonzero"
           id="path23" />
      </g>
      <g
         id="path6123"
         transform="matrix(0.532785,0,0,-0.532785,662.066,7262.85)">
        <path
           d="m 1484.54,2705.45 h -9.1 c 1.19,-0.78 2.13,-1.76 2.8,-2.94 0.68,-1.18 1.02,-2.39 1.02,-3.65 0,-1.8 -0.67,-3.38 -2.01,-4.74 -1.33,-1.36 -3.01,-2.18 -5.05,-2.46 2.63,-0.05 4.88,-0.86 6.73,-2.43 1.87,-1.57 2.81,-3.47 2.81,-5.68 0,-3.05 -1.2,-5.39 -3.6,-7.04 -2.4,-1.65 -5.18,-2.46 -8.35,-2.46 -3.61,0 -6.67,1.1 -9.17,3.29 -2.5,2.2 -3.69,4.8 -3.56,7.81 h 3.88 c -0.17,-2.04 0.61,-3.82 2.32,-5.35 1.72,-1.53 3.83,-2.29 6.33,-2.29 2.42,0 4.37,0.5 5.88,1.5 1.51,0.99 2.26,2.48 2.26,4.47 0,2.13 -0.89,3.66 -2.67,4.58 -1.78,0.92 -3.84,1.38 -6.17,1.38 l -2.99,-0.07 v 4.1 c 0.6,-0.05 1.14,-0.09 1.63,-0.11 0.49,-0.02 0.92,-0.03 1.3,-0.03 1.52,0 3.02,0.56 4.48,1.7 1.47,1.12 2.2,2.42 2.2,3.9 0,1.12 -0.39,2.27 -1.18,3.44 -0.79,1.18 -1.85,2.21 -3.21,3.08 h -15 v 3.26 h 28.42 z"
           style="fill:#383336;fill-rule:nonzero"
           id="path26" />
      </g>
      <g
         id="path6125"
         transform="matrix(0.532785,0,0,-0.532785,662.066,7262.85)">
        <path
           d="m 1523.6,2705.45 h -6.38 v -31.4 h -3.87 v 20.03 h -8.96 c 0.94,-0.87 1.66,-2 2.19,-3.36 0.54,-1.36 0.8,-2.85 0.8,-4.47 0,-2.87 -0.97,-5.17 -2.9,-6.9 -1.92,-1.74 -4.22,-2.58 -6.89,-2.53 -3.83,0.09 -6.92,2.21 -9.3,6.34 -2.37,4.14 -3.24,8.96 -2.6,14.46 h 3.56 c -0.38,-4.48 0.26,-8.39 1.91,-11.71 1.65,-3.33 3.78,-5 6.36,-5 1.74,0 3.14,0.59 4.2,1.76 1.06,1.19 1.59,2.75 1.59,4.69 0,1.29 -0.34,2.55 -1.02,3.74 -0.68,1.21 -1.61,2.2 -2.8,2.98 h -3.24 v 3.68 h 17.1 v 7.69 h -30.07 v 3.26 h 40.32 z"
           style="fill:#383336;fill-rule:nonzero"
           id="path29" />
      </g>
      <g
         id="path6127"
         transform="matrix(0.532785,0,0,-0.532785,662.066,7262.85)">
        <path
           d="m 1563.54,2705.45 h -11.32 v -7.42 c 2.38,-0.09 4.39,-1.12 6.05,-3.08 1.65,-1.97 2.47,-4.33 2.47,-7.1 0,-4.3 -1.11,-7.35 -3.31,-9.16 -2.2,-1.8 -4.89,-2.72 -8.07,-2.77 -0.43,0 -0.91,0.03 -1.43,0.1 -0.53,0.08 -1.11,0.17 -1.75,0.31 l -0.45,4.03 c 0.6,-0.28 1.15,-0.47 1.66,-0.56 0.51,-0.1 1.12,-0.14 1.85,-0.14 2.29,0 4.04,0.66 5.27,1.97 1.23,1.33 1.85,3.38 1.85,6.15 0,2.08 -0.51,3.76 -1.53,5.02 -1.01,1.28 -2.65,1.85 -4.9,1.71 -1.44,-0.05 -2.7,-0.81 -3.78,-2.29 -1.08,-1.48 -1.76,-3.33 -2.01,-5.55 -0.46,-3.92 -1.42,-6.61 -2.86,-8.04 -1.44,-1.43 -3.58,-2.24 -6.43,-2.43 -3.43,-0.28 -6.09,0.72 -7.98,3.01 -1.89,2.29 -2.83,5.17 -2.83,8.64 0,3.42 0.99,6.03 2.96,7.83 1.97,1.81 4.44,2.71 7.42,2.71 0.92,0 1.74,-0.08 2.44,-0.25 0.71,-0.15 1.46,-0.45 2.26,-0.86 v -3.54 c -0.8,0.38 -1.59,0.65 -2.36,0.84 -0.76,0.18 -1.47,0.27 -2.16,0.27 -1.86,0 -3.37,-0.64 -4.55,-1.9 -1.16,-1.28 -1.74,-3.04 -1.74,-5.31 0,-2.68 0.57,-4.63 1.71,-5.86 1.15,-1.22 2.72,-1.84 4.71,-1.84 2.72,0 4.35,1.41 4.9,4.24 0.54,2.81 0.85,4.32 0.89,4.51 0.59,2.91 1.68,5.26 3.27,7.07 1.59,1.8 3.27,2.62 5.06,2.43 v 7.26 h -26.51 v 3.26 h 41.2 z"
           style="fill:#383336;fill-rule:nonzero"
           id="path32" />
      </g>
      <g
         id="path6129"
         transform="matrix(0.532785,0,0,-0.532785,662.066,7262.85)">
        <path
           d="m 1605.72,2705.45 h -6.36 v -31.4 h -4.01 v 31.4 h -7.13 v -12.68 c 0.33,-2.59 -0.31,-4.88 -1.95,-6.86 -1.62,-1.99 -3.69,-2.99 -6.18,-2.99 -2.51,0 -4.64,0.93 -6.4,2.77 -1.76,1.86 -2.59,4.07 -2.51,6.67 v 13.09 h -2.91 v 3.26 h 37.45 z m -21.38,-12.82 v 12.82 h -9.21 v -12.96 c -0.05,-1.63 0.4,-3 1.33,-4.12 0.93,-1.14 2.05,-1.71 3.37,-1.71 1.4,0 2.54,0.61 3.43,1.8 0.89,1.21 1.26,2.59 1.08,4.17"
           style="fill:#383336;fill-rule:nonzero"
           id="path35" />
      </g>
      <g
         id="path6131"
         transform="matrix(0.532785,0,0,-0.532785,662.066,7262.85)">
        <path
           d="m 1619.78,2705.45 h -6.36 v -31.4 h -3.87 v 31.4 h -5.08 v 3.26 h 5.78 c -1.09,3.88 -2.55,7.04 -4.35,9.47 -1.8,2.42 -3.61,3.64 -5.45,3.64 -1.4,0 -2.61,-0.48 -3.66,-1.45 -1.04,-0.98 -1.56,-2.31 -1.56,-4.03 0,-0.92 0.23,-1.88 0.69,-2.87 0.47,-1 1.13,-1.93 1.98,-2.81 h -4.01 c -0.67,0.83 -1.19,1.74 -1.55,2.73 -0.36,1 -0.54,2 -0.54,3.02 0,2.55 0.78,4.65 2.35,6.31 1.57,1.67 3.63,2.5 6.17,2.5 2.93,0 5.61,-1.55 8.05,-4.65 2.44,-3.1 4.08,-7.06 4.92,-11.86 h 6.49 z"
           style="fill:#383336;fill-rule:nonzero"
           id="path38" />
      </g>
      <g
         id="path6133"
         transform="matrix(0.532785,0,0,-0.532785,662.066,7262.85)">
        <path
           d="m 1664.04,2684.93 c 0,-3.24 -1.14,-5.63 -3.43,-7.18 -2.29,-1.55 -5.24,-2.27 -8.85,-2.18 -3.43,0.15 -6.3,1.27 -8.62,3.4 -2.31,2.13 -3.29,4.56 -2.95,7.28 h 3.75 c -0.34,-1.71 0.31,-3.26 1.94,-4.64 1.63,-1.39 3.66,-2.08 6.08,-2.08 2.54,0 4.54,0.42 5.98,1.27 1.44,0.87 2.16,2.27 2.16,4.21 0,2.67 -0.92,4.55 -2.77,5.61 -1.83,1.06 -3.93,1.62 -6.26,1.66 -0.5,0 -0.98,-0.01 -1.42,-0.03 -0.45,-0.03 -0.85,-0.09 -1.19,-0.18 v 3.75 c 2.72,-0.14 5.07,0.36 7.07,1.49 1.99,1.14 2.99,2.58 2.99,4.33 0,1.63 -0.58,2.79 -1.72,3.47 -1.15,0.7 -2.57,1.07 -4.26,1.11 -1.78,0.05 -3.3,-0.37 -4.59,-1.27 -1.27,-0.92 -1.94,-2.03 -2.03,-3.38 h -3.69 c 0,2.18 0.99,4.04 2.96,5.59 1.97,1.55 4.34,2.32 7.1,2.32 2.75,0 5.11,-0.65 7.05,-1.94 1.96,-1.29 2.93,-3.3 2.93,-6.04 0,-1.89 -0.61,-3.54 -1.81,-4.92 -1.21,-1.38 -2.7,-2.17 -4.48,-2.36 2.33,-0.36 4.25,-1.43 5.78,-3.19 1.52,-1.75 2.28,-3.79 2.28,-6.1 z m 16.66,20.52 h -6.36 v -31.4 h -3.87 v 16.08 h -5.98 v 3.47 h 5.98 v 11.85 h -4.07 v 3.26 h 14.3 z"
           style="fill:#383336;fill-rule:nonzero"
           id="path41" />
      </g>
      <g
         id="path6135"
         transform="matrix(0.532785,0,0,-0.532785,662.066,7262.85)">
        <path
           d="m 1706.71,2688.33 h -10.23 v -5.06 c 0,-2.03 -0.62,-3.72 -1.85,-5.06 -1.22,-1.33 -2.94,-2.01 -5.14,-2.01 -2.09,0 -3.84,0.69 -5.26,2.05 -1.42,1.36 -2.12,3.41 -2.12,6.13 0,2.69 0.7,4.58 2.12,5.68 1.42,1.11 3.26,1.67 5.51,1.67 h 2.67 v 10.89 c -0.13,0.97 -0.53,1.76 -1.18,2.39 -0.66,0.62 -1.43,0.93 -2.32,0.93 -1.02,0 -1.84,-0.33 -2.47,-1.01 -0.64,-0.67 -0.96,-1.63 -0.96,-2.87 0,-0.56 0.2,-1.11 0.58,-1.67 0.38,-0.56 0.91,-1.02 1.58,-1.38 l -2.85,-2.29 c -0.89,0.46 -1.61,1.19 -2.14,2.18 -0.53,0.99 -0.79,2.09 -0.79,3.3 0,2.07 0.66,3.79 1.99,5.13 1.34,1.33 3.11,2.01 5.32,2.01 1.9,0 3.55,-0.6 4.95,-1.77 1.4,-1.18 2.18,-2.65 2.36,-4.4 v -11.3 h 10.23 z m -14.3,-4.3 v 4.3 h -3.37 c -1.06,0 -1.87,-0.34 -2.42,-1.04 -0.55,-0.69 -0.82,-1.65 -0.82,-2.84 0,-1.34 0.25,-2.43 0.76,-3.27 0.51,-0.82 1.44,-1.24 2.8,-1.24 0.89,0 1.62,0.4 2.22,1.22 0.6,0.81 0.87,1.76 0.83,2.87"
           style="fill:#383336;fill-rule:nonzero"
           id="path44" />
      </g>
      <g
         id="path6137"
         transform="matrix(0.532785,0,0,-0.532785,662.066,7262.85)">
        <path
           d="M 1740.37,2705.45 H 1734 v -31.4 h -3.82 v 9.5 c -1.14,-1.16 -2.56,-2.04 -4.26,-2.64 -1.7,-0.6 -3.54,-0.9 -5.53,-0.9 -3.99,0 -7.29,1.63 -9.9,4.89 -2.6,3.25 -3.61,6.99 -3.02,11.2 0.81,-0.28 1.53,-0.5 2.16,-0.67 0.64,-0.15 1.2,-0.23 1.67,-0.23 1.94,-0.1 3.64,0.08 5.09,0.52 1.44,0.43 2.16,1.61 2.16,3.5 0,0.88 -0.32,1.86 -0.96,2.94 -0.63,1.09 -1.52,2.18 -2.67,3.29 h -9.47 v 3.26 h 34.92 z m -10.19,-17.46 v 17.46 h -11.06 c 1.02,-1.01 1.8,-2.11 2.36,-3.29 0.55,-1.18 0.82,-2.34 0.82,-3.5 0,-2.26 -1.17,-4.06 -3.53,-5.37 -2.35,-1.31 -5.05,-1.72 -8.11,-1.22 -0.04,-2.35 0.87,-4.37 2.74,-6.02 1.87,-1.67 4.14,-2.5 6.81,-2.5 2.03,0 3.91,0.39 5.65,1.18 1.74,0.78 3.18,1.87 4.32,3.26"
           style="fill:#383336;fill-rule:nonzero"
           id="path47" />
      </g>
      <g
         id="path6139"
         transform="matrix(0.532785,0,0,-0.532785,662.066,7262.85)">
        <path
           d="m 1754.41,2705.45 h -6.36 v -31.4 h -3.88 v 31.4 h -5.07 v 3.26 h 15.31 z"
           style="fill:#383336;fill-rule:nonzero"
           id="path50" />
      </g>
      <g
         id="path6141"
         transform="matrix(0.532785,0,0,-0.532785,662.066,7262.85)">
        <path
           d="m 1791.51,2705.45 h -6.37 v -31.4 h -3.87 v 15.39 h -8.08 v 3.61 h 8.08 v 12.4 h -14.7 c 1.44,-0.92 2.58,-2.14 3.41,-3.64 0.82,-1.49 1.24,-3.05 1.24,-4.67 0,-2.69 -0.88,-4.99 -2.64,-6.9 -1.77,-1.92 -3.9,-2.88 -6.4,-2.88 -0.46,-2.59 0.16,-4.91 1.88,-6.97 1.72,-2.06 3.91,-3.09 6.58,-3.09 0.47,0 0.99,0.11 1.56,0.31 0.58,0.21 1.2,0.5 1.88,0.88 l 0.07,-3.96 c -1.07,-0.14 -2.02,-0.25 -2.87,-0.34 -0.85,-0.09 -1.62,-0.14 -2.29,-0.14 -3.35,0 -6.14,1.34 -8.37,4.02 -2.23,2.68 -3.1,5.78 -2.64,9.29 l -3.82,0.7 v 3.74 c 0.94,-0.46 1.88,-0.81 2.84,-1.04 0.95,-0.23 1.87,-0.35 2.76,-0.35 2.05,0 3.76,0.47 5.16,1.39 1.4,0.92 2.1,2.71 2.1,5.34 0,1.62 -0.52,3.18 -1.53,4.68 -1.01,1.49 -2.39,2.71 -4.13,3.63 h -8.2 v 3.26 h 38.35 z"
           style="fill:#383336;fill-rule:nonzero"
           id="path53" />
      </g>
      <g
         id="path6143"
         transform="matrix(0.532785,0,0,-0.532785,662.066,7262.85)">
        <path
           d="m 1805.55,2705.45 h -6.36 v -31.4 h -3.87 v 31.4 h -5.08 v 3.26 h 15.31 z"
           style="fill:#383336;fill-rule:nonzero"
           id="path56" />
      </g>
      <g
         id="path6145"
         transform="matrix(0.532785,0,0,-0.532785,662.066,7262.85)">
        <path
           d="m 1836.66,2705.45 h -6.36 v -31.4 h -3.94 v 8.39 c -0.98,-1.05 -2.17,-1.87 -3.59,-2.43 -1.42,-0.55 -2.98,-0.83 -4.67,-0.83 -2.8,0 -5.09,0.73 -6.87,2.16 -1.78,1.43 -2.67,3.62 -2.67,6.58 0,1.3 0.38,2.6 1.15,3.91 0.76,1.32 1.82,2.49 3.18,3.51 h -7.76 v 3.46 h 17.49 v -3.46 h -4.58 c -1.74,-0.78 -3.13,-1.85 -4.16,-3.19 -1.04,-1.35 -1.56,-2.73 -1.56,-4.16 0,-1.99 0.6,-3.39 1.81,-4.19 1.2,-0.81 2.68,-1.15 4.42,-1.01 1.52,0.05 2.96,0.41 4.32,1.08 1.35,0.66 2.51,1.6 3.49,2.8 v 18.78 h -22.06 v 3.26 h 32.36 z"
           style="fill:#383336;fill-rule:nonzero"
           id="path59" />
      </g>
      <g
         id="path6147"
         transform="matrix(0.532785,0,0,-0.532785,662.066,7262.85)">
        <path
           d="m 1850.73,2705.45 h -6.36 v -31.4 h -3.87 v 31.4 h -5.09 v 3.26 h 5.79 c -1.09,3.88 -2.55,7.04 -4.35,9.47 -1.8,2.42 -3.62,3.64 -5.45,3.64 -1.4,0 -2.62,-0.48 -3.66,-1.45 -1.04,-0.98 -1.56,-2.31 -1.56,-4.03 0,-0.92 0.22,-1.88 0.69,-2.87 0.47,-1 1.13,-1.93 1.98,-2.81 h -4.01 c -0.67,0.83 -1.19,1.74 -1.55,2.73 -0.36,1 -0.54,2 -0.54,3.02 0,2.55 0.78,4.65 2.35,6.31 1.56,1.67 3.63,2.5 6.17,2.5 2.93,0 5.61,-1.55 8.04,-4.65 2.44,-3.1 4.08,-7.06 4.93,-11.86 h 6.49 z"
           style="fill:#383336;fill-rule:nonzero"
           id="path62" />
      </g>
      <g
         id="path6149"
         transform="matrix(0.532785,0,0,-0.532785,662.066,7262.85)">
        <path
           d="m 1860.58,2676.69 c 0,-0.88 -0.3,-1.61 -0.89,-2.19 -0.6,-0.58 -1.32,-0.87 -2.16,-0.87 -0.77,0 -1.46,0.3 -2.08,0.9 -0.61,0.61 -0.92,1.32 -0.92,2.16 0,0.87 0.29,1.64 0.89,2.32 0.6,0.67 1.29,1 2.11,1 0.84,0 1.56,-0.32 2.16,-0.97 0.59,-0.65 0.89,-1.43 0.89,-2.35"
           style="fill:#383336;fill-rule:nonzero"
           id="path65" />
      </g>
      <g
         id="path6151"
         transform="matrix(0.532785,0,0,-0.532785,662.066,7262.85)">
        <path
           d="m 1926.35,2705.45 h -6.37 v -31.4 h -3.88 v 20.03 h -8.95 c 0.93,-0.87 1.66,-2 2.19,-3.36 0.53,-1.36 0.79,-2.85 0.79,-4.47 0,-2.87 -0.96,-5.17 -2.9,-6.9 -1.92,-1.74 -4.22,-2.58 -6.89,-2.53 -3.82,0.09 -6.91,2.21 -9.29,6.34 -2.38,4.14 -3.25,8.96 -2.61,14.46 h 3.56 c -0.38,-4.48 0.26,-8.39 1.91,-11.71 1.65,-3.33 3.78,-5 6.37,-5 1.73,0 3.13,0.59 4.2,1.76 1.05,1.19 1.58,2.75 1.58,4.69 0,1.29 -0.33,2.55 -1.02,3.74 -0.67,1.21 -1.61,2.2 -2.8,2.98 h -3.23 v 3.68 h 17.09 v 7.69 h -30.07 v 3.26 h 40.32 z"
           style="fill:#383336;fill-rule:nonzero"
           id="path68" />
      </g>
      <g
         id="path6153"
         transform="matrix(0.532785,0,0,-0.532785,662.066,7262.85)">
        <path
           d="m 1954.34,2705.45 h -6.88 v -8.73 l -12.52,-0.07 c -0.98,0 -1.74,-0.26 -2.29,-0.79 -0.56,-0.53 -0.83,-1.35 -0.83,-2.46 0,-1.12 0.42,-1.93 1.27,-2.47 0.85,-0.53 1.98,-0.79 3.38,-0.79 0.71,0 1.88,0.11 3.49,0.31 1.61,0.2 3.12,0.31 4.52,0.31 1.99,0 3.68,-0.73 5.08,-2.16 1.4,-1.43 2.1,-3.25 2.1,-5.46 0,-3.2 -1.08,-5.51 -3.24,-6.94 -2.16,-1.43 -5.14,-2.15 -8.9,-2.15 -3.52,0 -6.53,0.93 -9.03,2.8 -2.5,1.88 -3.82,4.16 -3.94,6.84 h 3.82 c 0.08,-1.71 1,-3.16 2.73,-4.34 1.74,-1.17 3.83,-1.76 6.3,-1.76 2.38,0 4.42,0.46 6.13,1.38 1.73,0.92 2.48,2.4 2.26,4.44 -0.12,1.52 -0.63,2.56 -1.52,3.09 -0.89,0.53 -2.16,0.79 -3.82,0.79 -0.63,0 -1.62,-0.06 -2.95,-0.17 -1.34,-0.11 -2.37,-0.17 -3.09,-0.17 -2.2,0 -4.12,0.52 -5.76,1.56 -1.64,1.04 -2.46,2.71 -2.46,5.03 0,2.12 0.66,3.75 1.95,4.87 1.29,1.14 2.86,1.71 4.73,1.71 h 9.1 v 5.33 h -18.88 v 3.26 h 29.25 z"
           style="fill:#383336;fill-rule:nonzero"
           id="path71" />
      </g>
      <g
         id="path6155"
         transform="matrix(0.532785,0,0,-0.532785,662.066,7262.85)">
        <path
           d="m 1990.53,2705.45 h -6.36 v -31.4 h -4.01 v 31.4 h -7.13 v -12.68 c 0.34,-2.59 -0.31,-4.88 -1.95,-6.86 -1.62,-1.99 -3.69,-2.99 -6.18,-2.99 -2.51,0 -4.64,0.93 -6.4,2.77 -1.75,1.86 -2.59,4.07 -2.5,6.67 v 13.09 h -2.92 v 3.26 h 37.45 z m -21.38,-12.82 v 12.82 h -9.21 v -12.96 c -0.05,-1.63 0.4,-3 1.33,-4.12 0.94,-1.14 2.05,-1.71 3.37,-1.71 1.4,0 2.54,0.61 3.43,1.8 0.89,1.21 1.26,2.59 1.08,4.17"
           style="fill:#383336;fill-rule:nonzero"
           id="path74" />
      </g>
      <g
         id="path6157"
         transform="matrix(0.532785,0,0,-0.532785,662.066,7262.85)">
        <path
           d="m 2021.56,2705.45 h -6.36 v -31.4 h -3.94 v 8.05 c -1.14,-0.93 -2.47,-1.65 -4,-2.16 -1.53,-0.51 -3.19,-0.76 -4.97,-0.76 -2.84,0 -5.18,0.7 -7.05,2.09 -1.87,1.38 -2.8,3.32 -2.8,5.82 0,1.61 0.53,3.03 1.58,4.26 1.07,1.22 2.4,1.98 4.02,2.25 -1.71,0.14 -3.15,0.74 -4.37,1.8 -1.2,1.06 -1.86,2.36 -1.99,3.88 -0.09,1.16 0.12,2.29 0.61,3.41 0.49,1.1 1.17,2.03 2.06,2.76 h -5.08 v 3.26 h 32.29 z m -10.3,-18.5 v 18.5 h -12.08 c -1.14,-0.55 -2.05,-1.32 -2.73,-2.31 -0.68,-1 -1.02,-2.08 -1.02,-3.23 0,-1.52 0.92,-2.74 2.74,-3.64 1.81,-0.9 3.92,-1.17 6.28,-0.79 v -3.12 c -2.2,0.04 -4.09,-0.44 -5.65,-1.46 -1.58,-1.02 -2.36,-2.26 -2.36,-3.74 0,-1.62 0.64,-2.78 1.91,-3.47 1.27,-0.7 2.8,-1.04 4.58,-1.04 1.48,0 2.95,0.37 4.39,1.11 1.45,0.74 2.76,1.8 3.94,3.19"
           style="fill:#383336;fill-rule:nonzero"
           id="path77" />
      </g>
      <g
         id="path6159"
         transform="matrix(0.532785,0,0,-0.532785,662.066,7262.85)">
        <path
           d="m 2049.55,2705.45 h -6.87 v -8.73 l -12.53,-0.07 c -0.98,0 -1.74,-0.26 -2.29,-0.79 -0.56,-0.53 -0.83,-1.35 -0.83,-2.46 0,-1.12 0.43,-1.93 1.27,-2.47 0.85,-0.53 1.98,-0.79 3.38,-0.79 0.71,0 1.88,0.11 3.49,0.31 1.61,0.2 3.12,0.31 4.52,0.31 1.99,0 3.68,-0.73 5.08,-2.16 1.4,-1.43 2.11,-3.25 2.11,-5.46 0,-3.2 -1.09,-5.51 -3.25,-6.94 -2.16,-1.43 -5.13,-2.15 -8.9,-2.15 -3.52,0 -6.52,0.93 -9.03,2.8 -2.5,1.88 -3.81,4.16 -3.94,6.84 h 3.82 c 0.08,-1.71 1,-3.16 2.73,-4.34 1.74,-1.17 3.84,-1.76 6.3,-1.76 2.38,0 4.42,0.46 6.13,1.38 1.73,0.92 2.48,2.4 2.26,4.44 -0.12,1.52 -0.63,2.56 -1.52,3.09 -0.89,0.53 -2.16,0.79 -3.82,0.79 -0.63,0 -1.62,-0.06 -2.95,-0.17 -1.34,-0.11 -2.37,-0.17 -3.08,-0.17 -2.21,0 -4.13,0.52 -5.77,1.56 -1.64,1.04 -2.45,2.71 -2.45,5.03 0,2.12 0.65,3.75 1.94,4.87 1.29,1.14 2.87,1.71 4.73,1.71 h 9.1 v 5.33 h -18.88 v 3.26 h 29.25 z"
           style="fill:#383336;fill-rule:nonzero"
           id="path80" />
      </g>
      <g
         id="path6161"
         transform="matrix(0.532785,0,0,-0.532785,662.066,7262.85)">
        <path
           d="m 2085.74,2705.45 h -6.36 v -31.4 h -4.01 v 31.4 h -7.13 v -12.68 c 0.34,-2.59 -0.3,-4.88 -1.94,-6.86 -1.63,-1.99 -3.69,-2.99 -6.19,-2.99 -2.51,0 -4.64,0.93 -6.39,2.77 -1.76,1.86 -2.6,4.07 -2.51,6.67 v 13.09 h -2.92 v 3.26 h 37.45 z m -21.38,-12.82 v 12.82 h -9.21 v -12.96 c -0.04,-1.63 0.4,-3 1.33,-4.12 0.94,-1.14 2.06,-1.71 3.37,-1.71 1.4,0 2.54,0.61 3.43,1.8 0.89,1.21 1.26,2.59 1.08,4.17"
           style="fill:#383336;fill-rule:nonzero"
           id="path83" />
      </g>
      <g
         id="path6163"
         transform="matrix(0.532785,0,0,-0.532785,662.066,7262.85)">
        <path
           d="m 2139.17,2710.86 h -4.07 c -3.52,3.71 -6.87,6.55 -10.05,8.53 -3.18,1.99 -5.98,2.99 -8.39,2.99 -1.87,0 -3.47,-0.66 -4.8,-1.98 -1.34,-1.31 -2.01,-2.9 -2.01,-4.76 0,-1.33 0.35,-2.62 1.05,-3.84 0.7,-1.23 1.66,-2.26 2.9,-3.09 h 6.36 v -3.26 h -6.36 v -31.4 h -3.87 v 31.4 h -5.09 v 3.26 h 4.89 c -1.06,0.83 -1.88,1.9 -2.45,3.23 -0.58,1.31 -0.86,2.73 -0.86,4.26 0,2.64 0.93,4.88 2.8,6.73 1.85,1.85 4.12,2.77 6.79,2.77 3.19,0 6.79,-1.27 10.82,-3.84 4.04,-2.57 8.14,-6.23 12.34,-11"
           style="fill:#383336;fill-rule:nonzero"
           id="path86" />
      </g>
      <g
         id="path6165"
         transform="matrix(0.532785,0,0,-0.532785,662.066,7262.85)">
        <path
           d="m 2148.4,2705.45 h -6.37 v -31.4 h -4 v 7 c -0.93,-0.74 -2.03,-1.3 -3.28,-1.67 -1.25,-0.36 -2.57,-0.55 -3.97,-0.55 -3.18,0 -5.7,1.15 -7.57,3.43 -1.86,2.3 -2.8,4.94 -2.8,7.95 0,2.72 0.97,5.07 2.9,7.01 1.92,1.94 4.67,2.91 8.23,2.91 0.33,0 0.71,-0.03 1.12,-0.11 0.4,-0.07 0.85,-0.15 1.36,-0.23 l 0.96,-3.97 c -0.73,0.19 -1.36,0.34 -1.91,0.45 -0.56,0.12 -1.04,0.18 -1.47,0.18 -2.33,0 -4.12,-0.7 -5.37,-2.08 -1.25,-1.39 -1.88,-3.03 -1.88,-4.93 0,-1.9 0.69,-3.53 2.06,-4.93 1.38,-1.39 3.24,-2.01 5.57,-1.87 1.07,0.09 2.12,0.38 3.15,0.86 1.04,0.49 2.01,1.17 2.9,2.05 v 19.9 h -19.14 v 3.26 h 29.51 z"
           style="fill:#383336;fill-rule:nonzero"
           id="path89" />
      </g>
      <g
         id="path6167"
         transform="matrix(0.532785,0,0,-0.532785,662.066,7262.85)">
        <path
           d="m 2182.48,2705.45 h -6.36 v -31.4 h -3.94 v 5.54 c -1.44,-1.39 -3.11,-2.44 -5.03,-3.15 -1.91,-0.72 -3.94,-1.08 -6.11,-1.08 -3.65,0 -6.38,0.75 -8.2,2.23 -1.83,1.48 -2.7,3.64 -2.61,6.51 0.04,0.65 0.29,1.35 0.76,2.11 0.47,0.76 1.13,1.52 1.98,2.25 -1.15,0.38 -2.08,1.02 -2.81,1.95 -0.71,0.93 -1.07,1.95 -1.07,3.04 0,2.14 1.14,3.84 3.43,5.11 2.29,1.26 4.94,1.68 7.95,1.22 v 5.67 h -13.35 v 3.26 h 35.36 z m -10.3,-21.14 v 21.14 h -7.96 v -9.35 c -0.71,0.14 -1.37,0.24 -1.94,0.3 -0.58,0.07 -1.06,0.11 -1.49,0.11 -2.17,0 -4,-0.17 -5.5,-0.52 -1.51,-0.35 -2.32,-1.06 -2.45,-2.11 -0.14,-0.84 0.13,-1.57 0.76,-2.22 0.64,-0.65 1.42,-1.02 2.35,-1.12 0.73,0.19 1.43,0.35 2.13,0.45 0.7,0.12 1.39,0.21 2.07,0.25 0.64,0.05 1.29,0.04 1.98,-0.03 0.67,-0.07 1.36,-0.2 2.03,-0.38 l 0.82,-3.75 c -0.93,0.23 -1.77,0.41 -2.51,0.52 -0.74,0.12 -1.38,0.18 -1.94,0.18 -1.65,0 -3.11,-0.37 -4.38,-1.12 -1.28,-0.73 -1.94,-1.91 -1.98,-3.54 -0.04,-1.52 0.64,-2.59 2.04,-3.19 1.39,-0.59 3.09,-0.88 5.08,-0.83 1.96,0.1 3.87,0.58 5.73,1.46 1.87,0.87 3.59,2.13 5.16,3.75"
           style="fill:#383336;fill-rule:nonzero"
           id="path92" />
      </g>
      <g
         id="path6169"
         transform="matrix(0.532785,0,0,-0.532785,662.066,7262.85)">
        <path
           d="m 2196.54,2705.45 h -6.36 v -31.4 h -3.88 v 31.4 h -5.08 v 3.26 h 15.32 z"
           style="fill:#383336;fill-rule:nonzero"
           id="path95" />
      </g>
      <g
         id="path6171"
         transform="matrix(0.532785,0,0,-0.532785,662.066,7262.85)">
        <path
           d="m 2221.17,2684.24 c -1.78,-1.39 -3.58,-2.45 -5.41,-3.19 -1.82,-0.74 -3.59,-1.08 -5.28,-1.04 -4.07,0.1 -7.39,1.79 -9.96,5.1 -2.56,3.3 -3.42,6.99 -2.57,11.05 3.3,-0.82 6.3,-0.72 8.97,0.35 2.67,1.06 4,2.69 4,4.85 0,1.35 -0.34,2.44 -1.05,3.3 -0.7,0.85 -1.73,1.28 -3.08,1.28 -1.1,0 -2.08,-0.43 -2.92,-1.28 -0.86,-0.86 -1.32,-1.93 -1.4,-3.23 h -3.89 c 0,2.23 0.81,4.11 2.45,5.66 1.63,1.55 3.6,2.32 5.89,2.32 2.8,0 4.82,-0.79 6.07,-2.39 1.24,-1.6 1.87,-3.69 1.87,-6.27 0,-2.83 -1.37,-5.11 -4.1,-6.83 -2.74,-1.74 -5.88,-2.33 -9.44,-1.78 -0.3,-2.21 0.51,-4.15 2.42,-5.82 1.9,-1.67 4.23,-2.5 6.99,-2.5 1.99,0 3.91,0.51 5.73,1.53 1.82,1.02 3.4,2.43 4.71,4.22 z"
           style="fill:#383336;fill-rule:nonzero"
           id="path98" />
      </g>
      <g
         id="path6173"
         transform="matrix(0.532785,0,0,-0.532785,662.066,7262.85)">
        <path
           d="m 2254.82,2705.45 h -6.36 v -31.4 h -3.82 v 9.5 c -1.14,-1.16 -2.56,-2.04 -4.27,-2.64 -1.69,-0.6 -3.54,-0.9 -5.52,-0.9 -4,0 -7.3,1.63 -9.9,4.89 -2.61,3.25 -3.62,6.99 -3.02,11.2 0.8,-0.28 1.53,-0.5 2.16,-0.67 0.64,-0.15 1.19,-0.23 1.66,-0.23 1.94,-0.1 3.65,0.08 5.09,0.52 1.45,0.43 2.16,1.61 2.16,3.5 0,0.88 -0.31,1.86 -0.95,2.94 -0.63,1.09 -1.52,2.18 -2.67,3.29 h -9.47 v 3.26 h 34.91 z m -10.18,-17.46 v 17.46 h -11.06 c 1.02,-1.01 1.8,-2.11 2.35,-3.29 0.56,-1.18 0.83,-2.34 0.83,-3.5 0,-2.26 -1.17,-4.06 -3.53,-5.37 -2.35,-1.31 -5.06,-1.72 -8.11,-1.22 -0.04,-2.35 0.87,-4.37 2.74,-6.02 1.86,-1.67 4.13,-2.5 6.8,-2.5 2.03,0 3.92,0.39 5.66,1.18 1.73,0.78 3.18,1.87 4.32,3.26"
           style="fill:#383336;fill-rule:nonzero"
           id="path101" />
      </g>
      <g
         id="path6175"
         transform="matrix(0.532785,0,0,-0.532785,662.066,7262.85)">
        <path
           d="m 2268.87,2705.45 h -6.36 v -31.4 h -3.88 v 31.4 h -5.08 v 3.26 h 15.32 z"
           style="fill:#383336;fill-rule:nonzero"
           id="path104" />
      </g>
      <g
         id="path6177"
         transform="matrix(0.532785,0,0,-0.532785,662.066,7262.85)">
        <path
           d="m 2268.94,2722.03 c -0.55,0.55 -1.19,0.99 -1.94,1.28 -0.74,0.3 -1.53,0.45 -2.38,0.45 -1.73,0 -3.02,-0.5 -3.85,-1.49 -0.82,-0.99 -1.24,-2.36 -1.24,-4.13 0,-1.43 0.38,-2.97 1.14,-4.61 0.77,-1.64 1.85,-3.25 3.25,-4.82 h -2.16 c -1.83,1.85 -3.23,3.73 -4.19,5.62 -0.98,1.89 -1.47,3.64 -1.47,5.27 0,2.13 0.72,3.85 2.16,5.17 1.45,1.31 3.35,1.97 5.72,1.97 0.64,0 1.38,-0.13 2.23,-0.37 0.84,-0.26 1.76,-0.64 2.73,-1.15 z m 0.78,-5.96 c 0,-0.78 -0.23,-1.49 -0.7,-2.12 -0.47,-0.62 -1.04,-0.93 -1.73,-0.93 -0.8,0 -1.48,0.29 -2.06,0.9 -0.57,0.6 -0.86,1.32 -0.86,2.15 0,0.88 0.29,1.61 0.86,2.19 0.58,0.58 1.26,0.86 2.06,0.86 0.69,0 1.26,-0.29 1.73,-0.9 0.47,-0.6 0.7,-1.32 0.7,-2.15"
           style="fill:#383336;fill-rule:nonzero"
           id="path107" />
      </g>
      <g
         id="path6179"
         transform="matrix(0.532785,0,0,-0.532785,662.066,7262.85)">
        <path
           d="m 2300.29,2705.45 h -6.36 v -31.4 h -3.94 v 8.39 c -0.97,-1.05 -2.17,-1.87 -3.59,-2.43 -1.42,-0.55 -2.97,-0.83 -4.67,-0.83 -2.8,0 -5.09,0.73 -6.87,2.16 -1.78,1.43 -2.67,3.62 -2.67,6.58 0,1.3 0.38,2.6 1.15,3.91 0.76,1.32 1.82,2.49 3.18,3.51 h -7.76 v 3.46 h 17.49 v -3.46 h -4.58 c -1.74,-0.78 -3.13,-1.85 -4.16,-3.19 -1.04,-1.35 -1.56,-2.73 -1.56,-4.16 0,-1.99 0.6,-3.39 1.81,-4.19 1.2,-0.81 2.68,-1.15 4.42,-1.01 1.52,0.05 2.96,0.41 4.32,1.08 1.35,0.66 2.52,1.6 3.49,2.8 v 18.78 h -22.06 v 3.26 h 32.36 z"
           style="fill:#383336;fill-rule:nonzero"
           id="path110" />
      </g>
      <g
         id="path6181"
         transform="matrix(0.532785,0,0,-0.532785,662.066,7262.85)">
        <path
           d="M 2314.36,2705.45 H 2308 v -31.4 h -3.87 v 31.4 h -5.08 v 3.26 h 5.78 c -1.09,3.88 -2.55,7.04 -4.35,9.47 -1.8,2.42 -3.61,3.64 -5.45,3.64 -1.4,0 -2.62,-0.48 -3.66,-1.45 -1.04,-0.98 -1.56,-2.31 -1.56,-4.03 0,-0.92 0.23,-1.88 0.69,-2.87 0.47,-1 1.13,-1.93 1.98,-2.81 h -4.01 c -0.67,0.83 -1.19,1.74 -1.55,2.73 -0.36,1 -0.54,2 -0.54,3.02 0,2.55 0.78,4.65 2.35,6.31 1.57,1.67 3.63,2.5 6.17,2.5 2.93,0 5.61,-1.55 8.04,-4.65 2.45,-3.1 4.09,-7.06 4.93,-11.86 h 6.49 z"
           style="fill:#383336;fill-rule:nonzero"
           id="path113" />
      </g>
      <g
         id="path6183"
         transform="matrix(0.532785,0,0,-0.532785,662.066,7262.85)">
        <path
           d="m 2324.21,2676.69 c 0,-0.88 -0.3,-1.61 -0.89,-2.19 -0.6,-0.58 -1.31,-0.87 -2.16,-0.87 -0.77,0 -1.46,0.3 -2.07,0.9 -0.62,0.61 -0.93,1.32 -0.93,2.16 0,0.87 0.29,1.64 0.89,2.32 0.6,0.67 1.29,1 2.11,1 0.85,0 1.56,-0.32 2.16,-0.97 0.59,-0.65 0.89,-1.43 0.89,-2.35"
           style="fill:#383336;fill-rule:nonzero"
           id="path116" />
      </g>
    </g>
  </g>
</svg>
