<svg xmlns="http://www.w3.org/2000/svg" width="195" height="199" viewBox="0 0 195 199">
    <defs>
        <filter id="l8bsh6bria" width="144.6%" height="143.3%" x="-22.3%" y="-21.7%" filterUnits="objectBoundingBox">
            <feOffset dy="10" in="SourceAlpha" result="shadowOffsetOuter1"/>
            <feGaussianBlur in="shadowOffsetOuter1" result="shadowBlurOuter1" stdDeviation="5"/>
            <feColorMatrix in="shadowBlurOuter1" result="shadowMatrixOuter1" values="0 0 0 0 0 0 0 0 0 0 0 0 0 0 0 0 0 0 0.2 0"/>
            <feMerge>
                <feMergeNode in="shadowMatrixOuter1"/>
                <feMergeNode in="SourceGraphic"/>
            </feMerge>
        </filter>
    </defs>
    <g fill="none" fill-rule="evenodd">
        <g>
            <g filter="url(#l8bsh6bria)" transform="translate(-90 -262) translate(100 262)">
                <g fill-rule="nonzero" opacity=".5">
                    <path fill="#EBEBEB" d="M0.386 0.407H58.715V89.357H0.386z" transform="rotate(180 29.55 44.882)"/>
                    <path fill="#FFF" d="M34.114 3.977H58.757V43.543H34.114z" transform="rotate(180 46.436 23.76)"/>
                    <path fill="#FFF" d="M6.771 3.977H31.414V43.543H6.771z" transform="rotate(180 19.093 23.76)"/>
                    <path fill="#FFF" d="M34.114 46.234H58.757V85.80000000000001H34.114z" transform="rotate(180 46.436 66.017)"/>
                    <path fill="#FFF" d="M6.771 46.234H31.414V85.80000000000001H6.771z" transform="rotate(180 19.093 66.017)"/>
                    <path fill="#DBDBDB" d="M22.929 0.386L0.429 0.386 0.429 127.629 13.457 127.629 4.371 62.914z"/>
                    <path fill="#EBEBEB" d="M19.029 3.814L15.471 18.643 11.829 33.386 4.543 62.957 4.586 62.871 7.929 93.771 9.6 109.2 11.229 124.629 9.386 109.2 7.629 93.771 4.157 62.914 4.157 62.871 4.157 62.829 11.529 33.343 15.257 18.557zM1.757 6.429L1.886 19.2 1.929 31.971 1.971 57.471 1.929 83.014 1.886 95.786 1.757 108.557 1.671 95.786 1.586 83.014 1.543 57.471 1.586 31.971 1.671 19.2z"/>
                    <path fill="#EBEBEB" d="M5.957 8.829l-.686 13.585L4.5 35.957 3 63.086c.129 5.014.214 10.071.343 15.085L3.729 93.3l.342 15.086.3 15.128-.514-15.128L3.43 93.3 3 78.171c-.129-5.014-.3-10.071-.429-15.085L4.243 36l.814-13.586.9-13.585z"/>
                    <path fill="#EBEBEB" d="M8.871 121.543l-1.457-14.614L6 92.27C5.1 82.5 4.114 72.73 3.257 62.957l4.157-22.8 2.143-11.4 2.143-11.4L9.729 28.8 7.714 40.157 3.643 63v-.086c.943 9.772 1.8 19.543 2.7 29.315l1.286 14.657 1.242 14.657z"/>
                    <path fill="#DBDBDB" d="M0.386 61.791H5.486V64.75699999999999H0.386z" transform="rotate(180 2.936 63.274)"/>
                    <path fill="#DBDBDB" d="M36.257 0.386L58.714 0.386 58.714 127.629 45.729 127.629 54.814 62.914z"/>
                    <path fill="#EBEBEB" d="M40.157 3.814L43.886 18.557 47.614 33.343 55.029 62.829 55.029 62.871 55.029 62.914 51.514 93.771 49.757 109.2 47.957 124.629 49.543 109.2 51.214 93.771 54.6 62.871 54.6 62.957 47.314 33.386 43.714 18.643zM57.386 6.429L57.514 19.2 57.557 31.971 57.6 57.471 57.557 83.014 57.514 95.786 57.386 108.557 57.3 95.786 57.214 83.014 57.171 57.471 57.214 31.971 57.3 19.2z"/>
                    <path fill="#EBEBEB" d="M53.186 8.829l.9 13.542.857 13.586 1.628 27.086c-.085 5.014-.257 10.071-.385 15.086l-.429 15.128-.471 15.129-.472 15.128.257-15.128.386-15.086.343-15.129c.129-5.014.214-10.071.386-15.085l-1.543-27.129-.772-13.543-.685-13.585z"/>
                    <path fill="#EBEBEB" d="M50.271 121.543l1.243-14.657L52.8 92.229c.9-9.772 1.757-19.543 2.7-29.315V63l-4.071-22.843-1.972-11.4-1.971-11.443 2.143 11.4 2.1 11.4 4.157 22.8c-.857 9.772-1.8 19.543-2.743 29.315l-1.414 14.657-1.458 14.657z"/>
                    <path fill="#DBDBDB" d="M53.657 61.843H58.757V64.809H53.657z"/>
                    <path fill="#EBEBEB" d="M124.629 98.229v58.8H160.2v-58.8h-35.571zm32.357 37.114h-29.1v-15.3h29.1v15.3zm0-18.986h-29.1v-15.3h29.1v15.3z"/>
                    <path fill="#DBDBDB" d="M160.2 98.229H174.42899999999997V157.055H160.2zM127.886 101.057H134.786V116.37H127.886zM157.2 153.557h-29.357v-15H157.2v15zm-28.929-.428h28.5v-14.143h-28.5v14.143z"/>
                    <path fill="#DBDBDB" d="M138.429 142.843H144.172V145.749H138.429z"/>
                    <path fill="#DBDBDB" d="M146.1 145.757h-6.171v-2.871h6.171v2.871zm-5.743-.428h5.314v-2.015h-5.314v2.015zM127.886 120.043H134.786V135.356H127.886z"/>
                    <path fill="#A6A6A6" d="M159.814 73.543c4.072 3.986 4.757 10.157 3.9 15.557-.043.129-.214.086-.214 0 0-1.243.043-2.443.043-3.686l-.086-.171c-1.082-.724-1.977-1.693-2.614-2.829-.686-1.328-.943-2.828-1.5-4.243-.043-.128.128-.085.214 0 2.486 1.8 3.257 3.772 3.986 6.386-.04-1.366-.182-2.727-.429-4.071-.557-2.486-1.628-4.972-3.385-6.815-.086-.085 0-.171.085-.128z"/>
                    <path fill="#DBDBDB" d="M159.043 74.014c-.686.043-1.114 1.157-1.672 1.5-.249.175-.592.118-.771-.128-.557-.772.214-1.715.9-2.229-.464.272-.952.501-1.457.686-.343.043-.6-.086-.643-.386-.257-1.028 1.029-1.5 1.929-1.5-.429-.3-1.672-1.114-1.029-1.543.643-.428 2.143.772 2.614 1.157.472.386 1.5 1.415 1.543 2.272.043.857-.857.386-1.414.171z"/>
                    <path fill="#EBEBEB" d="M159.257 74.186c-.9-.386-2.614.214-2.743-.129-.128-.343 1.072-1.2 1.8-1.286-.685-.171-1.971-.471-1.971-1.114 0-.643 2.014-.128 3 .643.986.771 1.243 1.886 1.071 2.057-.171.172-1.028-.086-1.157-.171z"/>
                    <path fill="#A6A6A6" d="M169.071 73.157c-4.2 3.857-5.1 9.986-4.457 15.386.024.036.064.057.107.057.044 0 .084-.021.108-.057.042-1.243.042-2.443.085-3.643.043-.086.043-.129.086-.171 1.116-.688 2.055-1.628 2.743-2.743.728-1.329 1.071-2.829 1.628-4.2.043-.129-.085-.086-.171 0-2.571 1.714-3.429 3.643-4.243 6.257.07-1.373.272-2.736.6-4.072.643-2.485 1.757-4.928 3.643-6.685.036-.036.036-.093 0-.129-.036-.035-.093-.035-.129 0z"/>
                    <path fill="#DBDBDB" d="M169.843 73.671c.686.043 1.071 1.158 1.628 1.543.116.097.267.139.416.114.148-.025.278-.113.356-.242.557-.729-.129-1.672-.814-2.229.448.285.921.529 1.414.729.142.053.3.04.432-.034.133-.074.225-.203.254-.352.257-.986-.986-1.5-1.886-1.543.428-.3 1.714-1.071 1.071-1.5-.643-.428-2.143.686-2.614 1.072-.471.385-1.586 1.328-1.671 2.185-.086.857.857.429 1.414.257z"/>
                    <path fill="#EBEBEB" d="M169.629 73.843c.9-.386 2.614.257 2.742-.086.129-.343-1.028-1.2-1.757-1.328.686-.129 2.015-.386 2.015-1.029 0-.643-2.015-.214-3.043.514-1.029.729-1.286 1.843-1.115 2.015.172.171.986-.043 1.158-.086z"/>
                    <path fill="#A6A6A6" d="M164.786 83.271c-.311 2.041-.755 4.06-1.329 6.043-.037.052-.1.078-.163.07-.063-.01-.115-.053-.137-.113.3-1.885.814-3.685 1.072-5.571.307-1.883.422-3.793.342-5.7-.214-3.129-1.028-6.471-3.085-8.957-.043-.043.043-.129.085-.086 4.115 4.8 3.429 10.672 3.429 11.186.6-1.972 1.2-4.243 3.386-6.257.085-.086.171-.043.171.085-.386 3.686-1.414 5.615-3.557 7.586-.043.557-.129 1.157-.214 1.714z"/>
                    <path fill="#DBDBDB" d="M161.443 69.6c-.729-.343-1.757.6-2.486.686-.17.037-.35.004-.495-.093-.146-.097-.245-.25-.276-.422-.172-1.071 1.071-1.671 2.057-1.842-.6-.043-1.243.128-1.843-.043-.168-.018-.318-.11-.41-.252-.092-.141-.114-.317-.061-.477.257-1.2 1.842-1.028 2.785-.6-.3-.514-1.2-1.971-.3-2.057.9-.086 1.8 1.843 2.1 2.486.3.643.857 2.228.472 3.128-.386.9-1.115 0-1.543-.514z"/>
                    <path fill="#EBEBEB" d="M161.571 69.9c-.728-.9-2.828-1.157-2.785-1.586.043-.428 1.671-.643 2.485-.385-.6-.515-1.8-1.5-1.414-2.143.386-.643 2.143.9 2.786 2.185.643 1.286.343 2.572 0 2.658-.343.085-.986-.6-1.072-.729zM167.486 84.386l1.8 13.843H158.27c.215-1.243 2.272-13.843 2.272-13.843h6.943z"/>
                </g>
                <g fill="#EBEBEB" fill-rule="nonzero" opacity=".1">
                    <path d="M170.271 9.086c0 4.843-38.057 8.785-84.985 8.785C38.357 17.871.3 13.93.3 9.086S38.357.343 85.286.343c46.928 0 84.985 3.943 84.985 8.743z" transform="translate(2.143 162)"/>
                </g>
                <g fill="#263238" fill-rule="nonzero">
                    <path d="M0 0.6L21.729 0.514 43.5 0.471 87 0.386 130.5 0.471 152.271 0.514 174 0.6 152.271 0.729 130.5 0.771 87 0.814 43.5 0.771 21.729 0.729z" transform="translate(.429 156.429)"/>
                </g>
                <g>
                    <path fill="#37474F" fill-rule="nonzero" d="M79.929.386H7.5C5.537.397 3.66 1.19 2.285 2.59.909 3.99.149 5.88.17 7.843v149.186c-.022 1.962.738 3.853 2.114 5.252 1.375 1.4 3.252 2.193 5.215 2.205h72.429c1.962-.012 3.84-.805 5.215-2.205s2.136-3.29 2.114-5.252V7.843c.022-1.963-.739-3.853-2.114-5.253C83.768 1.19 81.89.397 79.929.386zM82.67 152.4c0 3.943-2.914 7.114-6.557 7.114h-64.8c-3.643 0-6.6-3.171-6.6-7.114V13.5c0-7.971 2.957-8.357 6.6-8.357H24.3c.729 0 1.371.857 1.371 1.886V7.5c0 2.486 1.372 2.486 3.043 2.486h30c1.715 0 3.043 0 3.043-2.486v-.471c0-1.029.6-1.886 1.372-1.886h12.985c3.643 0 6.557 1.028 6.557 8.357v138.9z" transform="translate(43.714 9)"/>
                    <path fill="#EBEBEB" fill-rule="nonzero" d="M82.671 13.5v138.9c0 3.943-2.914 7.114-6.557 7.114h-64.8c-3.643 0-6.6-3.171-6.6-7.114V13.5c0-7.971 2.957-8.357 6.6-8.357H24.3c.729 0 1.371.857 1.371 1.886V7.5c0 2.486 1.372 2.486 3.043 2.486h30c1.715 0 3.043 0 3.043-2.486v-.471c0-1.029.6-1.886 1.372-1.886h12.985c3.643 0 6.557 1.028 6.557 8.357z" transform="translate(43.714 9)"/>
                    <path fill="#FFC727" fill-rule="nonzero" d="M82.671 13.5v58.414H4.714V13.5c0-7.971 2.957-8.357 6.6-8.357H24.3c.729 0 1.371.857 1.371 1.886V7.5c0 2.486 1.372 2.486 3.043 2.486h30c1.715 0 3.043 0 3.043-2.486v-.471c0-1.029.6-1.886 1.372-1.886h12.985c3.643 0 6.557 1.028 6.557 8.357z" transform="translate(43.714 9)"/>
                    <g fill="#FFF" fill-rule="nonzero">
                        <path d="M3.171.514l-.085.129C3.043.686 3 .686 3 .729 2.69.397 2.254.21 1.8.214 1.333.21.884.395.557.73.557.686.514.686.514.643L.386.514.557.386.9.129 1.414 0h.6c.166.003.328.047.472.129l.3.128.257.214.128.086V.514z" transform="translate(43.714 9) translate(18.857 7.714)"/>
                        <path d="M.986 1.114L.77.943c.21-.239.5-.391.815-.429.445-.055.89.104 1.2.429l-.172.171c-.22-.21-.51-.332-.814-.343-.307-.002-.602.122-.814.343z" transform="translate(43.714 9) translate(18.857 7.714)"/>
                        <path d="M2.4 1.329l-.214.171c-.106-.099-.242-.16-.386-.171-.157.012-.307.071-.429.171l-.214-.171c.348-.332.895-.332 1.243 0zM1.971 1.714c0 .095-.076.172-.171.172-.045 0-.09-.018-.121-.05-.032-.033-.05-.076-.05-.122 0-.128.042-.214.171-.214.101.02.174.11.171.214z" transform="translate(43.714 9) translate(18.857 7.714)"/>
                    </g>
                    <path fill="#FFF" fill-rule="nonzero" d="M9.814 8.614c0-.284.23-.514.515-.514.284 0 .514.23.514.514 0 .284-.23.515-.514.515-.284 0-.515-.23-.515-.515zM11.443 8.614c0-.284.23-.514.514-.514.284 0 .514.23.514.514 0 .284-.23.515-.514.515-.284 0-.514-.23-.514-.515zM13.071 8.614c0-.284.23-.514.515-.514.284 0 .514.23.514.514 0 .284-.23.515-.514.515-.284 0-.515-.23-.515-.515zM14.7 8.614c0-.284.23-.514.514-.514.284 0 .515.23.515.514 0 .284-.23.515-.515.515-.284 0-.514-.23-.514-.515zM16.329 8.614c0-.284.23-.514.514-.514.284 0 .514.23.514.514 0 .284-.23.515-.514.515-.284 0-.514-.23-.514-.515zM76.843 9.771h-4.2V7.8h4.2v1.971zm-3.986-.214h3.772V8.014h-3.772v1.543z" transform="translate(43.714 9)"/>
                    <path fill="#FFF" fill-rule="nonzero" d="M72.986 8.143H75.686V9.429H72.986zM76.843 8.271H77.843V9.312000000000001H76.843zM12.129 21.3L9.814 19.157 12.129 16.971 12.471 17.357 10.586 19.157 12.471 20.914zM52.714 55.671c-1.512.975-3.178 1.685-4.928 2.1-8.766 2.215-17.76-2.688-20.648-11.256-2.889-8.567 1.302-17.915 9.62-21.46 8.318-3.543 17.962-.09 22.14 7.927 4.18 8.018 1.486 17.901-6.184 22.69z" transform="translate(43.714 9)"/>
                    <path fill="#FFC727" fill-rule="nonzero" d="M48.943 39.129c0 2.887-2.341 5.228-5.229 5.228-2.887 0-5.228-2.34-5.228-5.228s2.34-5.229 5.228-5.229 5.229 2.34 5.229 5.229zM52.714 53.529v2.142c-1.512.975-3.178 1.685-4.928 2.1-4.476 1.091-9.203.334-13.115-2.1V53.53c.327-4.742 4.27-8.421 9.022-8.421 4.753 0 8.694 3.68 9.021 8.42z" transform="translate(43.714 9)"/>
                    <g>
                        <path fill="#FFF" fill-rule="nonzero" d="M0 0H61.286V59.486H0z" transform="translate(43.714 9) translate(13.286 66)"/>
                        <text fill="#212121" font-family="Poppins-Medium, Poppins" font-size="2.571" font-weight="400" transform="translate(43.714 9) translate(13.286 66)">
                            <tspan x="24.03" y="21">New User?</tspan>
                        </text>
                        <text fill="#212121" font-family="Poppins-Medium, Poppins" font-size="2.571" font-weight="400" transform="translate(43.714 9) translate(13.286 66)">
                            <tspan x="13.668" y="47.714">Already have an account?</tspan>
                        </text>
                        <path fill="#263238" fill-rule="nonzero" d="M20.486 7.029L18.9 10.757v.086h-.557v-.086l-.857-1.971-.815 1.971c-.042.043-.042.043-.042.086h-.6c0-.043 0-.043-.043-.086L14.443 7.03c-.083-.178-.006-.389.171-.472.178-.083.389-.006.472.172l1.243 3 .814-1.972c.071-.124.2-.204.343-.214.145 0 .278.084.343.214l.814 1.972 1.286-3c.037-.088.109-.156.198-.189.09-.032.188-.026.273.017.152.108.19.317.086.472zM21.514 10.629V6.857c-.012-.098.019-.197.084-.27.066-.074.16-.116.26-.116h2.1c.195.022.343.189.342.386-.02.181-.162.324-.343.343h-1.714v1.157H23.7c.213 0 .386.173.386.386-.022.196-.189.344-.386.343h-1.457v1.2h1.714c.19 0 .343.153.343.343 0 .189-.154.342-.343.342h-2.1c-.095.015-.19-.016-.258-.084s-.1-.164-.085-.258zM25.329 10.629V6.857c0-.19.153-.343.342-.343.19 0 .343.154.343.343v3.429h1.757c.19 0 .343.153.343.343 0 .189-.153.342-.343.342h-2.1c-.094.015-.19-.016-.258-.084s-.1-.164-.084-.258zM28.5 8.657c.023-1.285 1.072-2.314 2.357-2.314.53.006 1.042.187 1.457.514.158.123.195.347.086.514-.123.158-.347.195-.514.086-.284-.25-.65-.388-1.029-.386-.43.01-.842.178-1.157.472-.302.292-.473.694-.471 1.114-.018.423.155.832.471 1.114.305.31.723.48 1.157.472.37-.003.73-.123 1.029-.343.077-.065.178-.092.277-.076.099.017.185.076.237.162.11.167.072.39-.086.514-.42.315-.932.48-1.457.471-1.285 0-2.334-1.029-2.357-2.314zM37.071 7.029c.412.442.642 1.024.643 1.628.003.605-.227 1.189-.643 1.629-.392.439-.954.688-1.542.685-.603.01-1.18-.24-1.586-.685-.416-.44-.646-1.024-.643-1.629.002-.604.231-1.186.643-1.628.406-.446.983-.696 1.586-.686.588-.003 1.15.247 1.542.686zm-.085 1.628c-.005-.41-.157-.806-.429-1.114-.265-.29-.636-.46-1.028-.472-.398-.01-.777.164-1.029.472-.302.292-.473.694-.471 1.114-.018.423.155.832.471 1.114.252.308.631.482 1.029.472.392-.012.763-.182 1.028-.472.287-.298.441-.7.429-1.114zM42.6 6.857v3.772c0 .098-.041.193-.115.259-.074.065-.173.096-.27.083-.19 0-.344-.153-.344-.342v-2.7l-.942 1.285c-.059.084-.156.133-.258.129h-.042c-.113-.006-.219-.052-.3-.129l-.9-1.285v2.7c0 .189-.154.342-.343.342-.098.013-.197-.018-.27-.083-.075-.066-.117-.16-.116-.26v-3.77c0-.214.173-.387.386-.387.115.024.22.084.3.172L40.67 8.4l1.243-1.757c.072-.097.18-.16.3-.172.103 0 .2.041.273.113.072.073.113.17.113.273zM43.8 10.629V6.857c0-.213.173-.386.386-.386h2.1c.196.022.344.189.343.386-.02.181-.162.324-.343.343h-1.757v1.157h1.5c.098 0 .193.041.259.115.065.074.096.173.083.27 0 .19-.153.344-.342.344h-1.5v1.2h1.757c.19 0 .343.153.343.343 0 .189-.154.342-.343.342h-2.1c-.098.013-.197-.018-.27-.083-.075-.066-.117-.16-.116-.26z" transform="translate(43.714 9) translate(13.286 66)"/>
                        <path fill="#FFC727" fill-rule="nonzero" d="M11.714 27L50.714 27 50.714 37 11.714 37zM11.714 54L50.714 54 50.714 64 11.714 64z" transform="translate(43.714 9) translate(13.286 66)"/>
                        <text fill="#212121" font-family="Poppins-Medium, Poppins" font-size="3" font-weight="400" transform="translate(43.714 9) translate(13.286 66)">
                            <tspan x="16.141" y="33">CREATE AN ACCOUNT</tspan>
                        </text>
                        <text fill="#212121" font-family="Poppins-Medium, Poppins" font-size="3" font-weight="400" transform="translate(43.714 9) translate(13.286 66)">
                            <tspan x="25.954" y="60">SIGN IN</tspan>
                        </text>
                    </g>
                    <path fill="#FFF" fill-rule="nonzero" d="M47.829 6.9H39.6c-.133 0-.26-.055-.35-.153-.09-.098-.134-.229-.121-.361-.001-.268.204-.492.471-.515h8.229c.267.023.472.247.471.515.012.132-.032.263-.122.361-.09.098-.217.154-.35.153z" transform="translate(43.714 9)"/>
                </g>
                <g fill-rule="nonzero">
                    <path fill="#DD6A57" d="M10.543 34.2H11.543V37.217000000000006H10.543zM10.629 144.557L10.543 144.557 10.543 144.471zM28.329 148.243c-.943-.429-21.686-19.2-22.029-20.4-.129-.472 2.443-3.643 5.657-7.414.686-.815 8.743-13.715 8.743-13.715l14.529 11.529-9.9 14.271S30.086 143.23 30.3 144.6c.214 1.371-1.029 4.029-1.971 3.643z" transform="translate(120.429 17.571)"/>
                    <path fill="#263238" d="M28.586 140.1c.67 1.46 1.243 2.964 1.714 4.5.214 1.371-1.029 4.029-1.971 3.643-.943-.386-21.686-19.2-22.029-20.4-.086-.386 1.586-2.572 3.9-5.357 4.2 4.885 17.4 20.014 18.386 18.6.094-.322.094-.664 0-.986z" transform="translate(120.429 17.571)"/>
                    <path fill="#37474F" d="M13.329 117.986l14.7 12.128S48.47 101.657 49.07 91.243c.429-7.972-11.442-22.886-19.5-35.657-.771-1.243-.3-5.957-.3-6.729H13.33c-.215 1.8-1.458 10.843 1.242 15.257C20.1 73.2 29.014 86.357 29.357 89.186c.343 2.828-16.028 28.8-16.028 28.8z" transform="translate(120.429 17.571)"/>
                    <path fill="#263238" d="M28.971 125.657c-2.357-1.971-1.628-1.414-4.028-3.386-1.157-.985-6.986-5.828-8.186-6.514-.043-.043-.086 0-.043.043.943 1.029 6.857 5.786 8.057 6.686 2.4 1.928 1.715 1.371 4.158 3.257.042.043.085-.043.042-.086zM30.814 86.571c-.557-1.028-1.114-2.057-1.714-3.085-1.243-2.057-2.529-4.029-3.814-6.043l-4.029-6.257c-1.2-1.886-2.443-3.772-3.471-5.743-1.073-1.931-1.853-4.011-2.315-6.172-.4-2.38-.457-4.804-.171-7.2.043-.6.086-1.2.171-1.8.086-.6-.171-.128-.214 0-.329 2.342-.444 4.71-.343 7.072.192 2.18.757 4.311 1.672 6.3.899 1.975 1.945 3.88 3.128 5.7l3.857 6.043c1.329 2.057 2.658 4.071 3.943 6.128l1.8 3.043c.602 1.011 1.146 2.056 1.629 3.129.266.52.426 1.088.471 1.671-.006.602-.122 1.197-.343 1.757-.453 1.1-.968 2.173-1.542 3.215-1.029 2.1-2.1 4.2-3.172 6.3-2.228 4.2-8.186 14.057-8.486 14.571h.086c2.529-4.029 5.572-8.7 7.843-12.9 1.157-2.1 2.229-4.2 3.343-6.3l1.543-3.214c.471-.986 1.028-1.972 1.071-3.086.043-1.114-.471-2.143-.943-3.129z" transform="translate(120.429 17.571)"/>
                    <path fill="#263238" d="M28.714 48.857L23.1 77.743c-2.786-4.457-6-9.429-8.529-13.586C12.043 60 13.114 50.7 13.33 48.9l15.385-.043z" transform="translate(120.429 17.571)"/>
                    <path fill="#DD6A57" d="M31.843 158.786c-.986.343-28.972-.086-30-.772-1.029-.685-.6-4.328-.686-9.257 0-1.071.257-17.314.257-17.314l18.729.214-.943 17.314s10.671 4.929 11.743 5.829c1.071.9 1.886 3.686.9 3.986z" transform="translate(120.429 17.571)"/>
                    <path fill="#263238" d="M26.7 152.529c1.464.66 2.882 1.419 4.243 2.271 1.071.857 1.886 3.686.9 3.986-.986.3-28.972-.086-30-.772-.343-.214-.514-2.914-.6-6.557 6.343.857 26.271 3.514 26.1 1.8-.168-.28-.386-.527-.643-.728z" transform="translate(120.429 17.571)"/>
                    <path fill="#37474F" d="M29.271 48.9s-3.128 15.386-3.3 15.9c-1.55.653-3.053 1.412-4.5 2.271l-1.157 78.386-20.185.129s2.528-41.572 2.442-44.229c-.085-4.286 1.758-33.3 1.5-34.028-2.657-7.415 1.5-18.429 1.5-18.429h23.7z" transform="translate(120.429 17.571)"/>
                    <path fill="#263238" d="M19.586 141.729c-5.7-.215-16.715-.129-18.129.128-.043 0-.043.043 0 .043 1.414.214 14.786.257 18.129-.086.043 0 .043-.085 0-.085zM4.714 121.757c.3-5.871.643-11.786.986-17.657l1.029-17.7.514-8.871.257-4.415c.143-1.452.2-2.912.171-4.371-.085-1.586-.771-3-1.157-4.543-.359-1.444-.546-2.926-.557-4.414 0-3.086.643-6.129 1.243-9.129 0-.171.3-.086.257.086-.674 2.755-1.09 5.567-1.243 8.4-.022 1.41.107 2.818.386 4.2.257 1.328.857 2.571 1.2 3.857.343 1.286.171 2.786.086 4.157-.086 1.372-.129 2.957-.215 4.414l-.514 8.658c-.686 11.742-1.328 23.485-2.014 35.228-.429 6.6-.729 13.2-1.286 19.8 0 .043-.043.043-.043 0 .172-5.871.557-11.786.9-17.7z" transform="translate(120.429 17.571)"/>
                    <path fill="#263238" d="M7.757 58.157c.343-.145.703-.245 1.072-.3L9.9 57.43c.662-.304 1.282-.693 1.843-1.158.532-.483.943-1.085 1.2-1.757.124-.378.267-.75.428-1.114.06-.19.132-.376.215-.557.086-.18.157-.366.214-.557h-.043c-.043 0-.043 0 0-.043s0-.043.043-.043.043 0 .043.043.043.214 0 .343c-.043.128-.129.471-.172.728-.042.257-.214.857-.342 1.243-.177.784-.58 1.5-1.158 2.057-.614.544-1.327.966-2.1 1.243l-1.157.343c-.375.112-.77.141-1.157.086-.086-.043-.043-.129 0-.129zM24.043 62.357l.128-2.1c.129-1.628.258-3.214.515-4.843 0-.128.171-.085.171.043-.086 1.243-.214 2.529-.3 3.772-.086 1.242-.214 2.485-.214 3.728 0 .386.043.986.514 1.114.472.129.9-.685 1.029-1.157.324-1.11.568-2.24.728-3.385.172-1.329.257-2.658.343-3.986h.086c.043 2.614.086 5.357-.857 7.843-.215.514-.515.985-1.072 1.071h-.043c.007.074-.008.149-.042.214v.172c-.043.128-.043.257-.086.386-.043.128-.172.085-.172 0-.047 0-.085-.039-.085-.086.01-.252.069-.499.171-.729-.31-.053-.57-.264-.686-.557-.144-.486-.188-.996-.128-1.5z" transform="translate(120.429 17.571)"/>
                    <path fill="#263238" d="M25.971 64.671c-1.988.873-3.895 1.92-5.7 3.129-.085.043-.042.129.043.086 1.929-.943 3.9-1.886 5.786-3 .05-.016.087-.062.09-.115.003-.053-.026-.103-.075-.125-.049-.022-.106-.012-.144.025zM20.871 105.814c0-.171.086-.257.086-.043.043 1.329.043 3.172.043 4.5v4.586l-.129 4.586-.085 2.314c-.043.514-.043 1.543-.043 2.1 0 .557-.086.257-.129.043-.043-.214-.043-1.414-.043-2.143v-2.314c0-1.543 0-3.086.043-4.586.043-1.5.043-3.086.086-4.628.043-1.543.086-2.872.171-4.415zM30.943 27.129c.033.056.032.127-.005.182-.037.055-.101.084-.167.075l-.9.085c-.9-2.228-1.842-4.028-1.585-3.342.397 1.104.642 2.258.728 3.428l-1.8.129c-.857-3.986-1.885-6.9-1.8-6 .386 3.685.215 4.885.043 6.128-4.328.3-9.986.686-14.1.815-.557-2.186-1.071-4.543-1.114-4.372-.514 1.243-.6 3.043-.557 4.457h-3s-.386-1.843-.429-2.443c-.172-1.56-.086-3.139.257-4.671.437-1.493 1.011-2.942 1.715-4.329h.042c.43-.93.747-1.908.943-2.914.173-.73.26-1.478.257-2.228.086-2.743 1.415-5.1 3.772-5.915C17.57 1.586 22.2 3.386 23.7 6.857c.129.343.3.729.429 1.114.514 1.543 1.028 3.6 1.457 5.143h.043c-.043.043-.043.043 0 .043.154.614.354 1.216.6 1.8 1.242 2.829 3.942 4.372 4.714 12.172z" transform="translate(120.429 17.571)"/>
                    <path fill="#263238" d="M12.257 6.986c-1.555.836-2.55 2.435-2.614 4.2-.028 1.143-.186 2.279-.472 3.385-.418 1.08-.996 2.092-1.714 3-1.028 1.5-1.757 3-1.843 4.929-.085 1.929.086 4.329.815 6.171-.585-2.09-.746-4.275-.472-6.428.257-2.186 1.329-3.557 2.443-5.229.877-1.318 1.407-2.836 1.543-4.414.043-.986 0-2.014.343-2.957.343-.943 1.243-1.843 2.1-2.486.085-.086-.043-.257-.129-.171zM28.971 17.957c-1.157-1.543-2.357-2.828-3.085-4.714-.729-1.886-1.072-3.557-1.757-5.314h-.043c1.071 3.042 1.371 6.171 3.343 8.742C28.5 18.043 29.57 19.33 30.3 21c.745 1.77 1.18 3.654 1.286 5.571 0 .086.085.086.085 0 .133-3.098-.822-6.146-2.7-8.614z" transform="translate(120.429 17.571)"/>
                    <path fill="#37474F" d="M39.386 9.514l-2.743 12.729c-.084.142-.08.319.012.456.091.137.253.21.416.187l6.472-.215c.41-.028.764-.297.9-.685L47.229 9.3c.075-.148.067-.324-.02-.464-.088-.14-.243-.225-.409-.222l-6.514.215c-.406.038-.755.304-.9.685z" transform="translate(120.429 17.571)"/>
                    <path fill="#455A64" d="M40.157 9.514L37.414 22.2c-.128.386.043.686.429.643l6.471-.172c.413-.055.76-.336.9-.728L48 9.257c.075-.147.068-.324-.02-.464-.088-.14-.243-.225-.409-.222l-6.514.215c-.412.055-.76.336-.9.728z" transform="translate(120.429 17.571)"/>
                    <path fill="#263238" d="M41.957 10.029c.012.143-.037.285-.134.391-.098.106-.236.166-.38.166-.308 0-.557-.25-.557-.557-.012-.144.037-.286.134-.392.098-.106.236-.166.38-.166.308 0 .557.25.557.558z" transform="translate(120.429 17.571)"/>
                    <path fill="#DD6A57" d="M19.029 29.271c3.857 7.758 12.385 17.743 15.771 17.7 1.629 0 4.543.343 6.643-1.585 4.586-4.2 8.271-12.086 9-16.586.214-1.586-7.586-4.843-8.7-3.514C39.17 28.37 36.17 34.37 35.7 34.37c-1.757-.128-8.7-5.657-13.586-9.557-5.914-4.757-4.628 1.372-3.085 4.457zM50.443 20.614c-.9-3.214-1.629-3.9-.943-7.028.471-2.015-.643-3.172-2.057-1.5-2.272 2.7-2.014 7.071-1.457 8.571l4.457-.043z" transform="translate(120.429 17.571)"/>
                    <path fill="#DD6A57" d="M50.1 30.214s1.329-4.543.686-8.057c-.386-2.4-1.929-7.586-8.786-10.2-1.629-.6-4.414-.343-2.1 1.672 1.629 1.371 3.086 1.757 3.9 2.785 0 0-3.471.772-4.029 2.4-.476 1.46-.863 2.95-1.157 4.457l.815.3s-.343 1.586.857 3.772l9.814 2.871z" transform="translate(120.429 17.571)"/>
                    <path fill="#DD6A57" d="M50.014 19.929c-.985-.815-3.128-2.529-5.4-3.258-2.271-.728-7.5-1.842-8.1 0-.6 1.843 1.415 1.886 1.415 1.886s-2.143.043-2.315 1.372c-.171 1.328 1.372 1.5 1.372 1.5s-1.286.257-1.2 1.457c.085 1.2 2.871.643 4.2 1.971.3.3 10.028-4.928 10.028-4.928z" transform="translate(120.429 17.571)"/>
                    <path fill="#263238" d="M44.186 19.414c-1.94-.899-4.1-1.212-6.215-.9-.042.043-.085.086 0 .086 2.086.017 4.16.305 6.172.857.043 0 .043 0 .043-.043zM43.243 21.943c-.986-.429-3.9-1.114-6.257-.557-.043.043-.043.085 0 .085 2.096-.065 4.194.093 6.257.472z" transform="translate(120.429 17.571)"/>
                    <path fill="#FFC727" d="M22.586 36.3l6.428-6.729s-4.8-4.371-8.314-6.085c-3.514-1.715-4.114.557-2.657 4.114 1.457 3.557 4.543 8.7 4.543 8.7z" transform="translate(120.429 17.571)"/>
                    <path fill="#000" d="M22.586 36.3l6.428-6.729s-4.8-4.371-8.314-6.085c-3.514-1.715-4.114.557-2.657 4.114 1.457 3.557 4.543 8.7 4.543 8.7z" opacity=".1" transform="translate(120.429 17.571)"/>
                    <path fill="#EBEBEB" d="M28.543 43.029l3 14.185s-23.272 1.843-29.1 1.843c0 0 2.957-27.086 8.743-34.243 2.871-3.6 6.557-3.557 9.043-1.371.642.557 8.271 9.386 9.257 12.9.985 3.514-.943 6.686-.943 6.686z" transform="translate(120.429 17.571)"/>
                    <path fill="#FFC727" d="M17.657 22.071h-2.486c.818-.193 1.669-.193 2.486 0zM20.186 23.443L12.557 23.443 12.857 23.186 19.886 23.186zM21.429 24.771L11.229 24.771 11.4 24.514 21.214 24.514zM22.586 26.143L10.286 26.143 10.457 25.886 22.371 25.886zM23.7 27.471L9.557 27.471 9.686 27.257 23.486 27.257zM24.771 28.843L8.914 28.843 9.043 28.586 24.557 28.586zM25.8 30.214H8.4c.043-.085.043-.171.086-.257h17.143l.171.257zM26.786 31.543H7.929c.008-.091.037-.18.085-.257h18.6l.172.257zM27.686 32.914L7.457 32.914 7.543 32.657 27.514 32.657zM28.543 34.243H7.07c0-.086.043-.129.043-.214h21.257l.172.214zM29.229 35.614H6.686c.008-.09.038-.179.085-.257H29.1l.129.257zM29.614 36.986H6.343c0-.086.043-.172.043-.257H29.57c0 .085.043.171.043.257zM29.7 38.057v.257H6c0-.085.043-.171.043-.257H29.7zM29.614 39.429c.007.087-.008.176-.043.257H5.657c.043-.086.043-.172.086-.257h23.871zM29.357 40.757c-.043.129-.043.214-.086.257H5.357c.035-.083.064-.17.086-.257h23.914zM28.929 42.129l-.129.257H5.1c0-.086.043-.172.043-.257h23.786zM28.671 43.757H4.8c.043-.086.043-.171.086-.257h23.743l.042.257zM28.971 45.086H4.543c.034-.081.049-.17.043-.257h24.343l.042.257zM29.271 46.457H4.286c.034-.081.049-.17.043-.257h24.9l.042.257zM29.571 47.786h-25.5c0-.086.043-.172.043-.257h25.372l.085.257zM29.829 49.157H3.857c-.006-.088.009-.176.043-.257h25.886l.043.257zM30.129 50.529L3.643 50.529 3.643 50.271 30.086 50.271zM30.429 51.857L3.429 51.857 3.429 51.6 30.386 51.6zM30.686 53.229H3.214c-.006-.088.009-.176.043-.258h27.386l.043.258zM30.986 54.557H3c.034-.081.05-.17.043-.257h27.9l.043.257zM31.286 55.929H2.829c0-.086.042-.172.042-.258h28.372l.043.258zM31.543 57.171l-1.072.086H2.657c-.003-.074.012-.147.043-.214h28.8l.043.128zM15.557 58.371l-3.9.258H2.486c0-.086.043-.172.043-.258h13.028z" transform="translate(120.429 17.571)"/>
                    <path fill="#263238" d="M29.357 40.586c.186-.83.244-1.682.172-2.529-.216-1.739-.816-3.408-1.758-4.886-.471-.857-1.071-1.671-1.585-2.485h.043c.471.557.857 1.157 1.285 1.757v-.086c-.128-.3-.257-.643-.428-.986h.043l.514.943c.09.208.162.423.214.643.511.723.942 1.499 1.286 2.314.77 1.6.981 3.41.6 5.143-.225.948-.617 1.848-1.157 2.657 0 .043-.086 0-.043-.042.356-.774.642-1.577.857-2.4" transform="translate(120.429 17.571)"/>
                    <path fill="#DD6A57" d="M14.786 23.743c.214.428 2.828 3.043 4.885 2.614.686-.128.086-3.814.086-3.814v-.3l.257-3.943-4.928-2.186-.686-.3v3.943c0 .172.043.343.043.514.086 1.629.3 3.258.343 3.472z" transform="translate(120.429 17.571)"/>
                    <path fill="#263238" d="M14.4 18.257c1.116 2.049 3.074 3.505 5.357 3.986l.257-3.943-4.928-2.186-.686-.3v2.443z" transform="translate(120.429 17.571)"/>
                    <path fill="#DD6A57" d="M24.9 12.343c.729 6.943-3.343 8.143-4.843 8.314-1.5.172-5.957.429-7.414-6.386-1.457-6.814 1.543-9.342 4.628-9.814 3.086-.471 6.9.986 7.629 7.886z" transform="translate(120.429 17.571)"/>
                    <path fill="#263238" d="M23.357 10.843h-.471c-.169.026-.34-.02-.472-.129-.078-.08-.095-.201-.043-.3.129-.214.386-.214.6-.214.225.012.437.103.6.257.172.129 0 .386-.214.386zM18.814 11.4l.472-.171c.16-.027.31-.102.428-.215.043-.085.043-.257-.043-.3-.16-.156-.402-.19-.6-.085-.23.046-.432.186-.557.385-.128.172.086.429.3.386zM20.014 13.029c.043.471.086 1.028-.343 1.242.515-.085.515-.814.343-1.242z" transform="translate(120.429 17.571)"/>
                    <path fill="#263238" d="M19.543 12.6c-.772.043-.6 1.586.086 1.543.685-.043.557-1.586-.086-1.543z" transform="translate(120.429 17.571)"/>
                    <path fill="#263238" d="M19.243 12.729c-.129.085-.214.257-.386.257-.171 0-.343-.086-.471-.257h-.043c.043.3.171.557.471.6.3.042.472-.258.557-.558.086-.3-.085-.085-.128-.042zM22.629 12.686c.023 0 .042.019.042.043.043.471.129.985.558 1.114.428.128.042.043 0 .043-.043 0-.643-.772-.6-1.2z" transform="translate(120.429 17.571)"/>
                    <path fill="#263238" d="M23.014 12.171c.772-.128.943 1.372.257 1.5-.685.129-.9-1.414-.257-1.5z" transform="translate(120.429 17.571)"/>
                    <path fill="#263238" d="M23.357 12.214c.129.086.257.215.386.172.128-.043.3-.172.386-.343.042.3 0 .643-.258.728-.257.086-.471-.171-.6-.428-.128-.257.043-.172.086-.129zM20.4 16.8c.102.14.257.233.429.257l.514-.128c-.11.222-.356.345-.6.3-.214-.043-.3-.215-.386-.386l.043-.043zM22.2 14.914s.171.686.214 1.029H22.2c-.567.185-1.19.017-1.586-.429h.043c.457.253.985.343 1.5.257 0-.085-.343-1.157-.3-1.157.26-.014.52.015.772.086-.3-1.457-.815-2.871-1.115-4.329 0-.042.043-.042.086 0 .62 1.48 1.093 3.015 1.414 4.586.043.172-.685 0-.814-.043z" transform="translate(120.429 17.571)"/>
                    <path fill="#263238" d="M22.157 15.943c-.17.269-.406.49-.686.643-.154.093-.333.138-.514.128-.343-.043-.428-.385-.386-.685.002-.161.031-.32.086-.472.449.28.972.414 1.5.386z" transform="translate(120.429 17.571)"/>
                    <path fill="#FF9ABB" d="M21.471 16.586c-.154.093-.333.138-.514.128-.343-.043-.428-.385-.386-.685.39-.03.753.196.9.557z" transform="translate(120.429 17.571)"/>
                    <path fill="#263238" d="M13.2 13.971c1.243.215 1.671-2.657 1.671-2.657s5.486-.728 6.129-5.1c.615 1.822 1.903 3.34 3.6 4.243 0 0 0-4.886-3.814-5.957 0 0-4.672-1.929-7.5 1.757-2.829 3.686-.943 7.586-.086 7.714z" transform="translate(120.429 17.571)"/>
                    <path fill="#263238" d="M21 5.871c.03.685-.072 1.369-.3 2.015-.238.648-.619 1.234-1.114 1.714-.086.171-.257.257-.386.386l-.171.171-.215.129-.428.3-.472.214-.214.086-.257.085-.472.172-1.028.214.986-.343.428-.214.214-.086.258-.128.428-.257.386-.258.214-.171.172-.171.342-.3c.458-.48.834-1.03 1.115-1.629.133-.307.247-.622.343-.943.081-.324.138-.653.171-.986z" transform="translate(120.429 17.571)"/>
                    <path fill="#DD6A57" d="M13.971 14.571s-1.585-2.142-2.528-1.585c-.943.557.214 3.685 1.371 4.114.296.128.63.132.928.01.298-.12.535-.356.658-.653l-.429-1.886z" transform="translate(120.429 17.571)"/>
                    <path fill="#263238" d="M11.786 13.886c.814.3 1.243 1.071 1.585 1.843-.094-.17-.26-.288-.451-.322-.192-.033-.388.022-.534.15h.043c.276-.102.587-.015.771.214.16.195.29.411.386.643.007.03.03.055.061.064.03.008.063 0 .086-.022.023-.022.032-.054.024-.085 0-.942-.857-2.4-1.971-2.485zM13.843 6.171c.6-.257 1.2-3.728-1.072-5.357C10.5-.814 7.543 1.03 8.786 3.9c.771 1.8 3.728 2.743 5.057 2.271z" transform="translate(120.429 17.571)"/>
                    <path fill="#263238" d="M9.557.6c-.676.559-1.144 1.329-1.328 2.186-.18.824.08 1.683.685 2.271.659.546 1.437.928 2.272 1.114.437.086.882.129 1.328.129.447.042.898-.001 1.329-.129-.404.237-.86.37-1.329.386-.457.05-.918.035-1.371-.043-.952-.096-1.85-.486-2.572-1.114-.346-.344-.597-.773-.728-1.243-.137-.478-.122-.987.043-1.457.248-.898.852-1.656 1.671-2.1z" transform="translate(120.429 17.571)"/>
                    <path fill="#DD6A57" d="M10.757 25.371C5.014 33.986 1.8 45.471 2.186 48c.385 2.529 4.414 12.171 8.443 16.329 1.071 1.114 9.171-7.886 8.057-9.086-2.1-2.357-6.257-9.214-6.472-10.8-.214-1.586 1.972-10.8 2.529-16.114.557-5.315-1.329-6.986-3.986-2.958z" transform="translate(120.429 17.571)"/>
                    <path fill="#DD6A57" d="M18.429 54.943s4.414 1.928 7.2 3.343c1.585.771 4.157 2.357 5.057 3.471.9 1.114 5.828 9.343 3.985 10.5-1.842 1.157-4.714-6.128-4.714-6.128s3.686 6.942 1.457 7.8c-2.228.857-4.585-7.629-4.585-7.629s3.642 7.2 1.157 7.714c-1.843.429-4.415-7.2-4.415-7.2s3.086 6.215 1.2 6.729c-1.885.514-4.928-6.343-4.928-6.343-5.014.471-7.586-1.371-9.257-2.914-.386-.343 7.843-9.343 7.843-9.343z" transform="translate(120.429 17.571)"/>
                    <path fill="#263238" d="M28.843 63.686c.493.785.937 1.601 1.328 2.443.386.814.729 1.671 1.072 2.528.422 1.137.724 2.315.9 3.514-.472-2.1-1.843-5.142-2.229-5.957-.385-.814-.728-1.714-1.114-2.528h.043zM25.8 65.014c.514 1.072 1.114 2.057 1.629 3.129.514 1.071.857 2.143 1.285 3.214.043.086 0 .086-.043 0-.471-1.071-.985-2.014-1.457-3.086-.471-1.071-.943-2.185-1.457-3.214 0-.043 0-.043.043-.043zM22.971 65.743c.875 1.578 1.579 3.244 2.1 4.971.043.086-.042.043-.042-.043-.686-1.671-1.2-2.957-2.143-4.928h.085z" transform="translate(120.429 17.571)"/>
                    <path fill="#FFC727" d="M5.229 34.2l9.171 1.757s1.071-6.386.6-10.286c-.471-3.9-2.7-3.128-4.886 0C7.93 28.8 5.23 34.2 5.23 34.2z" transform="translate(120.429 17.571)"/>
                    <path fill="#000" d="M5.229 34.2l9.171 1.757s1.071-6.386.6-10.286c-.471-3.9-2.7-3.128-4.886 0C7.93 28.8 5.23 34.2 5.23 34.2z" opacity=".1" transform="translate(120.429 17.571)"/>
                </g>
                <g fill-rule="nonzero">
                    <path fill="#FFC727" d="M27.257 46.5c-.514 2.1-1.028 4.157-1.114 6.343.043.086.043.514-.043.386-.086-.129-.514.3-.514-.043V52.5c-1.243-1.543-3.043-2.529-4.5-3.857-1.188-1.05-2.05-2.419-2.486-3.943-1.2-4.157-.043-8.571-1.5-12.729-1.457-4.157-3.514-6.685-5.443-9.942-1.928-3.258-3.471-7.072-3.6-11.1-.128-3.043.214-7.158 2.572-9.472 2.357-2.314 5.571-.6 7.5 1.586 5.485 6.3 8.057 14.314 9.085 22.5.557 4.543 1.157 9.128 1.029 13.671-.09 2.455-.42 4.895-.986 7.286z" transform="translate(5.143 83.571)"/>
                    <path fill="#263238" d="M26.143 54.514c.321-4.281.278-8.583-.129-12.857.086-3.471.343-6.943.215-10.414-.15-3.756-.667-7.488-1.543-11.143 0-.043-.043-.043-.043 0 .677 3.607 1.078 7.26 1.2 10.929.086 1.971.043 3.9-.043 5.871l-.129 1.929c-1.456-9.746-4.977-19.069-10.328-27.343-.086-.086-.3 0-.214.128 3.838 6.279 6.672 13.118 8.4 20.272-2.658-4.929-6.643-8.957-9.643-13.715h-.043c2.7 5.272 7.114 9.429 9.9 14.615.507 2.107.907 4.238 1.2 6.385.406 2.94.62 5.904.643 8.872-1.629-3.043-3.3-5.914-4.629-9.129-.043-.085-.171 0-.128.086 1.114 3.3 2.657 6.9 4.757 9.729 0 2.1-.043 4.2-.172 6.3-.343 5.614-1.285 11.142-1.714 16.714-.043.171.214.214.257.043 1.113-5.702 1.843-11.472 2.186-17.272z" transform="translate(5.143 83.571)"/>
                    <path fill="#263238" d="M20.186 11.271c0-.042-.043 0-.043.043 1.028 2.829 1.586 5.7 2.357 8.572.024.036.064.057.107.057s.083-.021.107-.057c-.343-2.957-1.371-5.915-2.528-8.615z" transform="translate(5.143 83.571)"/>
                    <path fill="#FFC727" d="M46.2 23.143c-.681 1.663-1.469 3.28-2.357 4.843C42 31.329 40.07 34.37 39.729 38.27c-.129 1.758-.215 3.515-.729 5.186-.486 1.436-1.179 2.793-2.057 4.029-2.014 2.914-4.5 5.443-6.343 8.443-1.92 3.166-3.35 6.605-4.243 10.2-.043.05-.113.072-.177.053-.065-.018-.113-.073-.123-.14-.3-8.356.386-16.756 2.914-24.77 1.123-3.531 2.483-6.982 4.072-10.33 1.371-2.913 3.043-5.7 5.443-7.842 1.543-1.414 4.928-4.071 7.157-2.657 1.071.6.986 1.671.557 2.7z" transform="translate(5.143 83.571)"/>
                    <path fill="#263238" d="M37.8 42.086c-1.461 2.43-3.079 4.764-4.843 6.985l-2.443 3.172c-.385.514-.814.986-1.157 1.543L30 51.129c1.071-4.2 2.143-8.486 3.729-12.558 1.652-3.92 3.586-7.715 5.785-11.357.086-.085-.085-.171-.128-.085-1.757 2.914-3.557 5.828-5.057 8.871-.821 1.712-1.537 3.472-2.143 5.271.673-3.81 1.633-7.563 2.871-11.228 0-.043-.043-.086-.086-.043-1.56 3.732-2.556 7.675-2.957 11.7h.043c-.386 1.114-.728 2.186-1.028 3.3-1.329 4.671-2.486 9.386-3.558 14.143-.007-3.118.266-6.23.815-9.3 0-.086-.086-.086-.086 0-.847 3.183-1.123 6.492-.814 9.771-.429 1.8-.815 3.643-1.2 5.443-.815 3.857-1.843 7.757-2.315 11.657 0 .129.129.129.172.043.557-2.1.9-4.286 1.371-6.428.472-2.143.943-4.286 1.457-6.429.729-3.086 1.5-6.214 2.272-9.3.514-1.114 1.5-2.143 2.271-3.086l2.443-3.171c1.51-1.958 2.858-4.037 4.029-6.214 0-.043-.043-.086-.086-.043z" transform="translate(5.143 83.571)"/>
                    <path fill="#263238" d="M38.143 38.529c-1.828 2.353-3.421 4.879-4.757 7.542 0 .043.043.086.085.043l4.758-7.543c.042-.042-.043-.085-.086-.042z" transform="translate(5.143 83.571)"/>
                    <path fill="#FFC727" d="M2.571 31.071c1.072 1.843 2.315 4.115 1.843 6.343-.3 1.415-1.328 2.572-1.5 4.029-.428 3.171 2.743 5.271 5.057 6.814 5.743 3.729 13.629 7.114 14.658 14.786.042.3.514.214.471-.043h.043c.729-3.9.685-7.903-.129-11.786-.857-3.943-2.571-7.5-4.628-10.971-3.472-5.914-7.115-11.957-12.343-16.457C4.586 22.543 1.629 20.27.47 23.1c-1.157 2.829.772 5.7 2.1 7.971z" transform="translate(5.143 83.571)"/>
                    <path fill="#263238" d="M7.843 43.543C11.614 47.7 17.7 49.97 20.957 54.6c-1.928-7.071-5.143-13.414-10.114-18.943-.086-.171.086-.343.214-.214 3.516 3.403 6.327 7.467 8.272 11.957-.906-3.131-2.096-6.172-3.558-9.086-.042-.128.086-.214.172-.128 1.797 3.194 3.084 6.65 3.814 10.243 4.329 10.414 4.714 22.671 3.814 33.685 0 .071-.057.129-.128.129-.071 0-.129-.058-.129-.129.257-8.657.129-17.485-1.971-25.971l-.129-.514c-3.557-4.972-9.6-7.286-13.457-12-.043-.043.043-.129.086-.086z" transform="translate(5.143 83.571)"/>
                    <path fill="#263238" d="M6.943 40.029l5.957 5.528c.043.043 0 .043 0 .043-2.272-1.523-4.32-3.355-6.086-5.443-.043-.086.043-.214.129-.128zM6.643 32.1c1.757 2.888 3.75 5.626 5.957 8.186.043.043 0 .085-.043.085-2.482-2.366-4.528-5.152-6.043-8.228-.043-.086.086-.129.129-.043z" transform="translate(5.143 83.571)"/>
                    <path fill="#455A64" d="M15.643 89.914L33.129 89.914 30.771 66.343 18.3 66.343z" transform="translate(5.143 83.571)"/>
                    <path fill="#263238" d="M17.871 70.2L31.157 70.2 30.771 66.343 18.3 66.343z" transform="translate(5.143 83.571)"/>
                    <path fill="#455A64" d="M16.157 63.784H32.571V67.54299999999999H16.157z" transform="translate(5.143 83.571) rotate(180 24.364 65.664)"/>
                </g>
            </g>
        </g>
    </g>
</svg>
